{"glyphs":{"0":{"ha":688,"x_min":54,"x_max":633,"o":"m 633 387 q 554 88 633 190 q 345 -14 476 -14 q 133 88 212 -14 q 54 387 54 190 l 54 600 q 133 899 54 796 q 343 1002 211 1002 q 554 899 475 1002 q 633 600 633 796 l 633 387 m 440 616 q 415 791 440 736 q 345 842 390 846 l 341 842 q 271 791 296 846 q 247 616 247 736 l 247 372 q 272 196 247 251 q 342 144 297 140 l 347 144 q 416 195 391 140 q 440 372 440 250 l 440 616 z "},"1":{"ha":691,"x_min":87,"x_max":463,"o":"m 463 0 l 270 0 l 270 786 l 87 782 l 87 921 l 463 988 l 463 0 z "},"2":{"ha":691,"x_min":41,"x_max":640,"o":"m 640 0 l 56 0 l 56 131 l 326 472 q 402 604 379 548 q 426 707 426 661 q 401 808 426 770 q 331 847 377 847 q 258 800 283 847 q 233 677 233 753 l 45 677 l 43 681 q 119 908 41 815 q 331 1002 198 1002 q 543 923 467 1002 q 618 709 618 844 q 576 541 618 618 q 435 338 534 463 l 306 154 l 640 154 l 640 0 z "},"3":{"ha":691,"x_min":36,"x_max":633,"o":"m 231 578 l 327 578 q 404 615 378 578 q 429 718 429 652 q 404 811 429 775 q 332 847 378 847 q 266 815 294 847 q 239 732 239 783 l 52 732 l 51 736 q 128 927 47 853 q 326 1002 208 1002 q 541 928 460 1002 q 621 720 621 854 q 586 596 621 653 q 491 507 551 538 q 597 418 560 478 q 633 275 633 358 q 547 63 633 140 q 326 -14 460 -14 q 121 59 207 -14 q 39 267 36 132 l 41 271 l 228 271 q 258 177 228 214 q 332 140 288 140 q 411 177 382 140 q 441 278 441 215 q 412 393 441 357 q 327 429 383 429 l 231 429 l 231 578 z "},"4":{"ha":691,"x_min":36,"x_max":651,"o":"m 566 370 l 651 370 l 651 216 l 566 216 l 566 0 l 374 0 l 374 216 l 46 216 l 36 336 l 373 987 l 566 987 l 566 370 m 211 370 l 374 370 l 374 711 l 370 712 l 359 694 l 211 370 z "},"5":{"ha":691,"x_min":56,"x_max":634,"o":"m 75 437 l 123 987 l 606 987 l 606 829 l 281 829 l 260 597 q 312 632 281 618 q 378 647 344 646 q 568 562 502 649 q 634 317 634 475 q 559 81 634 176 q 345 -14 484 -14 q 141 61 227 -14 q 58 267 56 137 l 60 270 l 247 280 q 274 177 247 214 q 345 140 301 140 q 419 188 396 140 q 442 315 442 237 q 416 454 442 403 q 338 505 391 505 q 276 483 298 505 q 246 425 254 461 l 75 437 z "},"6":{"ha":691,"x_min":54,"x_max":650,"o":"m 403 1002 q 491 991 451 1002 q 572 960 530 981 l 539 814 q 473 837 503 829 q 404 845 443 845 q 291 781 333 845 q 250 600 248 717 l 253 597 q 321 645 279 627 q 413 663 362 663 q 588 568 525 663 q 650 327 650 474 q 570 82 650 179 q 361 -14 489 -14 q 139 92 224 -14 q 54 382 54 197 l 54 585 q 152 889 54 777 q 403 1002 250 1002 m 361 511 q 292 497 321 511 q 247 458 264 483 l 247 380 q 278 201 247 264 q 361 139 309 139 q 431 194 405 139 q 458 327 458 250 q 431 460 458 409 q 361 511 404 511 z "},"7":{"ha":691,"x_min":37,"x_max":638,"o":"m 638 833 q 461 503 505 661 q 397 95 417 345 l 389 0 l 195 0 l 205 95 q 284 500 223 317 q 454 833 345 684 l 37 833 l 37 987 l 638 987 l 638 833 z "},"8":{"ha":691,"x_min":56,"x_max":634,"o":"m 617 726 q 584 594 617 651 q 492 505 550 537 q 596 410 558 471 q 634 270 634 349 q 555 59 634 132 q 346 -14 475 -14 q 136 59 216 -14 q 56 270 56 133 q 94 411 56 349 q 199 505 132 472 q 107 594 140 537 q 74 726 74 651 q 149 929 74 857 q 345 1002 223 1002 q 542 929 467 1002 q 617 726 617 857 m 441 284 q 415 390 441 351 q 345 429 389 429 q 275 390 301 429 q 250 284 250 351 q 275 178 250 216 q 346 140 301 140 q 415 178 389 140 q 441 284 441 216 m 423 716 q 403 812 423 777 q 345 847 383 847 q 288 812 307 847 q 268 716 268 778 q 288 618 268 654 q 346 583 308 583 q 404 618 384 583 q 423 716 423 653 z "},"9":{"ha":691,"x_min":51,"x_max":631,"o":"m 304 140 q 401 195 363 140 q 439 351 439 251 l 439 389 q 376 330 412 350 q 299 309 340 309 q 117 400 183 309 q 51 649 51 492 q 133 900 51 798 q 339 1002 214 1002 q 550 897 469 1002 q 631 605 631 792 l 631 363 q 539 88 631 190 q 304 -14 446 -14 q 216 -3 262 -14 q 129 28 169 7 l 151 172 q 224 148 188 155 q 304 140 260 140 m 336 454 q 396 471 370 454 q 439 516 422 488 l 439 629 q 412 791 439 736 q 341 843 385 846 l 337 843 q 269 787 296 846 q 243 649 243 728 q 267 507 243 560 q 336 454 290 454 z "},"\r":{"ha":304,"x_min":0,"x_max":0,"o":""}," ":{"ha":304,"x_min":0,"x_max":0,"o":""},"\"":{"ha":408,"x_min":35,"x_max":372,"o":"m 169 880 l 119 709 l 35 709 l 35 1058 l 169 1058 l 169 880 m 372 880 l 321 709 l 238 709 l 239 877 l 239 1058 l 372 1058 l 372 880 z "},"#":{"ha":701,"x_min":30,"x_max":670,"o":"m 365 278 l 273 278 l 233 0 l 115 0 l 155 278 l 30 278 l 30 391 l 172 391 l 201 593 l 73 593 l 73 705 l 217 705 l 258 987 l 375 987 l 334 705 l 427 705 l 467 987 l 585 987 l 544 705 l 670 705 l 670 593 l 528 593 l 498 391 l 627 391 l 627 278 l 482 278 l 442 0 l 325 0 l 365 278 m 289 391 l 381 391 l 410 593 l 318 593 l 289 391 z "},"$":{"ha":691,"x_min":54,"x_max":636,"o":"m 441 258 q 419 349 441 315 q 341 414 397 382 q 148 538 210 472 q 85 727 85 604 q 149 913 85 840 q 319 999 212 986 l 319 1143 l 416 1143 l 416 997 q 577 896 517 978 q 636 684 636 814 l 444 684 q 420 806 444 763 q 357 848 396 848 q 298 814 317 848 q 278 726 278 781 q 300 642 278 675 q 380 576 322 608 q 572 448 510 514 q 634 260 634 381 q 572 73 634 144 q 404 -11 509 2 l 404 -146 l 305 -146 l 305 -11 q 125 81 196 3 q 54 309 54 159 l 246 309 q 276 178 246 218 q 354 138 306 138 q 419 172 397 138 q 441 258 441 205 z "},"%":{"ha":920,"x_min":61,"x_max":861,"o":"m 61 798 q 112 943 61 885 q 254 1002 162 1002 q 397 944 347 1002 q 447 798 447 886 l 447 745 q 397 600 447 657 q 255 543 347 543 q 112 600 163 543 q 61 745 61 658 l 61 798 m 187 745 q 205 680 187 707 q 255 653 222 653 q 303 680 286 653 q 321 745 321 706 l 321 798 q 303 864 321 837 q 254 891 286 891 q 204 864 222 891 q 187 798 187 836 l 187 745 m 475 242 q 526 387 475 329 q 668 446 576 446 q 811 388 761 446 q 861 242 861 330 l 861 190 q 811 44 861 102 q 669 -14 761 -14 q 526 44 577 -14 q 475 190 475 102 l 475 242 m 602 190 q 621 124 602 152 q 669 97 640 96 q 721 121 707 96 q 735 190 735 146 l 735 242 q 718 308 735 281 q 668 335 700 335 q 618 308 635 335 q 602 242 602 281 l 602 190 m 283 75 l 192 125 l 600 897 l 690 846 l 283 75 z "},"&":{"ha":828,"x_min":40,"x_max":804,"o":"m 40 263 q 79 401 40 343 q 198 522 118 459 q 136 638 156 586 q 115 744 115 690 q 182 931 115 860 q 360 1002 249 1002 q 518 935 456 1002 q 579 773 579 868 q 550 653 579 707 q 470 558 520 598 l 415 514 l 571 308 l 575 309 q 604 388 593 344 q 614 482 614 433 l 755 482 q 735 311 755 389 q 673 173 715 233 l 804 0 l 586 0 l 543 57 q 439 3 492 21 q 326 -14 387 -14 q 118 62 195 -14 q 40 263 40 139 m 338 140 q 397 148 368 140 q 455 173 427 156 l 279 406 l 275 402 q 242 339 251 370 q 234 275 234 308 q 263 178 234 216 q 338 140 293 140 m 287 746 q 299 689 287 718 q 334 625 311 660 l 374 655 q 420 705 408 680 q 431 761 431 730 q 411 821 431 795 q 359 847 391 847 q 306 818 324 847 q 287 746 287 789 z "},"'":{"ha":205,"x_min":35,"x_max":164,"o":"m 164 873 l 119 683 l 36 683 l 35 865 l 35 1058 l 164 1058 l 164 873 z "},"(":{"ha":429,"x_min":74,"x_max":402,"o":"m 74 401 q 163 847 74 661 q 364 1089 252 1034 l 368 1089 l 402 992 q 282 777 331 926 q 233 402 233 628 l 233 383 q 281 9 233 157 q 402 -208 330 -140 l 368 -303 l 364 -303 q 163 -62 252 -248 q 74 385 74 123 l 74 401 z "},")":{"ha":429,"x_min":26,"x_max":366,"o":"m 366 385 q 273 -59 366 130 q 65 -303 180 -249 l 61 -303 l 26 -208 q 146 8 96 -141 q 195 383 195 157 l 195 402 q 145 777 195 627 q 26 994 96 927 l 61 1089 l 65 1089 q 273 844 180 1035 q 366 401 366 654 l 366 385 z "},"*":{"ha":559,"x_min":21,"x_max":536,"o":"m 200 655 l 21 718 l 57 835 l 233 749 l 220 987 l 341 987 l 328 745 l 500 829 l 536 711 l 354 648 l 473 465 l 376 393 l 275 592 l 173 399 l 76 469 l 200 655 z "},"+":{"ha":675,"x_min":37,"x_max":635,"o":"m 427 549 l 635 549 l 635 377 l 427 377 l 427 99 l 245 99 l 245 377 l 37 377 l 37 549 l 245 549 l 245 818 l 427 818 l 427 549 z "},",":{"ha":311,"x_min":32,"x_max":243,"o":"m 243 1 l 144 -210 l 32 -210 l 72 7 l 72 163 l 243 163 l 243 1 z "},"-":{"ha":507,"x_min":81,"x_max":418,"o":"m 418 347 l 81 347 l 81 501 l 418 501 l 418 347 z "},".":{"ha":368,"x_min":84,"x_max":275,"o":"m 275 0 l 84 0 l 84 175 l 275 175 l 275 0 z "},"/":{"ha":438,"x_min":-8,"x_max":425,"o":"m 130 -85 l -8 -85 l 285 987 l 425 987 l 130 -85 z "},":":{"ha":366,"x_min":86,"x_max":277,"o":"m 277 0 l 86 0 l 86 175 l 277 175 l 277 0 m 277 558 l 86 558 l 86 733 l 277 733 l 277 558 z "},";":{"ha":350,"x_min":60,"x_max":271,"o":"m 271 558 l 80 558 l 80 733 l 271 733 l 271 558 m 271 1 l 173 -210 l 60 -210 l 100 7 l 100 163 l 271 163 l 271 1 z "},"<":{"ha":609,"x_min":33,"x_max":534,"o":"m 207 370 l 207 366 l 534 228 l 534 44 l 33 292 l 33 448 l 534 694 l 534 511 l 207 370 z "},"=":{"ha":694,"x_min":81,"x_max":605,"o":"m 605 513 l 81 513 l 81 667 l 605 667 l 605 513 m 605 219 l 81 219 l 81 374 l 605 374 l 605 219 z "},">":{"ha":616,"x_min":72,"x_max":577,"o":"m 402 368 l 402 372 l 72 512 l 72 694 l 577 448 l 577 292 l 72 44 l 72 227 l 402 368 z "},"?":{"ha":609,"x_min":15,"x_max":586,"o":"m 183 280 q 210 417 184 372 q 310 525 236 462 q 370 607 348 562 q 393 711 393 652 q 367 810 393 773 q 295 846 342 846 q 233 815 259 846 q 205 725 206 783 l 18 725 l 17 729 q 92 932 15 863 q 295 1002 170 1002 q 508 923 431 1002 q 586 711 586 845 q 543 554 586 627 q 434 433 499 482 q 388 369 399 402 q 376 280 376 336 l 183 280 m 374 0 l 184 0 l 184 168 l 374 168 l 374 0 z "},"@":{"ha":1095,"x_min":27,"x_max":1051,"o":"m 1042 350 q 963 94 1036 201 q 745 -14 890 -14 q 662 16 696 -14 q 612 102 627 46 q 549 16 587 44 q 461 -12 511 -12 q 328 68 374 -12 q 294 282 281 149 q 380 556 309 453 q 553 659 452 659 q 669 642 625 659 q 766 587 713 624 l 764 585 l 767 585 l 736 199 q 743 109 732 133 q 770 90 753 85 l 774 90 q 879 161 840 86 q 924 350 919 235 q 844 721 933 587 q 567 854 754 854 q 281 711 387 854 q 167 324 175 568 q 252 -54 156 85 q 528 -193 349 -193 q 633 -180 579 -193 q 727 -146 688 -167 l 751 -247 q 648 -291 710 -275 q 526 -307 586 -307 q 157 -138 287 -307 q 38 324 27 31 q 191 787 48 614 q 570 959 334 959 q 926 795 802 959 q 1042 350 1051 632 m 440 282 q 451 151 435 196 q 502 105 467 105 q 558 124 533 105 q 604 195 584 144 l 604 199 l 630 535 q 605 541 617 538 q 579 543 592 543 q 483 479 515 543 q 440 282 450 414 z "},"A":{"ha":769,"x_min":11,"x_max":767,"o":"m 519 210 l 258 210 l 205 0 l 11 0 l 289 987 l 490 987 l 767 0 l 572 0 l 519 210 m 298 365 l 479 365 l 391 714 l 387 714 l 298 365 z "},"B":{"ha":770,"x_min":75,"x_max":718,"o":"m 75 0 l 75 987 l 366 987 q 604 920 518 987 q 690 718 690 852 q 659 592 690 647 q 565 511 627 538 q 680 431 643 492 q 718 288 718 370 q 636 73 718 146 q 404 0 555 0 l 75 0 m 268 435 l 268 154 l 404 154 q 495 188 465 154 q 526 289 526 222 q 500 397 526 359 q 417 435 474 435 l 268 435 m 268 570 l 374 570 q 465 605 433 572 q 496 699 496 637 q 464 801 496 768 q 366 833 431 833 l 268 833 l 268 570 z "},"C":{"ha":738,"x_min":50,"x_max":697,"o":"m 694 318 l 696 314 q 618 68 697 151 q 387 -14 540 -14 q 142 80 233 -14 q 50 346 50 174 l 50 641 q 139 907 50 812 q 376 1002 227 1002 q 613 918 533 1002 q 696 669 694 833 l 694 665 l 509 665 q 482 804 513 762 q 376 847 452 847 q 276 796 311 847 q 241 642 241 745 l 241 346 q 278 191 241 241 q 387 140 315 140 q 484 180 456 140 q 508 318 511 220 l 694 318 z "},"D":{"ha":781,"x_min":75,"x_max":723,"o":"m 75 0 l 75 987 l 373 987 q 624 872 525 987 q 723 576 723 758 l 723 410 q 624 115 723 229 q 373 0 525 0 l 75 0 m 268 833 l 268 154 l 362 154 q 487 224 443 154 q 530 410 530 294 l 530 578 q 487 763 530 693 q 362 833 443 833 l 268 833 z "},"E":{"ha":684,"x_min":75,"x_max":658,"o":"m 600 433 l 268 433 l 268 154 l 658 154 l 658 0 l 75 0 l 75 987 l 656 987 l 656 833 l 268 833 l 268 587 l 600 587 l 600 433 z "},"F":{"ha":689,"x_min":75,"x_max":662,"o":"m 603 410 l 268 410 l 268 0 l 75 0 l 75 987 l 662 987 l 662 833 l 268 833 l 268 564 l 603 564 l 603 410 z "},"G":{"ha":800,"x_min":55,"x_max":728,"o":"m 728 146 q 608 34 688 83 q 406 -14 528 -14 q 151 79 247 -14 q 55 343 55 172 l 55 644 q 148 908 55 814 q 393 1002 240 1002 q 639 921 557 1002 q 724 691 721 841 l 723 687 l 542 687 q 505 809 540 770 q 398 847 470 847 q 288 797 328 847 q 248 646 248 747 l 248 343 q 288 190 248 239 q 406 140 328 140 q 491 155 463 140 q 536 201 518 171 l 536 378 l 406 378 l 406 514 l 728 514 l 728 146 z "},"H":{"ha":842,"x_min":75,"x_max":767,"o":"m 767 0 l 574 0 l 574 409 l 268 409 l 268 0 l 75 0 l 75 987 l 268 987 l 268 563 l 574 563 l 574 987 l 767 987 l 767 0 z "},"I":{"ha":362,"x_min":85,"x_max":277,"o":"m 277 0 l 85 0 l 85 987 l 277 987 l 277 0 z "},"J":{"ha":688,"x_min":36,"x_max":614,"o":"m 422 987 l 614 987 l 614 301 q 533 71 614 156 q 327 -14 451 -14 q 114 62 193 -14 q 39 286 36 138 l 41 290 l 229 290 q 256 176 229 212 q 327 140 283 140 q 394 182 366 140 q 422 301 422 225 l 422 987 z "},"K":{"ha":771,"x_min":75,"x_max":782,"o":"m 352 410 l 268 410 l 268 0 l 75 0 l 75 987 l 268 987 l 268 586 l 330 586 l 523 987 l 760 987 l 490 536 l 782 0 l 547 0 l 352 410 z "},"L":{"ha":650,"x_min":75,"x_max":629,"o":"m 268 154 l 629 154 l 629 0 l 75 0 l 75 987 l 268 987 l 268 154 z "},"M":{"ha":1004,"x_min":71,"x_max":933,"o":"m 321 987 l 498 262 l 503 262 l 682 987 l 933 987 l 933 0 l 741 0 l 741 287 l 758 671 l 753 671 l 565 0 l 437 0 l 250 666 l 246 665 l 263 287 l 263 0 l 71 0 l 71 987 l 321 987 z "},"N":{"ha":842,"x_min":75,"x_max":766,"o":"m 766 0 l 574 0 l 272 631 l 268 630 l 268 0 l 75 0 l 75 987 l 268 987 l 570 357 l 574 358 l 574 987 l 766 987 l 766 0 z "},"O":{"ha":791,"x_min":51,"x_max":740,"o":"m 740 355 q 646 83 740 181 q 395 -14 551 -14 q 144 83 238 -14 q 51 355 51 181 l 51 631 q 144 903 51 804 q 394 1002 238 1002 q 645 903 550 1002 q 740 631 740 804 l 740 355 m 548 633 q 509 792 548 739 q 394 846 469 846 q 280 793 318 846 q 242 633 242 739 l 242 355 q 281 194 242 248 q 395 140 319 140 q 509 194 469 140 q 548 355 548 248 l 548 633 z "},"P":{"ha":785,"x_min":75,"x_max":736,"o":"m 268 354 l 268 0 l 75 0 l 75 987 l 418 987 q 651 900 566 987 q 736 671 736 812 q 651 441 736 528 q 418 354 565 354 l 268 354 m 268 509 l 418 509 q 512 554 479 509 q 545 669 545 600 q 512 786 545 740 q 418 833 480 833 l 268 833 l 268 509 z "},"Q":{"ha":842,"x_min":55,"x_max":815,"o":"m 744 355 q 724 215 744 278 q 669 106 705 152 l 815 -55 l 696 -157 l 544 12 q 474 -7 511 -1 q 399 -14 438 -14 q 149 83 242 -14 q 55 355 55 181 l 55 631 q 149 903 55 804 q 398 1002 242 1002 q 649 903 554 1002 q 744 631 744 804 l 744 355 m 552 633 q 513 792 552 739 q 398 846 473 846 q 284 793 322 846 q 246 633 246 739 l 246 355 q 285 194 246 248 q 399 140 323 140 q 513 194 473 140 q 552 355 552 248 l 552 633 z "},"R":{"ha":788,"x_min":75,"x_max":760,"o":"m 268 393 l 268 0 l 75 0 l 75 987 l 397 987 q 626 910 543 987 q 709 696 709 833 q 675 563 709 618 q 574 473 640 507 q 683 388 650 448 q 717 239 717 328 l 717 169 q 726 82 717 128 q 760 14 736 35 l 760 0 l 560 0 q 530 71 536 22 q 524 170 524 119 l 524 237 q 494 352 524 311 q 408 393 464 393 l 268 393 m 268 547 l 397 547 q 486 583 456 547 q 517 685 517 618 q 486 793 517 753 q 397 833 456 833 l 268 833 l 268 547 z "},"S":{"ha":752,"x_min":45,"x_max":706,"o":"m 513 258 q 484 349 513 315 q 378 415 454 382 q 148 537 224 469 q 71 728 71 605 q 160 925 71 849 q 389 1002 250 1002 q 618 917 530 1002 q 703 702 706 831 l 702 698 l 515 698 q 481 808 515 766 q 385 850 447 850 q 295 815 328 850 q 263 727 263 780 q 299 647 263 678 q 424 576 335 615 q 635 456 564 529 q 706 259 706 383 q 621 58 706 131 q 393 -14 535 -14 q 149 68 252 -14 q 49 304 45 151 l 50 309 l 238 309 q 277 177 238 217 q 393 137 315 137 q 484 170 454 137 q 513 258 513 202 z "},"T":{"ha":674,"x_min":20,"x_max":656,"o":"m 656 833 l 433 833 l 433 0 l 241 0 l 241 833 l 20 833 l 20 987 l 656 987 l 656 833 z "},"U":{"ha":798,"x_min":64,"x_max":734,"o":"m 734 987 l 734 315 q 641 72 734 157 q 399 -14 549 -14 q 156 72 249 -14 q 64 315 64 158 l 64 987 l 256 987 l 256 315 q 294 182 256 225 q 399 140 331 140 q 505 180 469 140 q 542 315 542 221 l 542 987 l 734 987 z "},"V":{"ha":766,"x_min":6,"x_max":759,"o":"m 372 252 l 380 214 l 384 214 l 391 250 l 556 987 l 759 987 l 483 0 l 282 0 l 6 987 l 209 987 l 372 252 z "},"W":{"ha":1050,"x_min":14,"x_max":1035,"o":"m 737 357 l 741 357 l 848 987 l 1035 987 l 844 0 l 665 0 l 526 605 l 522 605 l 384 0 l 205 0 l 14 987 l 201 987 l 308 357 l 312 357 l 454 987 l 593 987 l 737 357 z "},"X":{"ha":764,"x_min":18,"x_max":756,"o":"m 378 642 l 382 642 l 517 987 l 740 987 l 500 498 l 756 0 l 524 0 l 385 353 l 381 353 l 243 0 l 18 0 l 264 498 l 24 987 l 246 987 l 378 642 z "},"Y":{"ha":762,"x_min":5,"x_max":757,"o":"m 378 564 l 382 564 l 547 987 l 757 987 l 475 351 l 475 0 l 282 0 l 282 363 l 5 987 l 216 987 l 378 564 z "},"Z":{"ha":677,"x_min":41,"x_max":641,"o":"m 262 154 l 641 154 l 641 0 l 45 0 l 45 97 l 415 833 l 41 833 l 41 987 l 635 987 l 635 894 l 262 154 z "},"[":{"ha":359,"x_min":72,"x_max":342,"o":"m 342 1002 l 267 1002 l 267 -83 l 342 -83 l 342 -230 l 72 -230 l 72 1149 l 342 1149 l 342 1002 z "},"\\":{"ha":514,"x_min":0,"x_max":539,"o":"m 0 987 l 190 987 l 539 -85 l 348 -85 l 0 987 z "},"]":{"ha":359,"x_min":14,"x_max":285,"o":"m 14 1149 l 285 1149 l 285 -230 l 14 -230 l 14 -83 l 92 -83 l 92 1002 l 14 1002 l 14 1149 z "},"^":{"ha":532,"x_min":26,"x_max":509,"o":"m 174 494 l 26 494 l 197 987 l 337 987 l 509 494 l 360 494 l 269 781 l 268 786 l 264 786 l 263 781 l 174 494 z "},"_":{"ha":538,"x_min":5,"x_max":531,"o":"m 531 -149 l 5 -149 l 5 0 l 531 0 l 531 -149 z "},"`":{"ha":427,"x_min":50,"x_max":372,"o":"m 372 821 l 216 821 l 50 998 l 52 1002 l 254 1002 l 372 821 z "},"a":{"ha":640,"x_min":39,"x_max":611,"o":"m 420 0 q 405 40 412 18 q 395 84 399 62 q 329 13 368 39 q 239 -14 290 -14 q 93 45 148 -14 q 39 205 39 105 q 108 372 39 313 q 315 432 178 432 l 387 432 l 387 492 q 368 574 387 545 q 310 603 349 603 q 261 580 277 603 q 245 513 245 557 l 58 513 l 56 517 q 127 680 53 613 q 323 747 201 747 q 509 681 437 747 q 581 490 581 614 l 581 193 q 588 92 581 139 q 611 0 595 45 l 420 0 m 294 131 q 348 146 323 131 q 387 186 373 162 l 387 321 l 315 321 q 251 291 271 321 q 231 214 231 260 q 248 154 231 177 q 294 131 265 131 z "},"b":{"ha":675,"x_min":62,"x_max":637,"o":"m 637 311 q 576 74 637 162 q 396 -14 515 -14 q 306 9 345 -14 q 241 79 268 33 l 229 0 l 62 0 l 62 1058 l 255 1058 l 255 671 q 316 728 281 708 q 395 747 351 747 q 576 655 514 747 q 637 410 637 564 l 637 311 m 446 410 q 424 545 446 496 q 345 593 403 593 q 292 577 314 593 q 255 533 269 562 l 255 191 q 291 153 269 165 q 346 140 314 140 q 425 183 404 140 q 446 311 446 227 l 446 410 z "},"c":{"ha":617,"x_min":35,"x_max":589,"o":"m 330 140 q 390 169 370 140 q 410 253 410 198 l 585 253 l 587 249 q 516 60 589 134 q 330 -14 443 -14 q 112 79 188 -14 q 35 319 35 172 l 35 413 q 111 653 35 559 q 329 747 187 747 q 518 671 448 747 q 587 464 589 594 l 585 460 l 410 460 q 390 556 410 520 q 329 593 370 593 q 250 544 271 593 q 228 413 228 495 l 228 319 q 250 187 228 235 q 330 140 271 140 z "},"d":{"ha":675,"x_min":37,"x_max":612,"o":"m 37 363 q 100 642 37 536 q 280 747 164 747 q 357 727 323 747 q 419 669 392 707 l 419 1058 l 612 1058 l 612 0 l 444 0 l 431 80 q 365 10 403 34 q 279 -14 328 -14 q 100 85 163 -14 q 37 349 37 184 l 37 363 m 229 349 q 252 195 229 250 q 329 140 275 140 q 381 154 359 140 q 419 195 404 168 l 419 528 q 381 576 404 559 q 330 593 359 593 q 253 530 277 593 q 229 363 229 467 l 229 349 z "},"e":{"ha":636,"x_min":47,"x_max":602,"o":"m 348 -14 q 128 77 210 -14 q 47 306 47 168 l 47 409 q 122 652 47 557 q 332 747 198 747 q 531 661 460 747 q 602 427 602 575 l 602 309 l 239 309 l 239 306 q 272 186 239 233 q 371 140 304 140 q 459 152 425 140 q 540 193 493 164 l 589 70 q 487 9 551 33 q 348 -14 424 -14 m 332 593 q 264 551 286 593 q 239 437 242 509 l 412 437 l 412 465 q 393 559 412 526 q 332 593 374 593 z "},"f":{"ha":439,"x_min":16,"x_max":445,"o":"m 106 0 l 106 594 l 16 594 l 16 734 l 106 734 l 106 815 q 170 1005 106 939 q 349 1072 233 1072 q 393 1068 371 1072 q 445 1058 416 1065 l 429 910 q 402 915 415 913 q 373 917 390 917 q 317 890 336 917 q 298 815 298 864 l 298 734 l 416 734 l 416 594 l 298 594 l 298 0 l 106 0 z "},"g":{"ha":674,"x_min":37,"x_max":612,"o":"m 37 401 q 101 652 37 556 q 281 747 165 747 q 368 723 330 747 q 433 652 405 698 l 445 734 l 612 734 l 612 14 q 529 -213 612 -130 q 299 -296 445 -296 q 198 -281 252 -296 q 98 -240 144 -266 l 132 -92 q 211 -124 171 -113 q 298 -135 251 -135 q 389 -97 359 -135 q 420 15 420 -58 l 420 57 q 358 4 393 22 q 280 -14 323 -14 q 100 75 164 -14 q 37 311 37 164 l 37 401 m 229 311 q 252 185 229 231 q 330 140 275 140 q 382 153 359 140 q 420 189 405 165 l 420 536 q 383 578 405 563 q 331 593 361 593 q 253 540 277 593 q 229 401 229 488 l 229 311 z "},"h":{"ha":675,"x_min":57,"x_max":615,"o":"m 250 646 q 318 721 278 694 q 406 747 358 747 q 559 670 504 747 q 615 430 615 592 l 615 0 l 422 0 l 422 431 q 400 557 422 522 q 334 593 379 593 q 286 581 307 593 q 250 548 264 569 l 250 0 l 57 0 l 57 1058 l 250 1058 l 250 646 z "},"i":{"ha":336,"x_min":71,"x_max":264,"o":"m 264 0 l 71 0 l 71 734 l 264 734 l 264 0 m 264 911 l 71 911 l 71 1058 l 264 1058 l 264 911 z "},"j":{"ha":330,"x_min":-50,"x_max":268,"o":"m 268 734 l 268 -22 q 207 -225 268 -154 q 37 -296 146 -296 q -6 -293 14 -296 q -50 -284 -26 -290 l -41 -133 q -14 -139 -26 -137 q 13 -141 -2 -141 q 59 -111 43 -141 q 75 -22 75 -81 l 75 734 l 268 734 m 264 911 l 71 911 l 71 1058 l 264 1058 l 264 911 z "},"k":{"ha":653,"x_min":62,"x_max":665,"o":"m 290 305 l 255 305 l 255 0 l 62 0 l 62 1058 l 255 1058 l 255 457 l 287 457 l 411 734 l 633 734 l 441 404 l 665 0 l 444 0 l 290 305 z "},"l":{"ha":336,"x_min":71,"x_max":264,"o":"m 264 0 l 71 0 l 71 1058 l 264 1058 l 264 0 z "},"m":{"ha":1022,"x_min":63,"x_max":958,"o":"m 243 734 l 250 640 q 323 720 279 692 q 425 747 368 747 q 522 718 480 747 q 585 628 563 688 q 658 716 613 685 q 762 747 703 747 q 906 672 853 747 q 958 444 958 597 l 958 0 l 765 0 l 765 444 q 747 561 765 528 q 690 593 728 593 q 640 576 662 593 q 604 532 618 560 q 606 506 605 519 q 606 480 606 494 l 606 0 l 414 0 l 414 444 q 396 560 414 528 q 338 593 377 593 q 291 579 311 593 q 255 543 270 566 l 255 0 l 63 0 l 63 734 l 243 734 z "},"n":{"ha":675,"x_min":59,"x_max":616,"o":"m 239 734 l 247 633 q 322 717 277 687 q 420 747 366 747 q 564 677 511 747 q 616 455 616 606 l 616 0 l 423 0 l 423 455 q 402 562 423 531 q 336 593 380 593 q 288 579 310 593 q 252 542 267 566 l 252 0 l 59 0 l 59 734 l 239 734 z "},"o":{"ha":675,"x_min":39,"x_max":635,"o":"m 39 412 q 118 653 39 559 q 337 747 196 747 q 557 653 478 747 q 635 412 635 559 l 635 321 q 557 79 635 172 q 338 -14 478 -14 q 118 79 196 -14 q 39 321 39 172 l 39 412 m 231 321 q 255 188 231 236 q 338 140 279 140 q 419 188 395 140 q 443 321 443 237 l 443 412 q 419 544 443 494 q 337 593 395 593 q 255 543 279 593 q 231 412 231 494 l 231 321 z "},"p":{"ha":675,"x_min":62,"x_max":637,"o":"m 637 311 q 574 75 637 164 q 395 -14 510 -14 q 316 4 351 -14 q 255 57 281 22 l 255 -282 l 62 -282 l 62 734 l 241 734 l 248 661 q 310 725 274 703 q 394 747 347 747 q 574 652 510 747 q 637 401 637 557 l 637 311 m 445 401 q 420 540 445 488 q 344 593 396 593 q 291 577 313 593 q 255 534 269 562 l 255 189 q 291 152 269 164 q 345 140 313 140 q 421 185 398 140 q 445 311 445 231 l 445 401 z "},"q":{"ha":675,"x_min":37,"x_max":611,"o":"m 37 401 q 100 652 37 556 q 280 747 164 747 q 365 723 328 747 q 430 654 402 699 l 444 734 l 611 734 l 611 -282 l 418 -282 l 418 56 q 357 4 391 22 q 279 -14 323 -14 q 100 75 164 -14 q 37 311 37 164 l 37 401 m 229 311 q 252 185 229 230 q 329 140 275 140 q 381 152 359 140 q 418 188 404 164 l 418 537 q 382 578 404 564 q 330 593 360 593 q 253 540 277 593 q 229 401 229 488 l 229 311 z "},"r":{"ha":444,"x_min":62,"x_max":429,"o":"m 409 558 l 336 560 q 286 545 306 560 q 255 503 266 530 l 255 0 l 62 0 l 62 734 l 242 734 l 250 635 l 253 634 q 302 717 271 687 q 376 747 334 747 q 403 745 389 747 q 429 739 418 743 l 409 558 z "},"s":{"ha":602,"x_min":23,"x_max":568,"o":"m 382 192 q 357 246 382 223 q 264 302 333 269 q 98 395 153 343 q 43 531 43 448 q 114 684 43 621 q 301 747 184 747 q 496 682 423 747 q 566 516 568 617 l 564 512 l 378 512 q 359 585 378 558 q 300 612 340 612 q 248 591 269 612 q 226 541 226 570 q 248 488 226 508 q 342 433 269 468 q 513 340 457 394 q 568 199 568 286 q 494 45 568 105 q 298 -14 419 -14 q 97 60 171 -14 q 26 227 23 134 l 28 231 l 204 231 q 231 146 205 172 q 302 121 257 121 q 361 140 341 121 q 382 192 382 159 z "},"t":{"ha":439,"x_min":12,"x_max":412,"o":"m 292 916 l 292 734 l 393 734 l 393 594 l 292 594 l 292 226 q 304 162 292 181 q 340 142 317 142 q 370 144 357 142 q 397 150 382 146 l 412 3 q 353 -10 381 -6 q 290 -14 326 -14 q 148 43 197 -14 q 99 225 99 100 l 99 594 l 12 594 l 12 734 l 99 734 l 99 916 l 292 916 z "},"u":{"ha":675,"x_min":58,"x_max":616,"o":"m 435 85 q 362 11 405 37 q 267 -14 320 -14 q 113 60 168 -14 q 58 290 58 134 l 58 734 l 250 734 l 250 289 q 269 176 250 211 q 326 140 288 140 q 381 152 357 140 q 422 187 406 164 l 422 734 l 616 734 l 616 0 l 446 0 l 435 85 z "},"v":{"ha":616,"x_min":10,"x_max":606,"o":"m 298 277 l 307 221 l 311 221 l 320 277 l 405 734 l 606 734 l 403 0 l 214 0 l 10 734 l 212 734 l 298 277 z "},"w":{"ha":868,"x_min":16,"x_max":849,"o":"m 598 317 l 602 318 l 671 734 l 849 734 l 699 0 l 538 0 l 435 395 l 431 395 l 329 0 l 168 0 l 16 734 l 196 734 l 264 316 l 269 316 l 371 734 l 496 734 l 598 317 z "},"x":{"ha":616,"x_min":11,"x_max":610,"o":"m 306 503 l 310 503 l 387 734 l 604 734 l 422 371 l 610 0 l 393 0 l 313 238 l 309 238 l 228 0 l 11 0 l 197 371 l 16 734 l 232 734 l 306 503 z "},"y":{"ha":616,"x_min":3,"x_max":613,"o":"m 298 301 l 300 294 l 407 734 l 613 734 l 366 -111 q 291 -243 338 -190 q 149 -296 245 -296 q 107 -292 125 -296 q 58 -280 89 -288 l 81 -136 q 97 -139 92 -138 q 109 -140 102 -140 q 172 -118 151 -140 q 203 -60 193 -96 l 220 -6 l 3 734 l 210 734 l 298 301 z "},"z":{"ha":599,"x_min":44,"x_max":552,"o":"m 265 154 l 552 154 l 552 0 l 44 0 l 44 115 l 323 579 l 52 579 l 52 734 l 547 734 l 547 622 l 265 154 z "},"{":{"ha":397,"x_min":30,"x_max":368,"o":"m 332 -248 q 171 -130 219 -211 q 123 67 123 -48 l 123 207 q 100 311 123 273 q 30 349 77 349 l 30 486 q 100 523 77 486 q 123 627 123 560 l 123 768 q 171 965 123 884 q 332 1083 219 1046 l 368 977 q 310 902 326 956 q 294 768 294 849 l 294 627 q 266 502 294 557 q 182 417 238 448 q 266 331 237 386 q 294 207 294 277 l 294 67 q 310 -67 294 -14 q 368 -141 326 -120 l 332 -248 z "},"|":{"ha":317,"x_min":104,"x_max":214,"o":"m 214 -183 l 104 -183 l 104 987 l 214 987 l 214 -183 z "},"}":{"ha":397,"x_min":28,"x_max":368,"o":"m 28 -141 q 87 -67 71 -120 q 104 67 104 -14 l 104 207 q 132 332 104 277 q 218 417 160 387 q 132 502 160 447 q 104 627 104 556 l 104 768 q 87 902 104 849 q 28 977 71 956 l 64 1083 q 225 965 177 1046 q 274 768 274 884 l 274 627 q 297 523 274 559 q 368 486 319 486 l 368 349 q 297 311 319 349 q 274 207 274 274 l 274 67 q 225 -130 274 -48 q 64 -248 177 -211 l 28 -141 z "},"~":{"ha":760,"x_min":60,"x_max":699,"o":"m 699 516 q 647 331 699 405 q 515 256 595 256 q 426 278 467 256 q 342 347 385 300 q 296 391 315 378 q 253 404 277 404 q 209 369 227 404 q 191 283 191 334 l 60 301 q 111 486 60 413 q 242 559 161 559 q 332 537 289 559 q 417 470 375 514 q 462 426 442 439 q 505 412 481 412 q 548 448 530 412 q 567 535 567 484 l 699 516 z "},"¡":{"ha":362,"x_min":85,"x_max":278,"o":"m 278 -254 l 85 -254 l 85 390 l 278 390 l 278 -254 m 277 557 l 87 557 l 87 734 l 277 734 l 277 557 z "},"¢":{"ha":699,"x_min":60,"x_max":615,"o":"m 355 140 q 415 169 395 140 q 435 253 435 198 l 615 253 q 560 82 615 152 q 416 -7 505 12 l 416 -166 l 291 -166 l 291 -8 q 119 101 178 12 q 60 319 60 190 l 60 413 q 120 631 60 541 q 291 741 179 720 l 291 894 l 416 894 l 416 741 q 562 648 508 722 q 615 460 615 574 l 435 460 q 415 556 435 520 q 354 593 395 593 q 275 544 296 593 q 253 413 253 495 l 253 319 q 275 187 253 235 q 355 140 296 140 z "},"£":{"ha":715,"x_min":62,"x_max":678,"o":"m 346 401 l 348 345 q 328 243 348 292 q 271 154 308 193 l 678 154 l 678 0 l 98 0 l 98 154 l 104 154 q 140 218 128 162 q 153 334 153 274 l 151 401 l 62 401 l 62 553 l 145 553 l 140 695 q 212 920 140 838 q 403 1002 283 1002 q 602 925 530 1002 q 671 724 673 848 l 669 720 l 481 720 q 458 816 481 785 q 402 847 435 847 q 352 807 370 847 q 334 695 334 768 l 339 553 l 529 553 l 529 401 l 346 401 z "},"¤":{"ha":852,"x_min":50,"x_max":809,"o":"m 642 71 q 542 8 597 30 q 428 -14 488 -14 q 314 8 368 -14 q 214 69 260 29 l 138 -18 l 50 75 l 133 170 q 86 283 102 221 q 71 412 71 345 q 88 546 71 482 q 138 663 105 609 l 50 764 l 138 857 l 222 761 q 318 817 266 798 q 428 837 371 837 q 537 817 485 837 q 635 760 590 796 l 720 858 l 809 764 l 719 661 q 767 544 750 608 q 785 412 785 481 q 769 284 785 345 q 724 172 753 223 l 809 75 l 720 -18 l 642 71 m 187 412 q 257 196 187 284 q 428 109 327 109 q 597 196 528 109 q 667 412 667 284 q 597 627 667 539 q 428 715 528 715 q 257 627 327 715 q 187 412 187 539 z "},"¥":{"ha":734,"x_min":15,"x_max":720,"o":"m 366 607 l 370 607 l 509 987 l 720 987 l 504 500 l 632 500 l 632 364 l 460 364 l 460 289 l 632 289 l 632 155 l 460 155 l 460 0 l 269 0 l 269 155 l 85 155 l 85 289 l 269 289 l 269 364 l 85 364 l 85 500 l 231 500 l 15 987 l 225 987 l 366 607 z "},"¦":{"ha":317,"x_min":73,"x_max":243,"o":"m 73 -183 l 73 353 l 243 353 l 243 -183 l 73 -183 m 243 473 l 73 473 l 73 987 l 243 987 l 243 473 z "},"§":{"ha":756,"x_min":57,"x_max":691,"o":"m 691 327 q 666 220 691 266 q 595 145 641 174 q 658 62 637 111 q 680 -54 680 14 q 597 -241 680 -174 q 376 -309 515 -309 q 149 -242 239 -309 q 61 -27 58 -175 l 62 -23 l 250 -23 q 285 -124 250 -94 q 376 -155 321 -155 q 458 -127 429 -155 q 487 -54 487 -100 q 455 18 487 -9 q 332 78 422 45 q 124 184 191 121 q 57 361 57 247 q 82 468 57 421 q 154 545 106 514 q 90 627 111 579 q 68 743 68 675 q 152 931 68 860 q 375 1002 235 1002 q 598 926 517 1002 q 676 715 679 850 l 675 711 l 488 711 q 458 809 488 770 q 375 847 429 847 q 290 818 318 847 q 262 745 262 789 q 292 668 262 694 q 414 610 321 642 q 624 505 557 568 q 691 327 691 442 m 349 452 q 316 463 332 456 q 282 475 299 469 q 257 436 265 460 q 250 382 250 412 q 278 300 250 328 q 398 237 306 273 q 444 221 437 224 q 464 214 450 219 q 492 254 482 230 q 502 307 502 277 q 470 386 502 355 q 349 452 437 416 z "},"¨":{"ha":678,"x_min":97,"x_max":571,"o":"m 571 853 l 401 853 l 401 987 l 571 987 l 571 853 m 267 853 l 97 853 l 97 987 l 267 987 l 267 853 z "},"©":{"ha":972,"x_min":56,"x_max":907,"o":"m 669 404 l 671 400 q 620 244 673 298 q 472 191 567 191 q 318 263 375 191 q 262 454 262 335 l 262 534 q 318 724 262 652 q 472 797 375 797 q 621 743 567 797 q 672 588 674 689 l 670 584 l 578 584 q 551 679 578 649 q 472 710 525 709 q 388 661 417 709 q 359 535 359 613 l 359 454 q 388 326 359 374 q 472 278 417 278 q 551 308 525 278 q 577 404 577 337 l 669 404 m 131 494 q 233 190 131 314 q 481 67 335 66 q 728 190 626 66 q 830 494 830 314 q 728 797 830 673 q 481 920 626 920 q 233 797 335 920 q 131 494 131 673 m 56 494 q 179 854 56 708 q 481 1001 303 1001 q 782 854 658 1001 q 907 494 907 708 q 782 133 907 280 q 481 -14 657 -14 q 180 133 304 -14 q 56 494 56 280 z "},"ª":{"ha":532,"x_min":66,"x_max":456,"o":"m 346 479 q 338 511 341 494 q 334 543 335 527 q 284 490 315 511 q 210 469 253 469 q 104 511 142 469 q 66 624 66 553 q 116 739 66 698 q 260 779 165 779 l 332 779 l 332 815 q 316 883 332 859 q 271 906 301 906 q 218 887 237 906 q 199 834 199 869 l 97 843 l 96 847 q 141 958 92 913 q 271 1002 191 1002 q 395 953 349 1002 q 441 814 441 905 l 441 602 q 444 537 441 567 q 456 479 448 507 l 346 479 m 237 562 q 292 583 263 562 q 332 627 321 603 l 332 703 l 260 703 q 198 681 220 703 q 175 627 175 658 q 190 579 175 595 q 237 562 205 562 z "},"«":{"ha":613,"x_min":37,"x_max":553,"o":"m 182 350 l 315 81 l 195 81 l 37 344 l 37 357 l 195 621 l 315 621 l 182 350 m 421 350 l 553 81 l 434 81 l 276 344 l 276 357 l 434 621 l 553 621 l 421 350 z "},"¬":{"ha":659,"x_min":78,"x_max":559,"o":"m 559 254 l 435 254 l 435 433 l 78 433 l 78 543 l 559 543 l 559 254 z "},"®":{"ha":972,"x_min":56,"x_max":907,"o":"m 56 494 q 180 854 56 708 q 481 1001 304 1001 q 782 854 658 1001 q 907 494 907 708 q 782 133 907 280 q 481 -14 658 -14 q 180 133 304 -14 q 56 494 56 280 m 132 494 q 234 190 132 314 q 481 67 336 66 q 728 190 627 66 q 830 494 830 314 q 728 797 830 673 q 481 920 627 920 q 234 797 336 920 q 132 494 132 673 m 397 444 l 397 214 l 302 214 l 302 791 l 472 791 q 616 745 563 791 q 669 614 669 699 q 651 545 669 574 q 600 494 633 515 q 652 437 635 474 q 668 349 668 400 l 668 311 q 670 261 668 283 q 677 225 672 239 l 677 214 l 581 214 q 574 256 575 229 q 573 312 573 283 l 573 349 q 553 421 573 398 q 489 444 533 444 l 397 444 m 397 531 l 473 531 q 546 552 516 531 q 575 613 575 574 q 552 684 575 663 q 472 704 529 704 l 397 704 l 397 531 z "},"¯":{"ha":644,"x_min":99,"x_max":543,"o":"m 543 880 l 99 880 l 99 988 l 543 988 l 543 880 z "},"°":{"ha":492,"x_min":79,"x_max":410,"o":"m 79 816 q 129 947 79 892 q 246 1002 178 1002 q 362 947 313 1002 q 410 816 410 892 q 362 686 410 739 q 246 632 314 632 q 128 686 177 632 q 79 816 79 739 m 173 816 q 194 753 173 779 q 246 728 216 728 q 296 753 275 728 q 317 816 317 778 q 296 880 317 854 q 246 905 275 905 q 194 879 216 905 q 173 816 173 853 z "},"±":{"ha":673,"x_min":59,"x_max":608,"o":"m 419 648 l 608 648 l 608 489 l 419 489 l 419 230 l 250 230 l 250 489 l 59 489 l 59 648 l 250 648 l 250 893 l 419 893 l 419 648 m 545 5 l 66 5 l 66 161 l 545 161 l 545 5 z "},"²":{"ha":507,"x_min":64,"x_max":437,"o":"m 437 452 l 72 452 l 72 555 l 250 728 q 290 784 281 761 q 299 836 299 806 q 288 882 299 864 q 252 899 277 899 q 211 879 224 899 q 198 824 198 858 l 69 824 l 68 828 q 116 952 64 901 q 256 1003 168 1003 q 388 959 341 1003 q 434 836 434 916 q 401 734 434 779 q 296 624 368 690 l 242 559 l 243 555 l 437 555 l 437 452 z "},"³":{"ha":502,"x_min":54,"x_max":446,"o":"m 240 770 q 288 787 273 770 q 303 837 303 804 q 289 881 303 863 q 248 899 275 899 q 209 883 222 899 q 195 846 195 868 l 67 846 l 66 850 q 114 961 62 919 q 245 1002 165 1002 q 386 962 334 1002 q 438 847 438 922 q 417 779 438 810 q 361 730 397 748 q 424 682 401 714 q 446 604 446 650 q 394 486 446 528 q 252 444 342 444 q 109 487 164 444 q 58 607 54 530 l 59 611 l 189 611 q 204 564 189 581 q 251 547 220 547 q 295 564 277 547 q 312 612 312 581 q 293 665 312 646 q 240 684 275 684 l 178 684 l 178 770 l 240 770 z "},"´":{"ha":463,"x_min":68,"x_max":392,"o":"m 187 1002 l 390 1002 l 392 998 l 223 822 l 68 822 l 187 1002 z "},"µ":{"ha":755,"x_min":81,"x_max":659,"o":"m 275 734 l 275 302 q 297 175 275 209 q 366 142 319 142 q 426 158 401 142 q 466 205 450 174 l 466 734 l 659 734 l 659 0 l 477 0 l 475 35 q 422 -2 451 10 q 359 -14 393 -14 q 313 -8 334 -14 q 275 9 292 -2 l 275 -282 l 81 -282 l 81 734 l 275 734 z "},"¶":{"ha":645,"x_min":38,"x_max":558,"o":"m 364 0 l 364 353 l 320 353 q 112 440 186 353 q 38 670 38 528 q 112 899 38 810 q 320 987 186 987 l 558 987 l 558 0 l 364 0 z "},"·":{"ha":384,"x_min":95,"x_max":283,"o":"m 283 380 l 95 380 l 95 557 l 283 557 l 283 380 z "},"¸":{"ha":334,"x_min":56,"x_max":296,"o":"m 219 5 l 213 -35 q 272 -71 248 -43 q 296 -153 296 -99 q 241 -270 296 -226 q 87 -313 186 -313 l 83 -203 q 119 -189 106 -203 q 132 -146 132 -175 q 115 -106 132 -117 q 56 -91 98 -94 l 75 5 l 219 5 z "},"¹":{"ha":348,"x_min":69,"x_max":275,"o":"m 275 451 l 139 451 l 139 881 l 69 880 l 69 986 l 275 1002 l 275 451 z "},"º":{"ha":550,"x_min":71,"x_max":474,"o":"m 71 774 q 125 938 71 875 q 273 1002 180 1002 q 419 938 365 1002 q 474 774 474 875 l 474 696 q 419 532 474 595 q 273 469 365 469 q 125 532 180 469 q 71 696 71 595 l 71 774 m 180 696 q 203 600 180 636 q 273 564 227 564 q 341 600 317 564 q 365 696 365 636 l 365 774 q 341 869 365 832 q 273 906 317 906 q 203 869 227 906 q 180 774 180 832 l 180 696 z "},"»":{"ha":614,"x_min":41,"x_max":564,"o":"m 160 644 l 318 380 l 318 367 l 160 103 l 41 103 l 173 373 l 41 644 l 160 644 m 406 644 l 564 380 l 564 367 l 406 103 l 286 103 l 418 373 l 286 644 l 406 644 z "},"¼":{"ha":854,"x_min":67,"x_max":830,"o":"m 273 450 l 137 450 l 137 880 l 67 880 l 67 985 l 273 1001 l 273 450 m 226 80 l 135 130 l 543 902 l 633 852 l 226 80 m 779 199 l 830 199 l 830 95 l 779 95 l 779 0 l 644 0 l 644 95 l 411 95 l 402 179 l 644 541 l 644 543 l 779 543 l 779 199 m 538 199 l 644 199 l 644 371 l 640 372 l 635 364 l 538 199 z "},"½":{"ha":893,"x_min":56,"x_max":840,"o":"m 221 80 l 130 130 l 538 902 l 629 852 l 221 80 m 261 450 l 125 450 l 125 880 l 56 880 l 56 985 l 261 1001 l 261 450 m 840 0 l 474 0 l 474 103 l 652 275 q 692 331 684 309 q 701 384 701 354 q 690 429 701 412 q 654 447 679 447 q 613 426 627 447 q 600 372 600 406 l 471 372 l 470 376 q 518 499 467 448 q 658 551 570 551 q 790 507 743 551 q 836 383 836 463 q 803 282 836 327 q 698 172 770 237 l 644 106 l 646 103 l 840 103 l 840 0 z "},"¾":{"ha":985,"x_min":44,"x_max":935,"o":"m 351 80 l 260 130 l 668 902 l 759 852 l 351 80 m 884 199 l 935 199 l 935 95 l 884 95 l 884 0 l 748 0 l 748 95 l 515 95 l 507 179 l 748 541 l 748 543 l 884 543 l 884 199 m 643 199 l 748 199 l 748 371 l 744 372 l 739 364 l 643 199 m 231 771 q 278 788 263 771 q 294 838 294 805 q 280 882 294 864 q 239 899 266 899 q 199 884 212 899 q 186 846 186 869 l 58 846 l 56 850 q 104 961 52 920 q 235 1003 156 1003 q 376 963 324 1003 q 429 848 429 922 q 408 780 429 810 q 351 731 387 749 q 414 683 392 715 q 437 604 437 650 q 385 487 437 528 q 243 445 332 445 q 99 488 155 445 q 48 608 44 530 l 50 612 l 179 612 q 195 565 179 582 q 241 548 210 548 q 285 565 268 548 q 302 612 302 581 q 284 666 302 647 q 231 685 265 685 l 169 685 l 169 771 l 231 771 z "},"¿":{"ha":616,"x_min":43,"x_max":612,"o":"m 445 453 q 417 315 444 360 q 317 208 391 271 q 257 125 279 170 q 235 22 235 80 q 260 -76 235 -39 q 332 -112 285 -112 q 394 -81 368 -112 q 422 8 421 -50 l 610 8 l 612 4 q 535 -198 612 -129 q 332 -267 457 -267 q 120 -189 197 -267 q 43 22 43 -111 q 85 178 43 106 q 193 300 127 250 q 240 362 228 330 q 252 453 252 395 l 445 453 m 253 734 l 445 734 l 445 566 l 253 566 l 253 734 z "},"Æ":{"ha":1123,"x_min":6,"x_max":1079,"o":"m 1079 0 l 554 0 l 546 230 l 323 230 l 231 0 l 6 0 l 439 987 l 1044 987 l 1044 831 l 718 831 l 726 585 l 997 585 l 997 429 l 731 429 l 741 156 l 1079 156 l 1079 0 m 389 392 l 541 392 l 529 729 l 525 730 l 389 392 z "},"×":{"ha":663,"x_min":39,"x_max":620,"o":"m 41 250 l 225 463 l 39 678 l 152 789 l 330 584 l 507 789 l 620 678 l 433 464 l 619 250 l 506 140 l 329 343 l 153 140 l 41 250 z "},"Ø":{"ha":824,"x_min":55,"x_max":744,"o":"m 744 355 q 650 83 744 181 q 399 -14 555 -14 q 317 -7 356 -14 q 244 16 278 1 l 205 -63 l 119 -63 l 178 56 q 87 179 119 104 q 55 355 55 255 l 55 631 q 149 903 55 804 q 398 1002 242 1002 q 512 985 459 1002 q 608 939 566 969 l 652 1028 l 740 1028 l 668 882 q 724 770 705 833 q 744 631 744 707 l 744 355 m 246 355 q 250 289 246 318 q 263 241 254 259 l 267 240 l 526 770 q 475 827 507 808 q 398 846 443 846 q 284 793 322 846 q 246 633 246 739 l 246 355 m 552 633 l 552 635 l 548 636 l 316 163 q 353 146 332 151 q 399 140 374 140 q 513 194 473 140 q 552 355 552 248 l 552 633 z "},"Þ":{"ha":732,"x_min":73,"x_max":697,"o":"m 267 987 l 267 806 l 378 806 q 613 722 530 806 q 697 500 697 637 q 613 279 697 363 q 378 195 530 195 l 267 195 l 267 0 l 73 0 l 73 987 l 267 987 m 267 653 l 267 349 l 378 349 q 473 392 442 349 q 504 499 504 435 q 473 608 504 564 q 378 652 441 652 l 268 652 l 267 653 z "},"ß":{"ha":768,"x_min":81,"x_max":729,"o":"m 273 0 l 81 0 l 81 749 q 158 982 81 900 q 372 1064 235 1064 q 553 999 481 1064 q 626 817 626 934 q 597 681 626 745 q 568 566 568 616 q 649 435 568 530 q 729 243 729 339 q 662 50 729 113 q 461 -14 595 -14 q 372 -4 416 -14 q 306 23 328 6 l 340 175 q 392 149 361 159 q 460 139 422 139 q 517 165 496 139 q 538 236 538 191 q 456 374 538 284 q 375 559 375 464 q 405 689 375 623 q 435 807 435 755 q 411 880 435 850 q 356 911 387 911 q 296 866 319 911 q 273 746 273 822 l 273 0 z "},"æ":{"ha":1003,"x_min":28,"x_max":970,"o":"m 717 -14 q 587 12 644 -14 q 490 86 530 37 q 398 14 455 42 q 265 -14 342 -14 q 90 47 151 -14 q 28 215 28 109 q 103 381 28 323 q 321 440 178 440 l 414 440 l 414 478 q 393 562 414 532 q 337 593 373 593 q 276 568 298 593 q 254 505 254 543 l 68 517 l 66 521 q 139 683 63 619 q 339 747 214 747 q 443 731 395 747 q 525 685 490 715 q 605 731 559 715 q 706 747 650 747 q 899 659 829 747 q 970 417 970 570 l 970 309 l 607 309 q 642 184 610 229 q 740 140 673 140 q 826 152 792 140 q 905 193 861 165 l 953 68 q 853 11 917 35 q 717 -14 789 -14 m 302 125 q 362 143 330 125 q 414 187 394 161 l 414 316 l 323 316 q 247 286 275 316 q 220 212 220 256 q 240 148 220 171 q 302 125 260 125 m 706 593 q 634 552 656 593 q 608 437 612 511 l 782 437 l 782 455 q 763 556 782 519 q 706 593 744 593 z "},"ð":{"ha":714,"x_min":26,"x_max":670,"o":"m 530 871 q 633 685 596 791 q 670 450 670 578 l 670 402 q 577 102 670 219 q 345 -14 484 -14 q 115 80 203 -14 q 26 316 26 175 q 103 562 26 470 q 315 653 180 653 q 392 640 355 653 q 455 605 428 627 l 458 608 q 426 696 446 654 q 378 772 406 738 l 255 691 l 206 766 l 311 835 q 269 861 291 849 q 225 882 248 872 l 286 1029 q 379 991 334 1015 q 465 935 425 967 l 582 1010 l 629 936 l 530 871 m 347 140 q 442 213 408 140 q 477 402 477 286 l 477 450 q 425 492 458 475 q 349 509 392 509 q 252 456 286 509 q 218 316 218 404 q 253 190 218 241 q 347 140 288 140 z "},"÷":{"ha":682,"x_min":40,"x_max":635,"o":"m 635 391 l 40 391 l 40 541 l 635 541 l 635 391 m 433 659 l 242 659 l 242 814 l 433 814 l 433 659 m 433 113 l 242 113 l 242 269 l 433 269 l 433 113 z "},"ø":{"ha":676,"x_min":39,"x_max":635,"o":"m 39 412 q 118 653 39 559 q 337 747 196 747 q 390 743 364 747 q 439 732 416 739 l 478 825 l 581 825 l 524 686 q 607 570 578 641 q 635 412 635 499 l 635 321 q 557 79 635 172 q 338 -14 478 -14 q 287 -11 311 -14 q 240 -1 262 -7 l 201 -97 l 98 -97 l 156 43 q 69 158 98 86 q 39 321 39 230 l 39 412 m 231 321 q 232 279 231 297 q 237 250 233 260 l 241 249 l 378 584 q 358 590 369 588 q 337 593 348 593 q 255 543 279 593 q 231 412 231 494 l 231 321 m 443 412 q 441 445 443 430 q 439 470 440 460 l 435 471 l 301 146 q 318 141 309 142 q 338 140 327 140 q 419 188 395 140 q 443 321 443 237 l 443 412 z "},"þ":{"ha":677,"x_min":63,"x_max":638,"o":"m 638 311 q 574 75 638 164 q 396 -14 511 -14 q 316 4 351 -14 q 256 57 281 22 l 256 -282 l 63 -282 l 63 1058 l 256 1058 l 256 671 q 316 728 281 708 q 395 747 351 747 q 574 652 511 747 q 638 401 638 557 l 638 311 m 446 401 q 421 540 446 488 q 345 593 397 593 q 292 577 314 593 q 256 534 269 562 l 256 188 q 291 152 269 164 q 345 140 313 140 q 422 185 399 140 q 446 311 446 231 l 446 401 z "},"Ħ":{"ha":844,"x_min":14,"x_max":838,"o":"m 770 811 l 838 811 l 838 698 l 770 698 l 770 0 l 577 0 l 577 409 l 271 409 l 271 0 l 77 0 l 77 698 l 14 698 l 14 811 l 77 811 l 77 987 l 271 987 l 271 811 l 577 811 l 577 987 l 770 987 l 770 811 m 271 563 l 577 563 l 577 698 l 271 698 l 271 563 z "},"ı":{"ha":348,"x_min":77,"x_max":270,"o":"m 270 0 l 77 0 l 77 734 l 270 734 l 270 0 z "},"ĸ":{"ha":720,"x_min":74,"x_max":695,"o":"m 326 273 l 267 273 l 267 0 l 74 0 l 74 734 l 267 734 l 267 456 l 311 456 l 446 734 l 691 734 l 480 399 l 481 400 l 695 0 l 448 0 l 326 273 z "},"Ł":{"ha":603,"x_min":9,"x_max":623,"o":"m 262 605 l 393 648 l 393 519 l 262 475 l 262 154 l 623 154 l 623 0 l 68 0 l 68 411 l 9 392 l 9 522 l 68 541 l 68 987 l 262 987 l 262 605 z "},"ł":{"ha":361,"x_min":12,"x_max":351,"o":"m 274 621 l 351 650 l 351 520 l 274 491 l 274 0 l 81 0 l 81 419 l 12 393 l 12 523 l 81 549 l 81 1058 l 274 1058 l 274 621 z "},"Ŋ":{"ha":837,"x_min":73,"x_max":764,"o":"m 764 987 l 764 -22 q 703 -225 764 -154 q 534 -296 642 -296 q 489 -293 510 -296 q 445 -284 468 -290 l 453 -134 q 481 -140 468 -138 q 511 -142 494 -142 q 556 -111 540 -142 q 572 -22 572 -80 l 572 0 l 271 622 l 267 621 l 267 0 l 73 0 l 73 987 l 267 987 l 568 365 l 572 366 l 572 987 l 764 987 z "},"ŋ":{"ha":675,"x_min":59,"x_max":616,"o":"m 239 734 l 247 634 q 321 718 277 688 q 419 747 366 747 q 563 674 511 747 q 616 445 616 602 l 616 -22 q 555 -225 616 -154 q 385 -296 494 -296 q 341 -293 361 -296 q 298 -284 321 -290 l 306 -132 q 334 -139 321 -136 q 362 -141 347 -141 q 407 -111 391 -141 q 422 -22 422 -80 l 422 445 q 404 559 422 526 q 346 593 385 593 q 293 579 316 593 q 252 541 269 566 l 252 0 l 59 0 l 59 734 l 239 734 z "},"Œ":{"ha":1159,"x_min":59,"x_max":1112,"o":"m 1112 0 l 581 0 q 492 -11 529 -7 q 418 -14 455 -14 q 159 98 258 -14 q 59 391 59 211 l 59 597 q 158 889 59 777 q 417 1002 257 1002 q 496 998 456 1002 q 581 987 536 994 l 1110 987 l 1110 833 l 722 833 l 722 587 l 1053 587 l 1053 433 l 722 433 l 722 154 l 1112 154 l 1112 0 m 418 140 q 473 142 446 140 q 528 149 501 144 l 528 839 q 473 845 500 843 q 417 848 445 848 q 295 783 338 848 q 252 598 252 719 l 252 391 q 296 204 252 269 q 418 140 340 140 z "},"œ":{"ha":1065,"x_min":51,"x_max":1015,"o":"m 51 374 q 129 643 51 539 q 348 747 207 747 q 462 725 410 747 q 551 663 513 703 q 636 725 587 703 q 745 747 685 747 q 944 659 873 747 q 1015 418 1015 570 l 1015 309 l 654 309 q 692 186 659 233 q 784 140 725 140 q 873 152 838 140 q 954 193 907 164 l 1003 70 q 901 9 964 33 q 761 -14 837 -14 q 645 8 697 -14 q 553 73 592 31 q 464 8 515 30 q 349 -14 412 -14 q 129 89 207 -14 q 51 359 51 193 l 51 374 m 243 359 q 267 199 243 257 q 347 144 290 140 l 351 144 q 430 199 406 140 q 454 359 454 258 l 454 374 q 430 532 454 473 q 350 589 406 591 l 346 589 q 267 532 290 591 q 243 374 243 473 l 243 359 m 745 593 q 682 551 703 593 q 654 437 660 509 l 826 437 l 826 456 q 807 556 826 520 q 745 593 787 593 z "},"ſ":{"ha":325,"x_min":64,"x_max":402,"o":"m 64 0 l 64 815 q 127 1005 64 939 q 307 1072 191 1072 q 351 1068 328 1072 q 402 1058 374 1065 l 387 911 q 360 916 372 914 q 332 918 348 918 q 276 891 295 918 q 256 815 256 864 l 256 0 l 64 0 z "},"ƒ":{"ha":446,"x_min":-22,"x_max":441,"o":"m 411 594 l 295 594 l 295 -22 q 234 -225 295 -153 q 64 -296 172 -296 q 20 -293 40 -296 q -22 -284 0 -290 l -14 -134 q 12 -140 -1 -138 q 41 -142 24 -142 q 86 -111 71 -142 q 102 -22 102 -81 l 102 594 l 13 594 l 13 734 l 102 734 l 102 815 q 166 1005 102 939 q 345 1072 230 1072 q 391 1068 368 1072 q 441 1058 414 1065 l 426 910 q 399 915 412 913 q 370 917 387 917 q 314 890 334 917 q 295 815 295 864 l 295 734 l 411 734 l 411 594 z "},"Ơ":{"ha":837,"x_min":52,"x_max":907,"o":"m 741 355 q 647 83 741 181 q 396 -14 553 -14 q 146 83 239 -14 q 52 355 52 181 l 52 631 q 146 903 52 804 q 395 1002 239 1002 q 551 970 481 1002 q 667 880 621 939 q 744 956 718 902 q 770 1090 770 1010 l 907 1090 q 860 876 907 962 q 726 754 813 790 q 737 694 733 725 q 741 631 741 664 l 741 355 m 549 633 q 510 792 549 739 q 395 846 471 846 q 281 793 319 846 q 243 633 243 739 l 243 355 q 282 194 243 248 q 396 140 321 140 q 510 194 471 140 q 549 355 549 248 l 549 633 z "},"ơ":{"ha":701,"x_min":38,"x_max":732,"o":"m 38 412 q 116 653 38 559 q 336 747 195 747 q 455 725 401 747 q 547 663 508 703 q 585 735 572 690 q 598 838 598 779 l 732 838 q 700 674 732 743 q 605 571 667 606 q 627 495 619 535 q 634 412 634 455 l 634 321 q 555 79 634 172 q 336 -14 477 -14 q 116 79 195 -14 q 38 321 38 172 l 38 412 m 230 321 q 254 188 230 236 q 336 140 277 140 q 417 188 393 140 q 441 321 441 237 l 441 412 q 417 544 441 494 q 336 593 393 593 q 254 543 278 593 q 230 412 230 494 l 230 321 z "},"Ư":{"ha":859,"x_min":64,"x_max":971,"o":"m 734 987 l 734 859 l 738 858 q 814 924 793 866 q 836 1091 836 981 l 971 1091 q 915 836 971 926 q 734 732 858 745 l 734 315 q 641 72 734 157 q 399 -14 549 -14 q 156 72 249 -14 q 64 315 64 158 l 64 987 l 256 987 l 256 315 q 294 182 256 225 q 399 140 331 140 q 505 180 469 140 q 542 315 542 221 l 542 987 l 734 987 z "},"ư":{"ha":733,"x_min":58,"x_max":794,"o":"m 794 804 q 751 629 794 694 q 616 544 707 565 l 616 0 l 446 0 l 435 85 q 362 11 405 37 q 267 -14 320 -14 q 113 60 168 -14 q 58 290 58 134 l 58 734 l 250 734 l 250 289 q 269 176 250 211 q 326 140 288 140 q 381 152 357 140 q 422 187 406 164 l 422 734 l 616 734 l 616 663 l 620 662 q 660 708 648 672 q 673 804 673 743 l 794 804 z "},"ȷ":{"ha":358,"x_min":-39,"x_max":279,"o":"m 279 734 l 279 -22 q 218 -225 279 -154 q 48 -296 157 -296 q 5 -293 24 -296 q -39 -284 -15 -290 l -30 -134 q -3 -140 -16 -138 q 25 -142 9 -142 q 70 -111 54 -142 q 86 -22 86 -80 l 86 734 l 279 734 z "},"ə":{"ha":636,"x_min":47,"x_max":602,"o":"m 300 748 q 520 647 438 748 q 602 390 602 545 l 602 362 q 526 91 602 196 q 316 -13 450 -14 q 117 75 186 -13 q 47 316 47 163 l 47 425 l 407 425 q 368 547 400 500 q 277 594 335 594 q 188 582 222 594 q 108 541 154 569 l 58 664 q 160 724 96 699 q 300 748 224 748 m 316 140 q 378 182 357 140 q 406 296 399 223 l 235 296 l 235 278 q 254 176 235 212 q 316 140 273 140 z "},"ˆ":{"ha":612,"x_min":80,"x_max":531,"o":"m 531 864 l 531 849 l 380 849 l 303 940 l 227 849 l 80 849 l 80 866 l 250 1027 l 357 1027 l 531 864 z "},"ˇ":{"ha":582,"x_min":56,"x_max":522,"o":"m 289 946 l 349 1032 l 522 1032 l 522 1021 l 354 849 l 224 849 l 56 1022 l 56 1032 l 229 1032 l 289 946 z "},"˘":{"ha":562,"x_min":65,"x_max":494,"o":"m 490 987 l 492 983 q 436 841 494 896 q 281 787 378 787 q 123 842 182 787 q 68 983 65 897 l 70 987 l 210 987 q 228 928 210 951 q 281 905 245 905 q 332 928 315 905 q 349 987 349 951 l 490 987 z "},"˙":{"ha":393,"x_min":87,"x_max":284,"o":"m 284 833 l 87 833 l 87 997 l 284 997 l 284 833 z "},"˚":{"ha":418,"x_min":79,"x_max":340,"o":"m 79 881 q 117 972 79 935 q 211 1010 155 1010 q 302 972 265 1010 q 340 881 340 935 q 303 790 340 825 q 211 755 266 755 q 117 790 155 755 q 79 881 79 826 m 153 881 q 169 834 153 852 q 211 817 185 817 q 252 834 236 817 q 267 881 267 852 q 252 928 267 910 q 211 947 236 947 q 169 928 185 947 q 153 881 153 910 z "},"˛":{"ha":380,"x_min":52,"x_max":315,"o":"m 245 0 q 206 -60 218 -36 q 194 -118 194 -85 q 203 -148 194 -134 q 241 -163 212 -163 q 269 -159 257 -163 q 294 -149 280 -155 l 315 -252 q 268 -273 294 -264 q 205 -281 241 -281 q 95 -244 138 -281 q 52 -141 52 -208 q 78 -43 52 -90 q 158 38 103 3 l 245 0 z "},"˜":{"ha":588,"x_min":75,"x_max":517,"o":"m 517 1004 q 483 895 517 940 q 395 850 448 850 q 302 880 355 850 q 220 909 250 909 q 189 887 201 909 q 176 833 176 865 l 75 863 q 110 972 75 926 q 197 1018 144 1018 q 285 988 229 1018 q 372 958 342 958 q 404 980 391 958 q 417 1035 417 1002 l 517 1004 z "},"˝":{"ha":530,"x_min":89,"x_max":618,"o":"m 437 1029 l 616 1029 l 618 1026 l 456 849 l 300 849 l 437 1029 m 201 1029 l 383 1029 l 243 849 l 89 849 l 201 1029 z "},"˳":{"ha":392,"x_min":92,"x_max":312,"o":"m 92 -153 q 123 -73 92 -105 q 203 -41 155 -41 q 280 -73 249 -41 q 312 -153 312 -105 q 280 -232 312 -201 q 203 -263 249 -263 q 123 -232 155 -263 q 92 -153 92 -200 m 163 -153 q 174 -186 163 -173 q 203 -199 185 -199 q 230 -186 219 -199 q 240 -153 240 -174 q 230 -118 240 -132 q 203 -105 219 -105 q 174 -118 185 -105 q 163 -153 163 -132 z "},"̀":{"ha":11,"x_min":-452,"x_max":-227,"o":"m -227 810 l -340 810 l -452 1016 l -304 1016 l -227 810 z "},"́":{"ha":11,"x_min":-466,"x_max":-240,"o":"m -389 1021 l -240 1021 l -353 815 l -466 815 l -389 1021 z "},"̃":{"ha":12,"x_min":-536,"x_max":-94,"o":"m -94 1004 q -128 895 -94 940 q -216 850 -163 850 q -309 880 -256 850 q -391 909 -361 909 q -422 887 -410 909 q -435 833 -435 865 l -536 863 q -502 972 -536 926 q -414 1018 -467 1018 q -326 988 -382 1018 q -239 958 -269 958 q -207 980 -220 958 q -194 1035 -194 1002 l -94 1004 z "},"̉":{"ha":11,"x_min":-432,"x_max":-193,"o":"m -420 859 l -432 946 q -374 959 -391 948 q -357 993 -357 970 q -375 1030 -357 1019 q -431 1041 -394 1041 l -427 1130 q -253 1095 -312 1130 q -193 999 -193 1061 q -217 931 -193 956 q -276 901 -241 907 l -276 859 l -420 859 z "},"̏":{"ha":11,"x_min":-598,"x_max":-70,"o":"m -281 849 l -437 849 l -598 1026 l -597 1029 l -418 1029 l -281 849 m -70 849 l -224 849 l -363 1029 l -182 1029 l -70 849 z "},"̣":{"ha":11,"x_min":-446,"x_max":-231,"o":"m -231 -239 l -446 -239 l -446 -76 l -231 -76 l -231 -239 z "},"΄":{"ha":438,"x_min":150,"x_max":372,"o":"m 194 1101 l 372 1101 l 243 863 l 150 863 l 194 1101 z "},"΅":{"ha":677,"x_min":92,"x_max":574,"o":"m 574 854 l 415 854 l 415 987 l 574 987 l 574 854 m 251 854 l 92 854 l 92 987 l 251 987 l 251 854 m 309 1190 l 487 1190 l 377 1004 l 286 1004 l 309 1190 z "},"·":{"ha":385,"x_min":95,"x_max":283,"o":"m 283 380 l 95 380 l 95 557 l 283 557 l 283 380 z "},"Γ":{"ha":667,"x_min":75,"x_max":631,"o":"m 631 833 l 269 833 l 269 0 l 75 0 l 75 987 l 631 987 l 631 833 z "},"Δ":{"ha":878,"x_min":15,"x_max":869,"o":"m 344 987 l 544 987 l 869 0 l 15 0 l 344 987 m 265 154 l 619 154 l 446 713 l 441 713 l 265 154 z "},"Θ":{"ha":824,"x_min":49,"x_max":738,"o":"m 490 413 l 300 413 l 300 566 l 490 566 l 490 413 m 738 355 q 644 83 738 181 q 393 -14 549 -14 q 142 83 236 -14 q 49 355 49 181 l 49 631 q 142 903 49 804 q 392 1002 236 1002 q 643 903 548 1002 q 738 631 738 804 l 738 355 m 546 633 q 507 792 546 739 q 392 846 467 846 q 278 793 316 846 q 240 633 240 739 l 240 355 q 279 194 240 248 q 393 140 317 140 q 507 194 467 140 q 546 355 546 248 l 546 633 z "},"Λ":{"ha":772,"x_min":9,"x_max":762,"o":"m 211 0 l 9 0 l 285 987 l 486 987 l 762 0 l 560 0 l 389 761 l 388 765 l 384 765 l 383 762 l 211 0 z "},"Ξ":{"ha":680,"x_min":58,"x_max":630,"o":"m 58 154 l 630 154 l 630 0 l 58 0 l 58 154 m 125 572 l 564 572 l 564 425 l 125 425 l 125 572 m 73 987 l 604 987 l 604 833 l 73 833 l 73 987 z "},"Π":{"ha":842,"x_min":75,"x_max":768,"o":"m 768 0 l 575 0 l 575 833 l 268 833 l 268 0 l 75 0 l 75 987 l 768 987 l 768 0 z "},"Σ":{"ha":680,"x_min":47,"x_max":644,"o":"m 496 495 l 292 154 l 644 154 l 644 0 l 47 0 l 47 98 l 291 501 l 47 890 l 47 987 l 633 987 l 633 833 l 294 833 l 496 507 l 496 495 z "},"Φ":{"ha":928,"x_min":46,"x_max":889,"o":"m 565 871 q 799 760 709 865 q 889 489 889 655 q 799 223 889 326 q 565 115 709 121 l 565 0 l 373 0 l 373 115 q 137 222 227 120 q 46 488 46 323 q 137 760 46 655 q 373 871 227 865 l 373 987 l 565 987 l 565 871 m 235 488 q 271 340 235 393 q 369 286 308 288 l 373 287 l 373 698 l 369 699 q 271 642 308 697 q 235 488 235 586 m 700 489 q 664 642 700 587 q 569 699 629 696 l 565 698 l 565 288 l 569 286 q 664 342 628 288 q 700 489 700 395 z "},"Ψ":{"ha":872,"x_min":27,"x_max":842,"o":"m 535 406 l 539 406 q 622 475 594 415 q 649 644 649 535 l 649 987 l 842 987 l 842 644 q 760 363 842 468 q 535 239 677 258 l 535 0 l 342 0 l 342 238 q 111 359 195 253 q 27 644 27 465 l 27 987 l 220 987 l 220 644 q 251 479 220 540 q 338 406 281 418 l 342 407 l 342 987 l 535 987 l 535 406 z "},"Ω":{"ha":805,"x_min":62,"x_max":733,"o":"m 425 159 q 494 273 470 185 q 518 524 518 360 l 518 585 q 486 777 518 710 q 399 841 454 844 l 395 841 q 309 777 340 844 q 277 585 277 710 l 277 524 q 301 272 277 359 q 373 159 326 184 l 373 0 l 79 0 l 79 156 l 225 156 q 107 313 152 216 q 62 524 62 410 l 62 583 q 155 885 62 768 q 397 1002 248 1002 q 639 885 545 1002 q 733 583 733 768 l 733 524 q 688 313 733 410 q 570 156 642 217 l 721 156 l 721 0 l 425 0 l 425 159 z "},"α":{"ha":673,"x_min":41,"x_max":665,"o":"m 605 733 l 605 236 q 613 163 605 184 q 642 142 622 142 q 646 143 644 142 q 650 145 648 143 l 665 1 q 629 -11 646 -7 q 589 -14 612 -14 q 495 12 534 -14 q 435 90 456 37 q 372 12 409 39 q 284 -14 334 -14 q 105 85 168 -14 q 41 349 41 184 l 41 363 q 105 642 41 536 q 285 747 168 747 q 364 724 330 747 q 425 659 399 701 l 437 733 l 605 733 m 235 349 q 257 195 235 250 q 334 140 279 140 q 380 152 361 140 q 414 189 400 164 q 412 211 412 199 q 412 236 412 223 l 412 540 q 379 579 398 565 q 335 593 360 593 q 258 530 281 593 q 235 363 235 467 l 235 349 z "},"β":{"ha":722,"x_min":81,"x_max":682,"o":"m 370 1002 q 573 931 498 1002 q 648 734 648 860 q 617 609 648 666 q 533 520 587 553 q 643 428 604 491 q 682 277 682 366 q 614 62 682 138 q 427 -14 547 -14 q 347 -3 387 -14 q 273 31 307 8 l 273 -277 l 81 -277 l 81 699 q 165 917 81 833 q 370 1002 248 1002 m 368 578 q 435 614 414 578 q 456 720 456 650 q 434 810 456 772 q 370 847 411 847 q 300 806 327 847 q 273 699 273 766 l 273 172 q 320 148 293 156 q 380 140 347 140 q 459 179 430 140 q 489 281 489 218 q 461 398 489 357 q 382 439 434 439 l 334 439 l 334 578 l 368 578 z "},"γ":{"ha":616,"x_min":10,"x_max":606,"o":"m 405 734 l 606 734 l 404 2 l 404 -282 l 211 -282 l 211 12 l 10 734 l 212 734 l 298 277 l 307 221 l 311 221 l 320 277 l 405 734 z "},"δ":{"ha":675,"x_min":39,"x_max":635,"o":"m 574 987 l 574 833 l 365 833 q 553 622 470 741 q 635 374 635 503 l 635 359 q 557 89 635 193 q 338 -14 479 -14 q 118 83 196 -14 q 39 338 39 181 l 39 353 q 101 581 39 488 q 256 692 162 674 q 184 781 223 737 q 106 863 146 825 l 106 987 l 574 987 m 231 359 q 255 199 231 257 q 336 144 279 140 l 340 144 q 419 199 395 140 q 443 359 443 258 l 443 374 q 418 505 443 449 q 356 587 394 561 q 346 591 350 590 q 337 593 342 593 q 255 533 279 593 q 231 374 231 473 l 231 359 m 257 692 l 256 692 q 257 692 256 692 q 257 692 258 692 z "},"ε":{"ha":670,"x_min":58,"x_max":631,"o":"m 58 206 q 89 312 58 268 q 178 377 120 355 q 98 443 127 401 q 68 534 68 484 q 147 690 68 635 q 356 746 226 746 q 546 686 469 746 q 618 528 622 626 l 617 524 l 430 524 q 407 582 430 561 q 345 603 383 603 q 282 578 302 603 q 261 518 261 553 q 284 459 261 481 q 347 438 307 438 l 453 438 l 453 312 l 347 312 q 276 290 302 312 q 250 222 250 268 q 274 156 250 183 q 345 130 298 130 q 416 154 391 130 q 441 216 441 178 l 627 216 l 629 212 q 550 45 631 103 q 356 -13 468 -13 q 142 46 226 -13 q 58 206 58 104 z "},"ζ":{"ha":604,"x_min":46,"x_max":572,"o":"m 566 987 l 566 881 l 363 580 q 278 428 303 489 q 253 287 253 366 q 278 185 253 220 q 357 151 303 151 l 386 151 q 522 101 471 151 q 572 -37 572 52 q 518 -191 572 -123 q 371 -287 465 -260 l 308 -154 q 366 -113 344 -136 q 387 -54 387 -89 q 370 -14 387 -28 q 314 0 353 0 l 290 0 q 120 75 178 0 q 61 256 61 149 q 99 451 61 361 q 218 661 136 541 l 338 834 l 46 834 l 46 987 l 566 987 z "},"η":{"ha":675,"x_min":59,"x_max":616,"o":"m 239 734 l 247 633 q 321 717 277 687 q 419 747 366 747 q 564 675 511 747 q 616 445 616 603 l 616 -281 l 422 -281 l 422 445 q 404 559 422 526 q 346 593 385 593 q 292 579 316 593 q 252 540 269 565 l 252 0 l 59 0 l 59 734 l 239 734 z "},"θ":{"ha":711,"x_min":66,"x_max":644,"o":"m 644 387 q 566 88 644 190 q 356 -14 488 -14 q 144 88 223 -14 q 66 387 66 190 l 66 600 q 144 899 66 796 q 355 1002 222 1002 q 566 899 487 1002 q 644 600 644 796 l 644 387 m 452 422 l 258 422 l 258 372 q 283 196 258 251 q 354 144 309 140 l 358 144 q 427 195 403 140 q 452 372 452 250 l 452 422 m 258 570 l 452 570 l 452 616 q 427 791 452 736 q 357 842 401 846 l 353 842 q 283 791 307 846 q 258 616 258 736 l 258 570 z "},"ι":{"ha":410,"x_min":76,"x_max":387,"o":"m 269 733 l 269 224 q 279 159 269 177 q 314 140 290 140 q 338 142 331 140 q 370 151 345 143 l 387 5 q 333 -10 357 -6 q 275 -14 308 -14 q 127 45 179 -14 q 76 225 76 104 l 76 733 l 269 733 z "},"λ":{"ha":635,"x_min":5,"x_max":668,"o":"m 212 0 l 5 0 l 217 723 l 186 795 q 151 853 174 831 q 100 875 128 875 q 81 873 93 875 q 62 871 69 872 l 58 1014 q 107 1026 89 1022 q 149 1029 125 1029 q 293 976 245 1029 q 368 844 341 922 l 576 237 q 601 178 585 202 q 640 149 617 155 q 652 147 645 147 q 668 147 660 146 l 654 -2 q 610 -7 632 -6 q 567 -7 589 -9 q 446 65 490 0 q 376 217 402 131 l 308 448 l 304 448 l 300 430 l 212 0 z "},"ξ":{"ha":650,"x_min":62,"x_max":638,"o":"m 579 987 l 579 828 l 422 828 q 336 801 364 828 q 309 724 309 773 q 334 644 309 673 q 415 615 360 615 l 505 615 l 505 455 l 421 455 q 297 412 338 455 q 256 285 256 370 q 284 184 256 222 q 365 146 313 146 l 446 146 q 586 98 534 146 q 638 -40 638 51 q 586 -203 637 -138 q 435 -300 536 -269 l 385 -184 q 439 -142 416 -167 q 463 -79 463 -117 q 446 -30 463 -47 q 395 -13 430 -13 l 353 -13 q 140 66 218 -13 q 62 288 62 145 q 106 440 62 378 q 235 534 150 503 q 146 596 177 556 q 116 690 116 635 q 138 772 116 737 q 201 828 159 806 l 79 828 l 79 987 l 579 987 z "},"π":{"ha":791,"x_min":50,"x_max":755,"o":"m 726 589 l 636 589 l 636 224 q 647 159 636 178 q 682 141 657 141 q 705 142 699 141 q 737 151 712 144 l 755 5 q 700 -9 725 -5 q 642 -14 675 -14 q 495 46 547 -14 q 444 226 444 105 l 444 589 l 332 589 l 332 0 l 139 0 l 139 589 l 50 589 l 50 734 l 726 734 l 726 589 z "},"ρ":{"ha":675,"x_min":62,"x_max":637,"o":"m 637 349 q 573 85 637 184 q 395 -14 510 -14 q 316 3 351 -14 q 255 56 281 21 l 255 -282 l 62 -282 l 62 394 l 64 394 l 62 395 q 140 650 62 552 q 356 747 218 747 q 564 642 490 747 q 637 363 637 536 l 637 349 m 444 363 q 421 529 444 467 q 347 588 397 591 l 343 588 q 277 531 299 591 q 255 376 255 471 l 254 375 l 255 375 l 255 188 q 291 152 269 164 q 345 140 313 140 q 421 195 398 140 q 444 349 444 250 l 444 363 z "},"ς":{"ha":607,"x_min":33,"x_max":585,"o":"m 326 747 q 515 672 445 747 q 583 464 585 596 l 581 460 l 406 460 q 387 557 406 521 q 326 593 368 593 q 248 534 270 593 q 227 376 227 475 l 227 357 q 259 212 227 261 q 368 149 292 163 q 532 85 480 130 q 585 -50 585 41 q 530 -204 583 -136 q 383 -298 477 -272 l 321 -165 q 377 -124 356 -147 q 399 -66 399 -100 q 378 -23 399 -39 q 315 1 357 -7 q 102 114 172 24 q 33 357 33 203 l 33 376 q 109 643 33 539 q 326 747 185 747 z "},"σ":{"ha":687,"x_min":39,"x_max":667,"o":"m 667 579 l 520 579 q 594 474 566 534 q 623 349 623 414 l 623 333 q 548 83 623 180 q 336 -14 472 -14 q 117 89 195 -14 q 39 359 39 193 l 39 374 q 117 634 39 534 q 336 734 195 734 q 336 733 336 733 l 667 734 l 667 579 m 231 359 q 254 199 231 257 q 334 144 277 141 l 338 144 q 409 199 388 141 q 431 359 431 258 l 431 374 q 409 523 431 467 q 336 579 387 579 q 255 523 279 579 q 231 374 231 466 l 231 359 z "},"τ":{"ha":631,"x_min":30,"x_max":606,"o":"m 606 581 l 413 581 l 413 0 l 220 0 l 220 581 l 30 581 l 30 734 l 606 734 l 606 581 z "},"υ":{"ha":675,"x_min":64,"x_max":635,"o":"m 256 734 l 256 319 q 280 182 256 224 q 342 144 304 140 l 347 144 q 420 210 397 141 q 443 380 443 278 q 427 556 441 468 q 387 734 412 645 l 568 734 q 616 574 598 663 q 635 380 635 486 q 569 92 635 198 q 351 -14 503 -14 q 140 68 216 -14 q 64 321 64 151 l 64 734 l 256 734 z "},"φ":{"ha":907,"x_min":27,"x_max":869,"o":"m 544 734 q 787 623 704 734 q 869 366 869 511 q 792 115 869 217 q 544 -8 715 14 l 544 -324 l 351 -324 l 351 -7 q 104 131 180 20 q 27 404 27 242 q 47 585 27 503 q 101 734 67 668 l 275 734 q 236 566 250 648 q 220 404 221 484 q 250 245 220 308 q 347 163 279 182 l 351 163 l 351 734 l 544 734 m 544 158 l 548 157 q 647 227 617 173 q 677 366 677 281 q 643 519 675 460 q 548 573 610 577 l 544 572 l 544 158 z "},"χ":{"ha":638,"x_min":10,"x_max":640,"o":"m 111 745 q 250 691 204 745 q 319 560 295 637 l 343 492 l 347 492 l 446 734 l 640 734 l 435 235 l 536 -46 q 561 -104 545 -80 q 599 -134 577 -127 q 612 -135 605 -135 q 628 -136 619 -136 l 619 -286 q 574 -292 598 -290 q 527 -291 550 -293 q 419 -218 460 -283 q 354 -66 378 -152 l 336 -16 l 332 -16 l 222 -281 l 34 -281 l 245 239 l 149 511 q 111 569 138 548 q 52 589 83 589 q 33 588 45 589 q 14 585 20 587 l 10 729 q 65 741 45 737 q 111 745 85 745 z "},"ψ":{"ha":906,"x_min":37,"x_max":869,"o":"m 543 733 l 543 163 l 547 163 q 645 247 614 183 q 675 406 675 311 q 659 565 674 484 q 618 734 644 646 l 793 734 q 848 586 827 667 q 869 406 869 504 q 791 128 869 241 q 543 -8 714 16 l 543 -321 l 351 -321 l 351 -6 q 118 117 200 18 q 37 399 37 216 l 37 734 l 230 734 l 230 397 q 261 239 230 296 q 347 165 292 181 l 351 165 l 351 733 l 543 733 z "},"ω":{"ha":1022,"x_min":44,"x_max":978,"o":"m 313 734 q 258 558 278 647 q 236 380 238 469 q 255 208 236 275 q 319 145 273 141 l 323 144 q 385 187 360 140 q 409 335 409 233 l 409 574 l 612 574 l 612 335 q 636 187 612 233 q 699 144 661 140 l 703 145 q 766 208 747 141 q 785 380 785 275 q 763 558 783 469 q 707 734 743 646 l 888 734 q 953 574 928 663 q 978 380 978 486 q 916 91 978 197 q 707 -14 853 -14 q 591 21 641 -14 q 511 125 541 56 q 430 21 480 56 q 315 -14 380 -14 q 106 92 168 -14 q 44 380 44 197 q 68 574 44 486 q 133 734 92 663 l 313 734 z "},"ϑ":{"ha":835,"x_min":75,"x_max":776,"o":"m 431 146 q 535 204 497 146 q 573 366 572 262 q 393 456 466 376 q 320 650 320 535 l 320 724 q 385 926 320 850 q 554 1002 450 1002 q 716 928 657 1002 q 776 724 776 854 l 776 369 q 681 90 776 195 q 431 -14 587 -14 q 173 94 272 -14 q 75 369 75 202 l 75 849 l 279 850 l 279 369 q 319 208 279 269 q 431 146 360 146 m 501 648 q 519 559 501 595 q 569 515 538 522 l 573 517 l 573 745 q 566 808 573 787 q 545 826 558 829 l 541 826 q 512 808 524 829 q 501 745 501 786 l 501 648 z "},"ϒ":{"ha":718,"x_min":1,"x_max":716,"o":"m 447 812 q 529 962 483 919 q 657 1005 575 1005 q 688 1002 673 1005 q 716 992 703 999 l 701 842 q 690 844 700 842 q 674 845 680 845 q 638 825 652 845 q 616 770 624 805 l 452 315 l 452 0 l 259 0 l 259 330 l 100 770 q 78 825 92 805 q 42 845 63 845 q 26 844 36 845 q 14 842 16 842 l 1 992 q 27 1002 13 999 q 60 1005 42 1005 q 188 964 142 1005 q 269 817 233 923 l 349 556 l 356 511 l 360 511 l 368 556 l 447 812 z "},"ϖ":{"ha":998,"x_min":9,"x_max":994,"o":"m 994 599 l 920 599 q 943 494 935 549 q 951 380 951 440 q 892 92 951 197 q 695 -14 833 -14 q 579 21 629 -14 q 499 125 529 57 q 419 21 469 57 q 303 -14 369 -14 q 106 92 165 -14 q 47 380 47 197 q 55 495 47 440 q 78 599 63 549 l 9 599 l 9 734 l 994 734 l 994 599 m 758 380 q 748 490 756 435 q 726 599 741 545 l 272 599 q 250 490 258 545 q 241 380 242 435 q 256 208 241 274 q 309 145 271 141 l 313 145 q 373 187 349 140 q 397 335 397 233 l 397 472 l 602 472 l 602 335 q 625 187 602 233 q 686 145 649 140 l 690 145 q 743 208 727 141 q 758 380 758 274 z "},"Ђ":{"ha":890,"x_min":18,"x_max":856,"o":"m 672 833 l 412 833 l 412 586 q 479 601 448 595 q 541 606 511 606 q 771 528 687 606 q 856 298 856 450 q 779 79 856 168 q 533 -9 701 -11 l 529 -7 l 529 133 q 637 176 613 133 q 663 288 662 218 q 632 407 663 362 q 541 451 600 451 q 474 448 505 451 q 412 438 444 444 l 412 0 l 219 0 l 219 833 l 18 833 l 18 987 l 672 987 l 672 833 z "},"Є":{"ha":739,"x_min":45,"x_max":692,"o":"m 689 319 l 691 315 q 614 69 692 152 q 382 -14 535 -14 q 137 80 229 -14 q 45 347 45 174 l 45 642 q 134 908 45 813 q 371 1002 222 1002 q 609 918 528 1002 q 692 669 689 834 l 690 665 l 504 665 q 477 805 508 762 q 371 848 447 848 q 271 797 306 848 q 237 643 237 746 l 237 572 l 481 572 l 481 418 l 237 418 l 237 347 q 274 191 237 242 q 382 140 311 140 q 479 181 452 140 q 503 319 507 221 l 689 319 z "},"Љ":{"ha":1250,"x_min":28,"x_max":1215,"o":"m 766 987 l 766 644 l 892 644 q 1127 553 1038 644 q 1215 322 1215 463 q 1127 90 1215 180 q 892 0 1038 0 l 574 0 l 574 833 l 380 833 l 381 544 q 299 127 382 254 q 52 0 216 0 l 28 0 l 28 154 l 50 154 q 162 236 134 154 q 189 544 191 319 l 186 987 l 766 987 m 766 490 l 766 154 l 892 154 q 988 203 953 154 q 1023 323 1023 252 q 988 441 1023 392 q 892 490 953 490 l 766 490 z "},"Њ":{"ha":1250,"x_min":75,"x_max":1216,"o":"m 268 567 l 574 567 l 574 987 l 767 987 l 767 637 l 892 637 q 1127 548 1038 637 q 1216 319 1216 459 q 1127 89 1216 178 q 892 0 1038 0 l 574 0 l 574 413 l 268 413 l 268 0 l 75 0 l 75 987 l 268 987 l 268 567 m 767 484 l 767 155 l 892 155 q 988 203 954 155 q 1023 321 1023 251 q 988 436 1023 389 q 892 484 954 484 l 767 484 z "},"Ћ":{"ha":909,"x_min":23,"x_max":844,"o":"m 659 833 l 403 833 l 403 616 q 461 623 433 620 q 509 626 490 626 q 755 546 667 626 q 844 300 844 465 l 844 0 l 652 0 l 652 300 q 618 434 652 397 q 509 472 584 472 q 459 469 488 472 q 403 462 431 467 l 403 0 l 210 0 l 210 833 l 23 833 l 23 987 l 659 987 l 659 833 z "},"Џ":{"ha":833,"x_min":65,"x_max":758,"o":"m 65 987 l 257 987 l 257 154 l 565 154 l 565 987 l 758 987 l 758 0 l 516 0 l 516 -243 l 323 -243 l 323 0 l 65 0 l 65 987 z "},"Б":{"ha":747,"x_min":74,"x_max":716,"o":"m 630 833 l 267 833 l 267 624 l 391 624 q 628 539 540 624 q 716 315 716 455 q 628 87 716 174 q 391 0 539 0 l 74 0 l 74 987 l 630 987 l 630 833 m 267 470 l 267 154 l 391 154 q 489 200 454 154 q 524 317 524 246 q 489 427 524 384 q 391 470 454 470 l 267 470 z "},"Д":{"ha":896,"x_min":15,"x_max":880,"o":"m 861 -242 l 686 -242 l 686 0 l 208 0 l 208 -242 l 28 -242 l 15 154 l 79 154 q 154 292 123 193 q 190 590 184 391 l 215 987 l 779 987 l 779 154 l 880 154 l 861 -242 m 383 590 q 353 331 378 437 q 287 154 328 225 l 587 154 l 587 833 l 398 833 l 383 590 z "},"Ж":{"ha":1213,"x_min":14,"x_max":1206,"o":"m 805 410 l 711 410 l 711 0 l 518 0 l 518 410 l 420 410 l 254 0 l 14 0 l 270 541 l 26 987 l 265 987 l 435 585 l 518 585 l 518 987 l 711 987 l 711 585 l 791 585 l 956 987 l 1194 987 l 956 543 l 1206 0 l 966 0 l 805 410 z "},"З":{"ha":741,"x_min":43,"x_max":683,"o":"m 670 720 q 635 595 670 652 q 539 507 600 539 q 646 419 608 478 q 683 275 683 360 q 593 63 683 140 q 357 -14 503 -14 q 136 58 229 -14 q 46 270 43 131 l 47 274 l 235 274 q 269 178 235 216 q 357 140 303 140 q 454 178 418 140 q 490 278 490 217 q 459 393 490 357 q 368 429 429 429 l 265 429 l 265 578 l 368 578 q 451 615 424 578 q 477 718 477 651 q 447 810 477 774 q 357 847 416 847 q 277 812 309 847 q 246 721 246 778 l 59 721 l 58 725 q 142 925 54 848 q 357 1002 230 1002 q 586 928 502 1002 q 670 720 670 855 z "},"И":{"ha":831,"x_min":67,"x_max":758,"o":"m 566 987 l 758 987 l 758 0 l 566 0 l 566 613 l 562 614 l 260 0 l 67 0 l 67 987 l 260 987 l 260 374 l 264 374 l 566 987 z "},"Л":{"ha":842,"x_min":29,"x_max":766,"o":"m 766 987 l 766 0 l 574 0 l 574 833 l 368 833 l 370 544 q 297 126 371 253 q 75 0 224 0 l 29 0 l 29 154 l 52 154 q 154 240 130 161 q 177 544 178 319 l 174 987 l 766 987 z "},"У":{"ha":753,"x_min":22,"x_max":735,"o":"m 386 539 l 388 530 l 392 530 l 534 987 l 735 987 l 458 192 q 368 40 418 94 q 224 -14 317 -14 q 192 -13 210 -14 q 163 -12 174 -12 l 159 142 q 179 140 165 141 q 203 140 193 140 q 270 164 248 140 q 304 238 292 188 l 314 271 l 313 271 l 22 987 l 228 987 l 386 539 z "},"Ф":{"ha":995,"x_min":47,"x_max":951,"o":"m 596 899 q 852 785 753 898 q 951 489 951 673 q 852 198 951 309 q 596 87 753 87 l 596 -41 l 404 -41 l 404 87 l 404 87 q 146 197 245 87 q 47 488 47 307 q 146 786 47 672 q 404 899 245 899 l 404 899 l 404 1028 l 596 1028 l 596 899 m 404 734 q 281 670 326 734 q 235 488 235 606 q 281 314 235 374 q 404 253 326 253 l 404 253 l 404 734 l 404 734 m 762 489 q 718 669 762 606 q 600 729 673 732 l 596 728 l 596 260 l 600 258 q 718 315 673 254 q 762 489 762 376 z "},"Ц":{"ha":913,"x_min":66,"x_max":878,"o":"m 66 987 l 258 987 l 258 154 l 565 154 l 565 987 l 758 987 l 758 153 l 878 153 l 865 -238 l 686 -238 l 686 0 l 66 0 l 66 987 z "},"Ч":{"ha":836,"x_min":81,"x_max":760,"o":"m 760 987 l 760 0 l 567 0 l 567 381 q 487 367 531 372 q 415 362 444 362 q 169 442 257 362 q 81 688 81 522 l 81 987 l 273 987 l 273 688 q 306 554 273 591 q 415 516 340 516 q 488 521 444 516 q 567 535 532 526 l 567 987 l 760 987 z "},"Ш":{"ha":1145,"x_min":73,"x_max":1072,"o":"m 267 987 l 267 154 l 478 154 l 478 987 l 670 987 l 670 154 l 879 154 l 879 987 l 1072 987 l 1072 0 l 73 0 l 73 987 l 267 987 z "},"Щ":{"ha":1238,"x_min":73,"x_max":1197,"o":"m 267 987 l 267 154 l 478 154 l 478 987 l 670 987 l 670 154 l 879 154 l 879 987 l 1072 987 l 1072 153 l 1197 153 l 1184 -237 l 1005 -237 l 1005 0 l 73 0 l 73 987 l 267 987 z "},"Ъ":{"ha":918,"x_min":25,"x_max":888,"o":"m 25 987 l 438 987 l 438 624 l 563 624 q 800 539 711 624 q 888 315 888 455 q 799 87 888 174 q 563 0 711 0 l 246 0 l 246 833 l 25 833 l 25 987 m 438 470 l 438 154 l 563 154 q 660 200 625 154 q 695 317 695 246 q 660 427 695 384 q 563 470 625 470 l 438 470 z "},"Ы":{"ha":1044,"x_min":76,"x_max":968,"o":"m 268 624 l 393 624 q 629 539 541 624 q 718 315 718 455 q 629 87 718 174 q 393 0 541 0 l 76 0 l 76 987 l 268 987 l 268 624 m 968 0 l 777 0 l 777 987 l 968 987 l 968 0 m 268 470 l 268 154 l 393 154 q 490 200 455 154 q 525 317 525 246 q 490 427 525 384 q 393 470 455 470 l 268 470 z "},"Ь":{"ha":749,"x_min":75,"x_max":716,"o":"m 267 624 l 391 624 q 628 539 540 624 q 716 315 716 455 q 628 87 716 174 q 391 0 539 0 l 75 0 l 75 987 l 267 987 l 267 624 m 267 470 l 267 154 l 391 154 q 489 200 454 154 q 524 317 524 246 q 489 427 524 384 q 391 470 454 470 l 267 470 z "},"Э":{"ha":737,"x_min":41,"x_max":680,"o":"m 47 660 l 45 664 q 125 914 42 826 q 360 1002 208 1002 q 593 889 507 1002 q 680 593 680 775 l 680 395 q 594 99 680 212 q 360 -14 507 -14 q 124 73 208 -14 q 43 323 41 159 l 45 327 l 233 327 q 262 185 233 229 q 360 140 292 140 q 456 209 425 140 q 487 394 487 277 l 487 421 l 239 421 l 239 576 l 487 576 l 487 593 q 456 779 487 710 q 360 848 425 848 q 263 803 293 848 q 233 660 233 758 l 47 660 z "},"Ю":{"ha":1135,"x_min":79,"x_max":1044,"o":"m 1044 355 q 950 83 1044 181 q 699 -14 856 -14 q 449 83 543 -14 q 355 355 355 181 l 355 395 l 271 395 l 271 0 l 79 0 l 79 987 l 271 987 l 271 550 l 355 550 l 355 631 q 449 903 355 804 q 699 1002 543 1002 q 949 903 854 1002 q 1044 631 1044 804 l 1044 355 m 852 633 q 813 792 852 739 q 699 846 774 846 q 585 793 623 846 q 547 633 547 739 l 547 355 q 585 194 547 248 q 699 140 624 140 q 813 194 774 140 q 852 355 852 248 l 852 633 z "},"Я":{"ha":709,"x_min":-24,"x_max":642,"o":"m 184 0 l -24 0 l 154 430 q 61 535 92 471 q 30 684 30 598 q 113 909 30 830 q 343 987 196 987 l 642 987 l 642 0 l 449 0 l 449 361 l 334 361 l 184 0 m 449 833 l 343 833 q 253 792 283 833 q 222 673 222 751 q 254 551 222 597 q 347 506 286 506 l 449 506 l 449 833 z "},"б":{"ha":686,"x_min":52,"x_max":647,"o":"m 363 692 q 572 596 498 692 q 647 349 647 501 l 647 334 q 569 82 647 178 q 350 -14 490 -14 q 130 82 208 -14 q 52 334 52 178 l 52 435 q 132 810 52 678 q 340 970 213 942 q 412 1000 387 981 q 437 1057 437 1018 l 585 1057 l 587 1053 q 534 880 589 924 q 345 812 478 836 q 254 755 287 800 q 211 632 220 711 l 213 629 q 282 674 243 657 q 363 692 321 692 m 349 538 q 268 486 292 538 q 244 349 244 434 l 244 334 q 268 192 244 244 q 350 140 292 140 q 430 192 406 140 q 454 334 454 244 l 454 349 q 430 486 454 435 q 349 538 406 538 z "},"в":{"ha":676,"x_min":74,"x_max":642,"o":"m 74 0 l 74 734 l 341 734 q 537 682 467 734 q 607 530 607 631 q 576 437 607 478 q 488 376 545 397 q 603 315 565 359 q 642 208 642 270 q 575 52 642 104 q 381 0 508 0 l 74 0 m 267 307 l 267 153 l 381 153 q 433 171 417 153 q 449 229 449 190 q 434 287 449 267 q 381 307 419 307 l 267 307 m 267 433 l 346 433 q 398 451 382 433 q 415 504 415 468 q 397 562 415 544 q 341 581 379 581 l 267 581 l 267 433 z "},"г":{"ha":503,"x_min":60,"x_max":494,"o":"m 494 579 l 252 579 l 252 0 l 60 0 l 60 734 l 494 734 l 494 579 z "},"д":{"ha":770,"x_min":21,"x_max":751,"o":"m 77 155 q 155 291 138 223 q 174 492 172 358 l 174 734 l 656 734 l 656 154 l 751 154 l 739 -220 l 559 -220 l 559 0 l 218 0 l 218 -220 l 38 -220 l 21 155 l 77 155 m 366 492 q 341 298 361 382 q 286 154 320 214 l 464 154 l 464 577 l 366 577 l 366 492 z "},"ж":{"ha":1047,"x_min":20,"x_max":1034,"o":"m 689 274 l 623 274 l 623 0 l 430 0 l 430 274 l 365 274 l 267 0 l 20 0 l 205 400 l 25 734 l 269 734 l 376 458 l 430 458 l 430 734 l 623 734 l 623 458 l 679 458 l 785 734 l 1029 734 l 839 399 l 1034 0 l 787 0 l 689 274 z "},"з":{"ha":617,"x_min":41,"x_max":582,"o":"m 313 436 q 362 458 347 436 q 378 518 378 479 q 364 579 378 555 q 315 603 350 603 q 261 582 281 603 q 242 524 242 561 l 56 524 l 54 528 q 122 686 50 626 q 304 746 195 746 q 499 691 427 746 q 570 534 570 635 q 545 443 570 484 q 473 378 519 401 q 554 312 526 356 q 582 206 582 269 q 505 45 582 104 q 304 -13 428 -13 q 118 45 196 -13 q 44 212 41 102 l 46 216 l 233 216 q 253 154 233 178 q 315 130 273 130 q 372 155 354 130 q 390 222 390 181 q 371 292 390 269 q 313 314 351 314 l 226 314 l 226 436 l 313 436 z "},"и":{"ha":677,"x_min":60,"x_max":618,"o":"m 425 734 l 618 734 l 618 0 l 425 0 l 425 401 l 421 402 l 253 0 l 60 0 l 60 734 l 253 734 l 253 334 l 257 333 l 425 734 z "},"к":{"ha":687,"x_min":74,"x_max":686,"o":"m 319 273 l 267 273 l 267 0 l 74 0 l 74 734 l 267 734 l 267 456 l 317 456 l 426 734 l 669 734 l 478 397 l 686 0 l 429 0 l 319 273 z "},"л":{"ha":678,"x_min":12,"x_max":618,"o":"m 618 734 l 618 0 l 426 0 l 426 579 l 306 579 l 306 419 q 246 101 306 202 q 41 0 186 0 l 14 0 l 12 156 l 28 156 q 99 208 85 156 q 113 419 113 260 l 113 734 l 618 734 z "},"м":{"ha":912,"x_min":74,"x_max":831,"o":"m 447 231 l 451 231 l 589 734 l 831 734 l 831 0 l 637 0 l 637 384 l 633 385 l 514 0 l 385 0 l 271 369 l 267 368 l 267 0 l 74 0 l 74 734 l 311 734 l 447 231 z "},"н":{"ha":677,"x_min":60,"x_max":616,"o":"m 616 0 l 423 0 l 423 285 l 252 285 l 252 0 l 60 0 l 60 734 l 252 734 l 252 438 l 423 438 l 423 734 l 616 734 l 616 0 z "},"п":{"ha":677,"x_min":60,"x_max":618,"o":"m 618 0 l 425 0 l 425 579 l 252 579 l 252 0 l 60 0 l 60 734 l 618 734 l 618 0 z "},"т":{"ha":620,"x_min":21,"x_max":597,"o":"m 597 581 l 405 581 l 405 0 l 211 0 l 211 581 l 21 581 l 21 734 l 597 734 l 597 581 z "},"ф":{"ha":871,"x_min":37,"x_max":833,"o":"m 37 363 q 97 642 37 536 q 269 747 157 747 q 304 744 288 747 q 338 734 321 740 l 338 1058 l 531 1058 l 531 733 q 565 744 547 740 q 602 747 583 747 q 773 642 713 747 q 833 363 833 536 l 833 349 q 773 85 833 184 q 603 -14 713 -14 q 565 -11 583 -14 q 531 -1 547 -7 l 531 -282 l 338 -282 l 338 -1 q 303 -11 321 -7 q 267 -14 286 -14 q 97 85 157 -14 q 37 349 37 184 l 37 363 m 640 363 q 619 530 640 467 q 551 593 598 593 q 541 592 546 593 q 531 591 536 591 l 531 141 q 540 140 535 140 q 553 140 545 140 q 620 195 600 140 q 640 349 640 250 l 640 363 m 230 349 q 250 195 230 250 q 317 140 269 140 q 326 140 321 140 q 338 141 331 140 l 338 591 q 327 592 332 592 q 319 593 323 593 q 251 530 271 593 q 230 363 230 467 l 230 349 z "},"ц":{"ha":738,"x_min":60,"x_max":720,"o":"m 60 734 l 252 734 l 252 154 l 425 154 l 425 734 l 618 734 l 618 153 l 720 153 l 707 -218 l 527 -218 l 527 0 l 60 0 l 60 734 z "},"ч":{"ha":668,"x_min":52,"x_max":608,"o":"m 608 0 l 415 0 l 415 232 q 381 226 397 228 q 351 224 365 224 q 130 293 207 224 q 52 506 52 361 l 52 734 l 244 734 l 244 506 q 268 405 244 432 q 351 378 292 378 q 383 380 367 378 q 415 387 399 382 l 415 734 l 608 734 l 608 0 z "},"ш":{"ha":994,"x_min":60,"x_max":923,"o":"m 252 734 l 252 154 l 395 154 l 395 734 l 587 734 l 587 154 l 731 154 l 731 734 l 923 734 l 923 0 l 60 0 l 60 734 l 252 734 z "},"щ":{"ha":1103,"x_min":58,"x_max":1061,"o":"m 251 734 l 251 154 l 393 154 l 393 734 l 586 734 l 586 154 l 730 154 l 730 734 l 922 734 l 922 153 l 1061 153 l 1048 -218 l 868 -218 l 868 0 l 58 0 l 58 734 l 251 734 z "},"ъ":{"ha":794,"x_min":25,"x_max":770,"o":"m 390 517 l 490 517 q 695 446 621 517 q 770 257 770 374 q 695 71 770 142 q 490 0 620 0 l 197 0 l 197 579 l 25 579 l 25 734 l 390 734 l 390 517 m 390 364 l 390 153 l 490 153 q 556 182 534 153 q 578 257 578 211 q 556 334 578 304 q 490 364 534 364 l 390 364 z "},"ы":{"ha":1010,"x_min":74,"x_max":928,"o":"m 267 517 l 367 517 q 573 446 498 517 q 648 257 648 374 q 572 71 648 142 q 367 0 497 0 l 74 0 l 74 734 l 267 734 l 267 517 m 928 0 l 735 0 l 735 734 l 928 734 l 928 0 m 267 364 l 267 153 l 367 153 q 434 182 412 153 q 456 257 456 211 q 434 334 456 304 q 367 364 412 364 l 267 364 z "},"ь":{"ha":674,"x_min":74,"x_max":648,"o":"m 267 517 l 367 517 q 573 446 498 517 q 648 257 648 374 q 572 71 648 142 q 367 0 497 0 l 74 0 l 74 734 l 267 734 l 267 517 m 267 364 l 267 153 l 367 153 q 434 182 412 153 q 456 257 456 211 q 434 334 456 304 q 367 364 412 364 l 267 364 z "},"э":{"ha":615,"x_min":34,"x_max":586,"o":"m 293 593 q 234 564 253 593 q 214 480 214 534 l 39 480 l 37 484 q 107 673 34 598 q 293 747 180 747 q 509 643 433 747 q 586 376 586 539 l 586 357 q 509 89 586 193 q 294 -14 433 -14 q 104 62 175 -14 q 37 269 34 138 l 38 273 l 214 273 q 234 176 214 212 q 294 140 254 140 q 365 185 342 140 q 391 311 387 231 l 255 311 l 255 426 l 391 426 q 364 548 387 504 q 293 593 342 593 z "},"ю":{"ha":964,"x_min":77,"x_max":925,"o":"m 270 450 l 330 450 q 417 665 340 583 q 627 747 495 747 q 846 653 768 747 q 925 412 925 559 l 925 321 q 846 79 925 172 q 627 -14 768 -14 q 414 71 492 -14 q 330 296 336 157 l 270 296 l 270 0 l 77 0 l 77 734 l 270 734 l 270 450 m 521 321 q 545 188 521 236 q 627 140 568 140 q 708 188 684 140 q 732 321 732 237 l 732 412 q 708 544 732 494 q 627 593 684 593 q 545 543 569 593 q 521 412 521 494 l 521 321 z "},"я":{"ha":673,"x_min":22,"x_max":598,"o":"m 598 734 l 598 0 l 406 0 l 406 254 l 335 254 l 216 0 l 22 0 l 159 290 q 71 372 102 320 q 40 488 40 423 q 115 665 40 596 q 317 734 191 734 l 598 734 m 233 482 q 255 415 233 444 q 318 387 277 387 l 406 387 l 406 581 l 317 581 q 255 551 277 581 q 233 482 233 521 z "},"ђ":{"ha":676,"x_min":-20,"x_max":616,"o":"m 374 809 l 250 809 l 250 646 q 318 721 278 694 q 406 747 358 747 q 559 670 504 747 q 615 430 615 592 l 615 317 l 616 317 l 616 -23 q 555 -225 616 -154 q 385 -296 494 -296 q 340 -294 361 -296 q 298 -285 320 -291 l 306 -134 q 334 -140 321 -138 q 362 -142 347 -142 q 407 -112 391 -142 q 422 -23 422 -81 l 422 431 q 400 557 422 522 q 334 593 379 593 q 286 581 307 593 q 250 548 264 569 l 250 0 l 57 0 l 57 809 l -20 809 l -20 928 l 57 928 l 57 1058 l 250 1058 l 250 928 l 374 928 l 374 809 z "},"є":{"ha":616,"x_min":35,"x_max":589,"o":"m 330 140 q 390 169 370 140 q 410 253 410 198 l 585 253 l 587 249 q 516 60 589 134 q 330 -14 443 -14 q 112 79 188 -14 q 35 319 35 172 l 35 413 q 111 653 35 559 q 329 747 187 747 q 518 671 448 747 q 587 464 589 594 l 585 460 l 410 460 q 390 556 410 520 q 329 593 370 593 q 250 544 271 593 q 228 416 228 496 l 376 416 l 376 301 l 228 301 q 252 182 229 225 q 330 140 275 140 z "},"љ":{"ha":1022,"x_min":12,"x_max":996,"o":"m 615 734 l 615 500 l 715 500 q 921 432 846 500 q 996 251 996 363 q 921 69 996 138 q 715 0 846 0 l 422 0 l 422 579 l 318 579 l 318 419 q 253 102 318 205 q 41 0 188 0 l 15 0 l 12 155 l 28 155 q 101 219 77 155 q 125 419 125 283 l 125 734 l 615 734 m 615 347 l 615 153 l 715 153 q 782 180 760 153 q 804 252 804 208 q 782 320 804 294 q 715 347 760 347 l 615 347 z "},"њ":{"ha":1023,"x_min":60,"x_max":997,"o":"m 252 448 l 423 448 l 423 734 l 616 734 l 616 500 l 716 500 q 922 432 846 500 q 997 251 997 363 q 922 69 997 138 q 716 0 846 0 l 423 0 l 423 294 l 252 294 l 252 0 l 60 0 l 60 734 l 252 734 l 252 448 m 616 347 l 616 153 l 716 153 q 783 180 761 153 q 805 252 805 208 q 783 320 805 294 q 716 347 761 347 l 616 347 z "},"ћ":{"ha":676,"x_min":-12,"x_max":615,"o":"m 382 818 l 250 818 l 250 646 q 318 721 278 694 q 406 747 358 747 q 559 670 504 747 q 615 430 615 592 l 615 0 l 422 0 l 422 431 q 400 557 422 522 q 334 593 379 593 q 286 581 307 593 q 250 548 264 569 l 250 0 l 57 0 l 57 818 l -12 818 l -12 937 l 57 937 l 57 1058 l 250 1058 l 250 937 l 382 937 l 382 818 z "},"џ":{"ha":677,"x_min":60,"x_max":618,"o":"m 252 734 l 252 154 l 425 154 l 425 734 l 618 734 l 618 0 l 435 0 l 435 -243 l 242 -243 l 242 0 l 60 0 l 60 734 l 252 734 z "},"Ѡ":{"ha":1138,"x_min":68,"x_max":1062,"o":"m 1062 987 l 1062 313 q 980 71 1062 156 q 766 -14 899 -14 q 651 12 703 -14 q 565 87 600 37 q 478 12 530 37 q 363 -14 427 -14 q 150 71 231 -14 q 68 313 68 156 l 68 987 l 261 987 l 261 313 q 288 182 261 225 q 363 140 315 140 q 441 182 414 140 q 468 313 468 224 l 468 987 l 662 987 l 662 313 q 689 182 662 225 q 766 140 717 140 q 843 182 816 140 q 869 313 869 224 l 869 987 l 1062 987 z "},"ѡ":{"ha":982,"x_min":54,"x_max":945,"o":"m 945 734 l 945 307 q 872 69 945 153 q 678 -14 799 -14 q 576 8 622 -14 q 500 76 531 31 q 422 8 469 31 q 320 -14 376 -14 q 127 69 199 -14 q 54 307 54 153 l 54 734 l 247 734 l 247 307 q 265 181 247 221 q 318 144 283 140 l 322 144 q 385 181 363 140 q 406 307 406 221 l 406 734 l 599 734 l 599 307 q 617 180 599 220 q 676 144 636 140 l 680 144 q 734 180 717 140 q 752 307 752 220 l 752 734 l 945 734 z "},"ѣ":{"ha":674,"x_min":-8,"x_max":648,"o":"m 401 733 l 267 733 l 267 532 l 367 532 q 572 459 497 532 q 648 267 648 386 q 572 74 648 147 q 367 0 497 0 l 74 0 l 74 733 l -8 733 l -8 852 l 74 852 l 74 1059 l 267 1059 l 267 852 l 401 852 l 401 733 m 267 379 l 267 153 l 367 153 q 434 184 412 153 q 456 267 456 216 q 434 347 456 315 q 367 379 412 379 l 267 379 z "},"Ѥ":{"ha":1059,"x_min":67,"x_max":998,"o":"m 259 582 l 351 582 l 351 642 q 440 908 351 813 q 677 1002 528 1002 q 915 918 834 1002 q 998 669 995 834 l 996 665 l 810 665 q 783 805 814 762 q 677 848 753 848 q 577 797 612 848 q 543 643 543 746 l 543 582 l 781 582 l 781 427 l 543 427 l 543 347 q 579 191 543 242 q 688 140 616 140 q 785 181 758 140 q 809 319 812 221 l 995 319 l 997 315 q 920 69 998 152 q 688 -14 841 -14 q 443 80 534 -14 q 351 347 351 174 l 351 427 l 259 427 l 259 0 l 67 0 l 67 987 l 259 987 l 259 582 z "},"ѥ":{"ha":902,"x_min":64,"x_max":869,"o":"m 258 429 l 316 429 q 396 658 320 569 q 610 747 472 747 q 799 671 729 747 q 867 464 869 594 l 866 460 l 690 460 q 670 556 690 520 q 610 593 650 593 q 532 548 555 593 q 509 429 510 503 l 672 429 l 672 310 l 509 310 q 531 185 509 230 q 611 140 553 140 q 670 169 650 140 q 690 253 690 198 l 865 253 l 867 249 q 797 60 869 134 q 611 -14 724 -14 q 394 76 471 -14 q 316 310 318 165 l 258 310 l 258 0 l 64 0 l 64 734 l 258 734 l 258 429 z "},"Ѧ":{"ha":802,"x_min":12,"x_max":795,"o":"m 521 263 l 479 263 l 479 0 l 321 0 l 321 263 l 286 263 l 214 0 l 12 0 l 304 987 l 505 987 l 795 0 l 593 0 l 521 263 m 323 397 l 484 397 l 405 684 l 401 684 l 323 397 z "},"ѧ":{"ha":679,"x_min":6,"x_max":664,"o":"m 420 187 l 390 187 l 390 0 l 272 0 l 272 187 l 250 187 l 203 0 l 6 0 l 234 734 l 436 734 l 664 0 l 468 0 l 420 187 m 281 310 l 389 310 l 351 456 l 336 528 l 332 528 l 317 456 l 281 310 z "},"Ѩ":{"ha":1132,"x_min":80,"x_max":1111,"o":"m 272 397 l 446 397 l 620 987 l 821 987 l 1111 0 l 909 0 l 837 263 l 795 263 l 795 0 l 637 0 l 637 263 l 602 263 l 530 0 l 328 0 l 406 262 l 272 262 l 272 0 l 80 0 l 80 987 l 272 987 l 272 397 m 639 397 l 800 397 l 721 684 l 717 684 l 639 397 z "},"ѩ":{"ha":966,"x_min":65,"x_max":952,"o":"m 258 310 l 391 310 l 522 734 l 724 734 l 952 0 l 756 0 l 708 187 l 678 187 l 678 0 l 560 0 l 560 187 l 538 187 l 491 0 l 294 0 l 353 188 l 258 188 l 258 0 l 65 0 l 65 734 l 258 734 l 258 310 m 569 310 l 677 310 l 640 456 l 625 528 l 621 528 l 606 456 l 569 310 z "},"Ѫ":{"ha":1050,"x_min":63,"x_max":986,"o":"m 697 540 q 912 459 839 532 q 986 231 986 386 l 986 0 l 793 0 l 793 231 q 763 351 793 317 q 665 385 732 385 l 630 385 l 630 0 l 438 0 l 438 385 l 384 385 q 286 351 317 385 q 256 231 256 317 l 256 0 l 63 0 l 63 231 q 142 465 63 393 q 375 541 220 538 l 157 987 l 916 987 l 697 540 m 534 602 l 538 602 l 637 831 l 435 831 l 534 602 z "},"ѫ":{"ha":878,"x_min":60,"x_max":817,"o":"m 60 0 l 60 127 q 118 331 60 262 q 287 412 176 399 l 127 734 l 760 734 l 600 411 q 762 328 706 396 q 817 127 817 259 l 817 0 l 625 0 l 625 127 q 605 236 625 205 q 543 262 585 267 l 538 262 l 538 0 l 346 0 l 346 269 l 342 269 q 274 238 295 269 q 253 127 253 206 l 253 0 l 60 0 m 441 456 l 446 456 l 504 609 l 383 609 l 441 456 z "},"Ѭ":{"ha":1401,"x_min":85,"x_max":1337,"o":"m 414 0 l 414 231 q 420 315 414 277 q 439 386 427 354 l 277 386 l 277 0 l 85 0 l 85 987 l 277 987 l 277 542 l 726 542 l 508 987 l 1266 987 l 1048 540 q 1263 459 1190 532 q 1337 231 1337 386 l 1337 0 l 1144 0 l 1144 231 q 1114 351 1144 317 q 1016 385 1083 385 l 981 385 l 981 0 l 789 0 l 789 385 l 734 385 q 637 351 667 385 q 606 231 606 317 l 606 0 l 414 0 m 885 602 l 889 602 l 987 831 l 786 831 l 885 602 z "},"ѭ":{"ha":1215,"x_min":77,"x_max":1154,"o":"m 397 0 l 397 127 q 403 208 397 171 q 422 275 409 245 l 270 275 l 270 0 l 77 0 l 77 734 l 270 734 l 270 416 l 622 416 l 465 734 l 1097 734 l 937 411 q 1099 328 1043 396 q 1154 127 1154 259 l 1154 0 l 962 0 l 962 127 q 942 236 962 205 q 880 262 922 267 l 876 262 l 876 0 l 683 0 l 683 269 l 680 269 q 611 238 632 269 q 590 127 590 206 l 590 0 l 397 0 m 779 456 l 783 456 l 841 609 l 720 609 l 779 456 z "},"Ѯ":{"ha":614,"x_min":-8,"x_max":547,"o":"m 219 585 q 298 620 273 585 q 324 712 324 654 q 296 798 324 767 q 211 828 268 828 l 71 828 l 71 987 l 211 987 q 435 924 354 987 q 517 731 517 860 q 481 593 517 650 q 382 506 446 536 q 504 418 462 477 q 547 275 547 359 q 468 63 547 138 q 255 -13 389 -13 l 223 -13 q 180 -30 193 -13 q 167 -79 167 -47 q 190 -142 167 -117 q 245 -184 213 -167 l 193 -300 q 42 -213 92 -278 q -8 -51 -7 -149 q 49 96 -8 45 q 205 146 106 146 l 243 146 q 325 181 295 146 q 354 273 354 216 q 318 387 354 348 q 214 425 282 425 l 130 425 l 130 585 l 219 585 m 274 1211 l 334 1297 l 507 1297 l 507 1286 l 339 1114 l 209 1114 l 41 1287 l 41 1297 l 214 1297 l 274 1211 z "},"ѯ":{"ha":611,"x_min":12,"x_max":541,"o":"m 237 424 q 299 449 279 424 q 319 516 319 473 q 293 574 319 553 q 216 595 267 595 l 73 595 l 73 734 l 216 734 q 433 684 354 734 q 511 534 511 635 q 484 434 511 476 q 406 368 456 392 q 506 304 471 345 q 541 206 541 263 q 468 45 541 103 q 271 -13 395 -13 l 243 -13 q 192 -30 208 -13 q 176 -79 176 -47 q 195 -142 176 -117 q 242 -184 215 -167 l 191 -290 q 61 -199 110 -262 q 12 -51 12 -136 q 63 80 12 35 q 203 125 114 125 l 237 125 q 319 149 289 125 q 349 214 349 174 q 319 283 349 259 q 231 307 288 307 l 136 307 l 136 424 l 237 424 m 279 949 l 338 1036 l 512 1036 l 512 1024 l 344 852 l 214 852 l 45 1025 l 45 1036 l 219 1036 l 279 949 z "},"Ѳ":{"ha":824,"x_min":55,"x_max":744,"o":"m 744 355 q 650 83 744 181 q 399 -14 555 -14 q 149 83 242 -14 q 55 355 55 181 l 55 631 q 149 903 55 804 q 398 1002 242 1002 q 649 903 554 1002 q 744 631 744 804 l 744 355 m 552 437 l 246 437 l 246 355 q 285 194 246 248 q 399 140 323 140 q 513 194 473 140 q 552 355 552 248 l 552 437 m 246 556 l 552 556 l 552 633 q 513 792 552 739 q 398 846 473 846 q 284 793 322 846 q 246 633 246 739 l 246 556 z "},"ѳ":{"ha":674,"x_min":38,"x_max":634,"o":"m 38 412 q 116 653 38 559 q 336 747 195 747 q 555 653 477 747 q 634 412 634 559 l 634 321 q 555 79 634 172 q 336 -14 477 -14 q 116 79 195 -14 q 38 321 38 172 l 38 412 m 336 593 q 256 547 280 593 q 230 424 231 501 l 441 424 q 415 547 439 501 q 336 593 391 593 m 336 140 q 414 183 390 140 q 441 304 438 227 l 230 304 q 256 183 232 227 q 336 140 280 140 z "},"Ѵ":{"ha":773,"x_min":9,"x_max":751,"o":"m 379 255 l 387 218 l 391 218 l 397 253 l 506 767 q 589 942 537 884 q 727 1000 640 1000 l 751 1000 l 749 840 l 731 840 q 692 818 707 840 q 673 755 677 795 l 489 0 l 289 0 l 9 987 l 213 987 l 379 255 z "},"ѵ":{"ha":616,"x_min":10,"x_max":615,"o":"m 288 277 l 294 235 l 298 235 l 304 277 l 344 520 q 424 690 372 633 q 557 747 475 747 q 589 744 574 747 q 615 735 603 741 l 601 584 q 589 586 600 585 q 574 587 579 587 q 535 566 551 587 q 515 511 519 545 l 392 0 l 203 0 l 10 734 l 212 734 l 288 277 z "},"Ѻ":{"ha":824,"x_min":55,"x_max":744,"o":"m 744 355 q 650 83 744 181 q 474 -7 579 10 l 474 -92 l 353 -92 l 353 -12 q 149 83 228 1 q 55 355 55 181 l 55 631 q 149 903 55 804 q 351 999 227 986 l 351 1069 l 473 1069 l 473 996 q 649 903 578 977 q 744 631 744 804 l 744 355 m 552 633 q 513 792 552 739 q 473 828 496 815 l 473 759 l 351 759 l 351 840 q 284 793 309 828 q 246 633 246 739 l 246 355 q 285 194 246 248 q 353 146 311 158 l 353 224 l 474 224 l 474 159 q 513 194 496 172 q 552 355 552 248 l 552 633 z "},"ѻ":{"ha":676,"x_min":39,"x_max":635,"o":"m 397 -85 l 276 -85 l 276 -9 q 117 79 178 7 q 39 321 39 172 l 39 412 q 117 653 39 559 q 279 743 179 727 l 279 817 l 401 817 l 401 742 q 557 653 496 725 q 635 412 635 559 l 635 321 q 557 79 635 172 q 397 -9 495 6 l 397 -85 m 231 321 q 255 188 231 236 q 276 159 263 171 l 276 227 l 397 227 l 397 159 q 418 188 410 170 q 443 321 443 237 l 443 412 q 418 543 443 494 q 401 569 411 558 l 401 514 l 279 514 l 279 574 q 255 543 264 562 q 231 412 231 494 l 231 321 z "},"Ѽ":{"ha":1138,"x_min":68,"x_max":1050,"o":"m 755 981 l 759 983 q 969 899 888 985 q 1050 655 1050 813 l 1050 317 q 968 72 1050 159 q 755 -14 886 -14 q 644 9 694 -14 q 559 80 593 33 q 474 9 524 33 q 363 -14 424 -14 q 150 72 231 -14 q 68 317 68 159 l 68 655 q 149 899 68 813 q 359 983 231 985 l 363 981 l 363 833 q 288 788 315 833 q 261 655 261 744 l 261 317 q 288 184 261 228 q 363 140 315 140 q 441 182 414 140 q 468 313 468 224 l 468 559 l 650 559 l 650 313 q 677 182 650 224 q 755 140 704 140 q 830 184 803 140 q 858 317 858 228 l 858 655 q 830 788 858 744 q 755 833 803 833 l 755 981 m 819 1155 l 819 1069 l 807 1069 q 640 1111 734 1069 q 525 1154 547 1154 q 487 1135 501 1154 q 472 1080 472 1116 l 472 1068 l 390 1068 l 390 1093 q 425 1203 390 1166 q 523 1240 460 1240 q 653 1198 562 1240 q 808 1155 744 1155 l 819 1155 m 533 875 l 483 909 l 516 982 l 515 1082 l 625 1082 l 625 994 l 533 875 z "},"ѽ":{"ha":969,"x_min":62,"x_max":903,"o":"m 621 740 l 625 741 q 825 662 747 744 q 903 429 903 580 l 903 302 q 830 68 903 151 q 643 -14 758 -14 q 552 9 593 -14 q 482 77 511 32 q 412 9 453 32 q 322 -14 371 -14 q 134 68 205 -14 q 62 302 62 151 l 62 429 q 140 662 62 580 q 340 741 217 744 l 345 740 l 345 591 q 279 551 302 591 q 256 429 256 511 l 256 302 q 273 180 256 220 q 320 144 290 140 l 324 144 q 373 181 355 140 q 391 307 391 222 l 391 416 l 574 416 l 574 307 q 591 181 574 222 q 641 144 609 140 l 645 144 q 692 180 675 140 q 710 302 710 220 l 710 429 q 686 551 710 511 q 621 591 663 591 l 621 740 m 746 925 l 746 838 l 735 838 q 568 881 661 838 q 453 923 474 923 q 414 904 429 923 q 399 850 399 886 l 399 838 l 318 838 l 318 862 q 353 972 318 935 q 451 1010 387 1010 q 581 967 490 1010 q 735 925 672 925 l 746 925 m 452 663 l 399 702 l 444 769 l 443 845 l 564 838 l 562 766 l 452 663 z "},"Ѿ":{"ha":1139,"x_min":68,"x_max":1062,"o":"m 305 1145 l 305 1218 l 832 1218 l 833 1145 l 621 1145 l 621 1060 l 507 1060 l 507 1145 l 305 1145 m 1062 987 l 1062 313 q 980 71 1062 156 q 766 -14 899 -14 q 651 12 703 -14 q 565 87 600 37 q 478 12 530 37 q 363 -14 427 -14 q 150 71 231 -14 q 68 313 68 156 l 68 987 l 261 987 l 261 313 q 288 182 261 225 q 363 140 315 140 q 441 182 414 140 q 468 313 468 224 l 468 987 l 662 987 l 662 313 q 689 182 662 225 q 766 140 717 140 q 843 182 816 140 q 869 313 869 224 l 869 987 l 1062 987 z "},"ѿ":{"ha":983,"x_min":54,"x_max":945,"o":"m 260 915 l 260 988 l 742 988 l 745 915 l 552 915 l 552 829 l 439 829 l 439 915 l 260 915 m 945 734 l 945 307 q 872 69 945 153 q 678 -14 799 -14 q 576 8 622 -14 q 500 76 531 31 q 422 8 469 31 q 320 -14 376 -14 q 127 69 199 -14 q 54 307 54 153 l 54 734 l 247 734 l 247 307 q 265 181 247 221 q 318 144 283 140 l 322 144 q 385 181 363 140 q 406 307 406 221 l 406 734 l 599 734 l 599 307 q 617 180 599 220 q 676 144 636 140 l 680 144 q 734 180 717 140 q 752 307 752 220 l 752 734 l 945 734 z "},"Ҁ":{"ha":739,"x_min":52,"x_max":690,"o":"m 502 -244 l 309 -244 l 309 -7 q 121 126 190 18 q 52 395 52 235 l 52 592 q 141 888 52 774 q 377 1002 229 1002 q 609 915 529 1002 q 688 664 690 828 l 686 661 l 498 661 q 471 803 498 759 q 377 847 444 847 q 277 778 311 847 q 244 593 244 709 l 244 395 q 278 209 244 279 q 377 140 311 140 l 502 140 l 502 -244 z "},"ҁ":{"ha":642,"x_min":51,"x_max":602,"o":"m 470 -245 l 277 -245 l 277 -7 q 109 115 168 17 q 51 357 51 214 l 51 376 q 126 643 51 539 q 343 747 202 747 q 531 671 461 747 q 600 464 602 594 l 598 460 l 422 460 q 403 556 422 520 q 343 593 383 593 q 265 534 287 593 q 243 376 243 475 l 243 357 q 265 198 243 256 q 344 140 286 140 l 470 140 l 470 -245 z "},"҂":{"ha":745,"x_min":63,"x_max":679,"o":"m 353 302 l 519 186 l 475 102 l 309 218 l 205 0 l 100 0 l 229 270 l 63 386 l 106 469 l 274 353 l 388 601 l 221 717 l 265 802 l 432 686 l 536 910 l 640 910 l 511 633 l 679 517 l 633 435 l 468 550 l 353 302 z "},"҃":{"ha":11,"x_min":-520,"x_max":-92,"o":"m -410 892 l -410 807 l -520 808 l -519 966 l -201 966 l -201 1039 l -92 1038 l -92 892 l -410 892 z "},"҄":{"ha":11,"x_min":-513,"x_max":-71,"o":"m -502 970 q -342 1013 -437 970 q -208 1056 -248 1056 q -106 1019 -142 1056 q -71 908 -71 981 l -71 884 l -155 884 l -155 896 q -170 950 -155 931 q -210 969 -185 969 q -329 927 -232 969 q -500 884 -425 884 l -513 884 l -513 970 l -502 970 z "},"҅":{"ha":11,"x_min":-341,"x_max":-194,"o":"m -341 1017 l -341 1116 l -227 1116 l -227 1006 l -194 932 l -243 888 l -341 1017 z "},"҆":{"ha":11,"x_min":-338,"x_max":-191,"o":"m -288 888 l -338 932 l -305 1006 l -306 1116 l -191 1116 l -191 1017 l -288 888 z "},"҈":{"ha":0,"x_min":-900,"x_max":214,"o":"m -466 859 l -468 863 q -438 952 -470 917 q -351 987 -406 987 q -263 951 -296 987 q -233 863 -231 916 l -235 859 l -294 859 q -308 908 -294 888 q -351 928 -321 928 q -393 908 -379 928 q -407 859 -407 888 l -466 859 m -127 671 l -129 675 q -99 764 -131 729 q -12 799 -66 799 q 75 764 43 799 q 105 675 107 728 l 103 671 l 44 671 q 31 720 44 701 q -12 740 18 740 q -54 720 -40 740 q -67 671 -67 701 l -127 671 m -20 330 l -22 334 q 8 423 -24 388 q 94 458 39 458 q 181 423 149 458 q 212 334 214 388 l 210 330 l 151 330 q 137 379 151 360 q 94 399 123 399 q 53 379 66 399 q 39 330 39 359 l -20 330 m -133 -22 l -135 -18 q -104 71 -137 35 q -18 106 -72 106 q 69 71 37 106 q 98 -18 100 36 l 96 -22 l 39 -22 q 25 27 39 7 q -18 47 12 47 q -60 27 -46 47 q -73 -22 -73 7 l -133 -22 m -463 -214 l -465 -210 q -435 -121 -467 -156 q -349 -87 -404 -87 q -260 -121 -292 -87 q -231 -210 -228 -156 l -233 -214 l -292 -214 q -305 -165 -292 -184 q -349 -146 -319 -146 q -390 -165 -376 -146 q -404 -214 -404 -184 l -463 -214 m -795 671 l -797 675 q -767 764 -799 729 q -680 799 -734 799 q -591 764 -624 799 q -562 675 -559 728 l -564 671 l -623 671 q -636 721 -623 701 q -680 740 -650 740 q -722 720 -708 740 q -735 671 -735 701 l -795 671 m -896 330 l -898 334 q -868 422 -900 387 q -781 458 -836 458 q -693 423 -725 458 q -663 334 -661 388 l -665 330 l -724 330 q -738 379 -724 359 q -781 399 -751 399 q -823 379 -809 399 q -836 330 -836 359 l -896 330 m -801 -22 l -803 -18 q -772 71 -805 35 q -686 106 -740 106 q -597 71 -629 106 q -568 -18 -565 36 l -570 -22 l -629 -22 q -642 27 -629 8 q -686 47 -656 47 q -727 27 -713 47 q -741 -22 -741 7 l -801 -22 z "},"҉":{"ha":0,"x_min":-880,"x_max":184,"o":"m -290 -41 l -284 -50 l -354 -280 l -409 -280 l -369 -41 l -290 -41 m -402 764 l -409 773 l -339 1002 l -284 1002 l -324 764 l -402 764 m -14 428 l -6 436 l 184 352 l 184 286 l -14 334 l -14 428 m -682 294 l -688 286 l -880 370 l -880 436 l -682 388 l -682 294 m -151 680 l -150 690 l 33 794 l 72 748 q -96 612 51 732 l -151 680 m -543 14 l -545 3 l -728 -101 l -768 -54 l -599 81 l -543 14 m -624 583 l -633 585 l -718 806 l -682 852 l -568 650 l -624 583 m -72 109 l -62 108 l 22 -113 l -14 -161 l -127 42 l -72 109 z "},"ҍ":{"ha":674,"x_min":-8,"x_max":648,"o":"m 401 868 l 267 868 l 267 532 l 367 532 q 572 459 497 532 q 648 267 648 386 q 572 74 648 147 q 367 0 497 0 l 74 0 l 74 868 l -8 868 l -8 987 l 74 987 l 74 1093 l 267 1093 l 267 987 l 401 987 l 401 868 m 267 379 l 267 153 l 367 153 q 434 184 412 153 q 456 267 456 216 q 434 347 456 315 q 367 379 412 379 l 267 379 z "},"Ҏ":{"ha":749,"x_min":75,"x_max":737,"o":"m 269 354 l 269 0 l 75 0 l 75 987 l 418 987 q 652 900 566 987 q 737 671 737 812 q 651 441 737 528 q 643 433 647 437 l 715 345 l 654 287 l 574 386 q 418 354 507 354 l 269 354 m 269 509 l 418 509 q 467 517 446 509 l 387 617 l 448 675 l 527 578 q 545 669 545 616 q 513 786 545 740 q 418 833 481 833 l 269 833 l 269 509 z "},"ҏ":{"ha":673,"x_min":62,"x_max":637,"o":"m 637 311 q 574 75 637 164 l 570 70 l 625 -2 l 562 -58 l 508 14 q 395 -14 460 -14 q 316 4 351 -14 q 255 57 281 22 l 255 -282 l 62 -282 l 62 734 l 241 734 l 248 661 q 310 725 274 703 q 394 747 347 747 q 574 652 510 747 q 637 401 637 557 l 637 311 m 445 401 q 420 540 445 488 q 344 593 396 593 q 291 577 313 593 q 255 534 269 562 l 255 189 q 291 152 269 164 q 345 140 313 140 q 400 157 378 140 l 328 255 l 389 311 l 439 243 q 445 311 445 273 l 445 401 z "},"Ґ":{"ha":667,"x_min":74,"x_max":640,"o":"m 640 833 l 630 833 l 630 833 l 267 833 l 267 0 l 74 0 l 74 987 l 448 987 l 448 1243 l 640 1243 l 640 833 z "},"ґ":{"ha":562,"x_min":59,"x_max":524,"o":"m 524 580 l 494 580 l 494 579 l 252 579 l 252 0 l 59 0 l 59 734 l 332 734 l 332 951 l 524 951 l 524 580 z "},"Ҕ":{"ha":661,"x_min":75,"x_max":712,"o":"m 631 833 l 269 833 l 269 567 l 363 567 q 618 467 524 567 q 712 169 712 366 q 634 -112 712 5 q 390 -226 557 -229 l 386 -224 l 385 -85 q 494 -15 469 -85 q 519 159 519 55 q 480 349 519 286 q 363 412 440 412 l 269 412 l 269 0 l 75 0 l 75 987 l 631 987 l 631 833 z "},"ҕ":{"ha":644,"x_min":59,"x_max":602,"o":"m 494 579 l 252 579 l 252 450 l 267 450 q 509 366 419 450 q 600 121 600 283 q 546 -59 602 32 q 388 -193 490 -149 l 303 -66 q 379 12 351 -34 q 407 121 407 57 q 371 251 407 208 q 267 294 334 294 l 252 294 l 252 0 l 59 0 l 59 734 l 494 734 l 494 579 z "},"Ҝ":{"ha":800,"x_min":74,"x_max":816,"o":"m 795 987 l 579 548 l 816 0 l 569 0 l 432 408 l 410 408 l 410 249 l 306 249 l 306 408 l 267 408 l 267 0 l 74 0 l 74 987 l 267 987 l 267 583 l 306 583 l 306 760 l 410 760 l 410 583 l 425 583 l 556 987 l 795 987 z "},"ҝ":{"ha":739,"x_min":74,"x_max":735,"o":"m 730 734 l 568 397 l 735 0 l 489 0 l 416 273 l 397 273 l 397 154 l 304 154 l 304 273 l 267 273 l 267 0 l 74 0 l 74 734 l 267 734 l 267 456 l 304 456 l 304 588 l 397 588 l 397 456 l 420 456 l 487 734 l 730 734 z "},"Ҡ":{"ha":987,"x_min":20,"x_max":1001,"o":"m 571 410 l 487 410 l 487 0 l 294 0 l 294 833 l 20 833 l 20 987 l 487 987 l 487 586 l 549 586 l 742 987 l 979 987 l 709 536 l 1001 0 l 766 0 l 571 410 z "},"ҡ":{"ha":868,"x_min":39,"x_max":876,"o":"m 509 273 l 456 273 l 456 0 l 264 0 l 264 579 l 39 579 l 39 734 l 456 734 l 456 456 l 507 456 l 616 734 l 859 734 l 668 397 l 876 0 l 618 0 l 509 273 z "},"Ҥ":{"ha":1165,"x_min":75,"x_max":1114,"o":"m 268 563 l 574 563 l 574 987 l 1114 987 l 1114 833 l 768 833 l 767 834 l 767 0 l 574 0 l 574 409 l 268 409 l 268 0 l 75 0 l 75 987 l 268 987 l 268 563 z "},"ҥ":{"ha":836,"x_min":58,"x_max":798,"o":"m 251 438 l 422 438 l 422 734 l 798 734 l 798 580 l 615 580 l 615 0 l 422 0 l 422 285 l 251 285 l 251 0 l 58 0 l 58 734 l 251 734 l 251 438 z "},"Ҧ":{"ha":1248,"x_min":76,"x_max":1205,"o":"m 769 566 l 856 566 q 1111 465 1017 566 q 1205 168 1205 365 q 1127 -113 1205 4 q 883 -227 1050 -230 l 879 -226 l 878 -87 q 987 -17 962 -87 q 1013 157 1013 54 q 973 348 1013 285 q 856 410 933 410 l 769 410 l 769 0 l 576 0 l 576 833 l 269 833 l 269 0 l 76 0 l 76 987 l 769 987 l 769 566 z "},"ҧ":{"ha":1031,"x_min":58,"x_max":1004,"o":"m 616 455 l 656 455 q 908 372 814 455 q 1002 125 1002 288 q 948 -54 1004 37 q 790 -187 892 -144 l 705 -62 q 782 17 754 -28 q 810 125 809 62 q 769 256 809 212 q 656 300 730 300 l 616 300 l 616 0 l 423 0 l 423 579 l 251 579 l 251 0 l 58 0 l 58 734 l 616 734 l 616 455 z "},"Ҩ":{"ha":969,"x_min":57,"x_max":907,"o":"m 907 -10 q 782 1 842 -10 q 669 36 722 13 q 573 -2 625 11 q 467 -14 522 -14 q 171 118 286 -14 q 57 449 57 250 l 57 593 q 141 884 57 768 q 359 996 226 1000 l 363 995 l 363 841 q 288 771 315 841 q 261 595 261 702 l 261 449 q 316 230 261 315 q 467 146 371 146 q 486 146 476 146 q 507 149 496 147 q 413 303 446 215 q 380 493 380 391 l 380 630 q 450 895 380 789 q 630 1000 519 1000 q 827 888 751 1000 q 902 598 902 776 l 902 479 q 876 299 902 383 q 801 151 849 216 q 851 141 825 144 q 907 138 878 138 l 907 -10 m 562 492 q 583 356 562 418 q 644 252 604 294 l 648 252 q 692 351 676 292 q 709 479 709 410 l 709 621 q 689 789 709 739 q 632 835 669 840 l 628 835 q 579 788 596 839 q 562 631 562 738 l 562 492 z "},"ҩ":{"ha":788,"x_min":48,"x_max":751,"o":"m 751 -18 q 639 -9 691 -18 q 544 16 587 0 q 470 -6 509 1 q 390 -14 431 -14 q 143 91 238 -14 q 48 356 48 196 l 48 425 q 120 655 48 564 q 305 743 192 746 l 309 741 l 309 588 q 267 539 281 583 q 252 427 252 496 l 252 356 q 287 209 252 267 q 375 157 321 152 l 379 159 q 340 245 353 193 q 327 357 327 296 l 327 464 q 383 666 327 585 q 530 747 439 747 q 683 657 624 747 q 743 433 743 568 l 743 332 q 721 204 743 263 q 659 98 699 144 q 702 91 679 93 q 751 88 725 88 l 751 -18 m 551 342 l 551 445 q 539 546 551 506 q 509 582 527 586 l 505 582 q 475 549 487 586 q 463 457 463 513 l 463 348 q 473 269 463 306 q 504 207 484 233 l 508 207 q 539 263 528 228 q 551 342 551 299 z "},"Ҵ":{"ha":1069,"x_min":24,"x_max":1021,"o":"m 209 833 l 24 833 l 24 987 l 577 987 l 577 833 l 401 833 l 401 154 l 708 154 l 708 987 l 901 987 l 901 153 l 1021 153 l 1008 -238 l 829 -238 l 829 0 l 209 0 l 209 833 z "},"ҵ":{"ha":828,"x_min":35,"x_max":807,"o":"m 147 579 l 35 579 l 35 734 l 440 734 l 440 579 l 340 579 l 340 154 l 512 154 l 512 734 l 705 734 l 705 153 l 807 153 l 794 -218 l 614 -218 l 614 0 l 147 0 l 147 579 z "},"Ҹ":{"ha":815,"x_min":60,"x_max":739,"o":"m 739 987 l 739 0 l 546 0 l 546 381 q 494 371 522 375 l 494 200 l 390 200 l 390 362 q 148 442 235 363 q 60 688 60 522 l 60 987 l 252 987 l 252 688 q 285 553 252 591 q 390 516 317 517 l 390 717 l 494 717 l 494 524 q 546 535 522 529 l 546 987 l 739 987 z "},"ҹ":{"ha":673,"x_min":58,"x_max":614,"o":"m 614 0 l 420 0 l 420 232 q 387 226 403 228 l 386 226 l 386 121 l 282 121 l 282 229 q 135 292 191 243 q 58 506 58 361 l 58 734 l 250 734 l 250 506 q 273 405 250 432 q 282 397 277 401 l 282 563 l 386 563 l 386 380 q 388 380 387 380 q 420 387 404 382 l 420 734 l 614 734 l 614 0 z "},"Һ":{"ha":844,"x_min":73,"x_max":752,"o":"m 73 0 l 73 987 l 266 987 l 266 606 q 345 620 300 614 q 418 625 389 625 q 664 545 575 625 q 752 300 752 465 l 752 0 l 560 0 l 560 300 q 526 433 560 395 q 418 471 492 471 q 344 466 388 471 q 266 452 300 460 l 266 0 l 73 0 z "},"Ҽ":{"ha":901,"x_min":-16,"x_max":846,"o":"m 559 -16 q 269 100 370 -16 q 169 409 169 216 l 169 449 q 32 541 79 467 q -16 733 -16 614 l 109 733 q 124 643 109 680 q 169 591 139 607 q 270 885 170 770 q 517 1000 370 1000 q 762 877 677 1000 q 846 539 846 754 l 846 433 l 361 433 l 361 409 q 408 221 361 291 q 559 151 454 151 q 675 164 623 151 q 765 198 727 178 l 795 42 q 709 4 774 23 q 559 -16 644 -16 m 517 833 q 402 764 442 833 q 361 587 361 694 l 653 587 l 653 609 q 622 773 653 712 q 517 833 590 833 z "},"ҽ":{"ha":716,"x_min":-42,"x_max":689,"o":"m 435 -14 q 216 77 297 -14 q 134 306 134 168 l 134 320 q 4 408 50 339 q -42 586 -42 477 l 73 586 q 89 502 73 536 q 136 451 104 467 q 221 665 146 583 q 419 747 295 747 q 618 661 548 747 q 689 427 689 575 l 689 309 l 326 309 l 326 306 q 359 186 326 233 q 458 140 392 140 q 547 152 513 140 q 627 193 581 164 l 676 70 q 575 9 638 33 q 435 -14 511 -14 m 419 593 q 351 551 373 593 q 327 437 330 509 l 500 437 l 500 465 q 481 559 500 526 q 419 593 462 593 z "},"Ӄ":{"ha":783,"x_min":74,"x_max":759,"o":"m 487 556 q 687 435 614 534 q 759 165 759 336 q 681 -116 759 1 q 436 -231 604 -233 l 432 -229 l 432 -90 q 541 -19 516 -90 q 566 155 566 51 q 527 345 566 282 q 410 408 487 408 l 267 408 l 267 0 l 74 0 l 74 987 l 267 987 l 267 585 l 315 585 l 499 987 l 739 987 l 487 556 z "},"ӄ":{"ha":696,"x_min":74,"x_max":669,"o":"m 476 402 q 614 294 564 369 q 663 103 663 218 q 609 -74 665 15 q 451 -207 553 -163 l 366 -81 q 442 -4 414 -49 q 471 103 470 41 q 435 226 471 184 q 334 273 400 268 l 267 273 l 267 0 l 74 0 l 74 734 l 267 734 l 267 456 l 311 456 l 425 734 l 669 734 l 476 402 z "},"Ӈ":{"ha":843,"x_min":75,"x_max":767,"o":"m 268 987 l 268 563 l 575 563 l 575 987 l 767 987 l 767 -22 q 706 -225 767 -153 q 536 -296 644 -296 q 492 -293 512 -296 q 448 -284 471 -290 l 456 -134 q 484 -140 471 -138 q 513 -142 496 -142 q 559 -111 543 -142 q 575 -22 575 -80 l 575 409 l 268 409 l 268 0 l 75 0 l 75 987 l 268 987 z "},"ӈ":{"ha":675,"x_min":59,"x_max":615,"o":"m 252 734 l 252 438 l 422 438 l 422 734 l 615 734 l 615 -22 q 554 -225 615 -153 q 385 -296 492 -296 q 340 -293 360 -296 q 296 -284 319 -290 l 304 -134 q 332 -140 319 -138 q 361 -142 345 -142 q 406 -111 390 -142 q 422 -22 422 -80 l 422 285 l 252 285 l 252 0 l 59 0 l 59 734 l 252 734 z "},"Ә":{"ha":826,"x_min":43,"x_max":768,"o":"m 353 1002 q 661 878 553 1002 q 768 549 768 753 l 768 438 q 664 113 768 240 q 407 -14 560 -14 q 136 108 230 -14 q 43 446 43 231 l 43 553 l 576 553 q 522 758 574 680 q 353 835 470 835 q 230 821 285 835 q 135 787 174 807 l 106 943 q 196 982 128 962 q 353 1002 264 1002 m 407 152 q 524 220 481 152 q 574 399 567 289 l 235 399 l 235 376 q 275 213 235 273 q 407 152 315 152 z "},"ә":{"ha":636,"x_min":47,"x_max":602,"o":"m 300 748 q 520 647 438 748 q 602 390 602 545 l 602 362 q 526 91 602 196 q 316 -13 450 -14 q 117 75 186 -13 q 47 316 47 163 l 47 425 l 407 425 q 368 547 400 500 q 277 594 335 594 q 188 582 222 594 q 108 541 154 569 l 58 664 q 160 724 96 699 q 300 748 224 748 m 316 140 q 378 182 357 140 q 406 296 399 223 l 235 296 l 235 278 q 254 176 235 212 q 316 140 273 140 z "},"Ӡ":{"ha":691,"x_min":48,"x_max":661,"o":"m 643 987 l 644 860 l 435 587 q 602 484 543 564 q 661 275 661 404 q 574 63 661 140 q 346 -14 486 -14 q 136 58 223 -14 q 52 270 48 131 l 53 274 l 241 274 q 269 177 241 215 q 346 140 297 140 q 435 178 402 140 q 469 278 469 217 q 431 422 469 377 q 319 467 393 467 l 240 467 l 240 588 l 422 833 l 87 833 l 87 987 l 643 987 z "},"ӡ":{"ha":691,"x_min":48,"x_max":661,"o":"m 420 579 l 82 579 l 82 734 l 643 734 l 644 606 l 437 333 q 603 230 545 310 q 661 21 661 150 q 574 -191 661 -113 q 346 -268 486 -268 q 136 -195 224 -268 q 52 16 48 -122 l 53 20 l 241 20 q 269 -75 241 -37 q 346 -113 297 -113 q 435 -74 402 -113 q 469 24 469 -35 q 432 169 469 124 q 321 214 395 214 l 240 214 l 240 334 l 420 579 z "},"Ӻ":{"ha":726,"x_min":38,"x_max":690,"o":"m 690 833 l 327 833 l 327 0 l 134 0 l 134 987 l 690 987 l 690 833 m 432 455 l 38 455 l 38 574 l 432 574 l 432 455 m 507 175 l 507 -22 q 446 -225 507 -154 q 277 -296 385 -296 q 233 -293 253 -296 q 190 -284 214 -290 l 198 -132 q 226 -139 214 -136 q 254 -141 239 -141 q 298 -111 283 -141 q 314 -22 314 -81 l 314 175 l 507 175 z "},"ӻ":{"ha":510,"x_min":26,"x_max":545,"o":"m 545 579 l 303 579 l 303 0 l 111 0 l 111 734 l 545 734 l 545 579 m 420 335 l 26 335 l 26 454 l 420 454 l 420 335 m 457 171 l 457 -26 q 396 -229 457 -158 q 227 -300 335 -300 q 183 -297 203 -300 q 140 -288 163 -294 l 148 -136 q 176 -143 163 -140 q 203 -145 189 -145 q 248 -115 233 -145 q 264 -26 264 -85 l 264 171 l 457 171 z "},"Ԁ":{"ha":760,"x_min":48,"x_max":690,"o":"m 498 643 l 498 987 l 690 987 l 690 0 l 372 0 q 137 90 225 0 q 48 322 48 180 q 137 553 48 463 q 372 643 225 643 l 498 643 m 498 154 l 498 489 l 372 489 q 276 441 310 489 q 241 323 241 393 q 275 203 241 252 q 372 154 309 154 l 498 154 z "},"Ԃ":{"ha":1108,"x_min":76,"x_max":1046,"o":"m 401 0 q 165 90 254 0 q 76 322 76 180 q 164 553 76 463 q 401 643 253 643 l 526 643 l 526 987 l 718 987 l 718 154 l 751 154 q 824 189 798 155 q 852 286 850 224 q 844 394 853 337 q 819 505 836 450 l 1007 505 q 1036 384 1026 434 q 1045 286 1046 334 q 958 74 1043 148 q 751 0 873 0 l 401 0 m 526 154 l 526 489 l 401 489 q 303 440 338 489 q 269 323 269 392 q 303 203 269 252 q 401 154 338 154 l 526 154 z "},"ԃ":{"ha":1011,"x_min":54,"x_max":971,"o":"m 54 363 q 118 642 54 536 q 297 747 181 747 q 368 730 336 747 q 426 682 400 713 l 426 1058 l 618 1058 l 618 255 q 633 173 618 203 q 675 142 648 142 q 749 200 723 142 q 778 359 775 257 q 770 494 779 425 q 744 631 761 562 l 932 632 q 961 485 951 548 q 970 359 971 421 q 884 82 968 179 q 675 -14 799 -14 q 544 13 597 -15 q 460 100 490 40 q 391 15 431 45 q 296 -14 350 -14 q 117 85 180 -14 q 54 349 54 184 l 54 363 m 426 547 q 391 581 410 569 q 348 593 371 593 q 271 530 294 593 q 247 363 247 467 l 247 349 q 270 195 247 250 q 347 140 292 140 q 395 153 374 140 q 433 189 417 165 q 428 222 429 205 q 426 255 426 238 l 426 547 z "},"Ԅ":{"ha":937,"x_min":45,"x_max":883,"o":"m 366 262 q 337 369 366 328 q 260 410 308 410 l 117 410 l 117 566 l 224 566 q 331 601 299 566 q 363 709 363 635 q 334 799 363 768 q 239 831 304 831 l 45 831 l 45 987 l 239 987 q 474 916 393 987 q 555 708 555 844 q 513 571 555 629 q 391 481 471 513 q 520 402 480 458 q 559 263 559 347 l 559 216 q 567 163 559 183 q 589 146 575 142 l 593 146 q 662 201 637 144 q 690 359 687 258 q 681 495 690 426 q 654 632 672 564 l 844 632 q 873 478 864 537 q 882 359 883 420 q 792 83 880 180 q 580 -14 705 -14 q 426 39 481 -16 q 366 216 372 95 l 366 262 z "},"ԅ":{"ha":765,"x_min":31,"x_max":760,"o":"m 471 176 q 476 125 470 143 q 498 111 483 107 l 502 111 q 547 155 530 109 q 566 284 564 201 q 558 392 567 336 q 533 500 549 448 l 720 500 q 750 382 739 433 q 759 284 760 332 q 686 60 757 138 q 511 -18 616 -18 q 340 19 397 -20 q 277 145 284 57 l 277 196 q 267 249 277 230 q 235 267 256 267 l 81 267 l 79 412 l 182 412 q 237 432 220 412 q 254 490 254 452 q 237 555 254 530 q 184 579 220 579 l 34 579 l 31 734 l 184 734 q 378 676 309 734 q 446 515 446 618 q 423 424 446 463 q 355 361 400 386 q 444 305 416 345 q 471 208 471 265 l 471 176 z "},"Ԇ":{"ha":719,"x_min":39,"x_max":685,"o":"m 685 2 l 587 -209 l 474 -209 l 513 0 l 384 0 q 354 71 360 22 q 348 170 348 120 l 348 237 q 318 353 348 312 q 231 393 288 393 l 69 393 l 68 547 l 221 547 q 310 583 279 547 q 340 686 340 619 q 310 793 340 753 q 222 833 280 833 l 43 833 l 39 987 l 222 987 q 450 910 367 987 q 533 696 533 833 q 498 563 533 619 q 397 474 464 507 q 507 388 473 448 q 541 239 541 328 l 541 169 l 541 164 l 685 164 l 685 2 z "},"ԇ":{"ha":690,"x_min":67,"x_max":666,"o":"m 666 -5 l 568 -216 l 455 -216 l 495 0 l 353 0 q 342 44 345 12 q 340 106 340 76 l 340 155 q 316 236 340 208 q 245 263 292 263 l 94 263 l 93 395 l 244 395 q 306 418 283 395 q 329 484 329 442 q 306 553 329 525 q 244 581 283 581 l 74 581 l 67 734 l 244 734 q 447 670 370 734 q 523 498 523 606 q 499 402 523 444 q 429 332 475 360 q 508 264 484 309 q 533 157 532 220 l 666 157 l 666 -5 z "},"Ԉ":{"ha":1145,"x_min":42,"x_max":1118,"o":"m 765 987 l 765 255 q 779 173 764 203 q 821 142 794 142 q 895 200 869 142 q 924 359 922 257 q 916 493 925 425 q 890 631 907 562 l 1079 632 q 1108 483 1098 546 q 1117 359 1118 420 q 1030 82 1115 179 q 821 -14 945 -14 q 642 49 705 -16 q 572 255 578 114 l 572 831 l 381 831 l 381 521 q 310 125 381 251 q 73 0 239 0 l 42 0 l 42 156 l 66 156 q 159 241 130 156 q 188 521 188 326 l 188 987 l 765 987 z "},"ԉ":{"ha":1022,"x_min":40,"x_max":966,"o":"m 627 734 l 627 255 q 645 173 627 203 q 696 142 663 142 q 751 192 731 142 q 772 328 770 241 q 764 456 773 391 q 739 587 755 521 l 926 587 q 956 443 946 500 q 966 328 966 386 q 886 74 963 163 q 696 -14 808 -14 q 508 49 575 -16 q 435 255 441 114 l 435 576 l 347 576 l 347 422 q 287 103 347 206 q 85 0 227 0 l 40 0 l 43 165 l 66 165 q 135 225 114 165 q 155 422 155 286 l 155 734 l 627 734 z "},"Ԋ":{"ha":1185,"x_min":73,"x_max":1125,"o":"m 771 987 l 771 255 q 786 173 770 203 q 828 142 801 142 q 902 200 876 142 q 931 359 928 257 q 923 493 932 425 q 897 631 914 562 l 1085 632 q 1115 483 1105 546 q 1124 359 1125 420 q 1036 82 1121 179 q 828 -14 951 -14 q 649 49 712 -16 q 578 255 585 114 l 578 409 l 266 409 l 266 0 l 73 0 l 73 987 l 266 987 l 266 563 l 578 563 l 578 987 l 771 987 z "},"ԋ":{"ha":979,"x_min":48,"x_max":952,"o":"m 420 292 l 241 292 l 241 0 l 48 0 l 48 734 l 241 734 l 241 447 l 420 447 l 420 734 l 614 734 l 614 255 q 631 173 612 203 q 682 142 649 142 q 737 192 718 142 q 759 328 757 241 q 751 456 760 391 q 724 587 742 522 l 913 587 q 943 441 933 497 q 951 328 952 386 q 872 74 949 163 q 682 -14 795 -14 q 494 49 560 -16 q 420 255 427 114 l 420 292 z "},"Ԍ":{"ha":759,"x_min":39,"x_max":722,"o":"m 408 -14 q 141 104 244 -14 q 39 405 39 222 l 39 583 q 141 883 39 764 q 408 1002 244 1002 q 526 986 474 1002 q 617 942 577 971 l 578 799 q 498 833 540 821 q 408 845 456 845 q 280 770 328 845 q 232 584 232 694 l 232 405 q 280 217 232 292 q 408 142 328 142 q 496 183 465 142 q 530 298 527 224 q 522 411 530 352 q 500 533 514 469 l 688 533 q 716 384 710 419 q 722 298 722 349 q 630 66 720 146 q 408 -14 541 -14 z "},"ԍ":{"ha":639,"x_min":39,"x_max":608,"o":"m 360 142 q 402 163 390 142 q 415 224 414 183 q 412 295 415 258 q 405 364 410 331 l 593 364 q 604 288 600 322 q 608 224 608 254 q 538 46 606 107 q 360 -14 470 -14 q 124 92 210 -14 q 39 353 39 198 l 39 381 q 121 641 39 534 q 348 747 204 747 q 443 735 401 747 q 512 703 485 724 l 484 552 q 422 581 457 570 q 348 591 388 591 q 261 528 290 591 q 231 381 231 465 l 231 353 q 263 204 231 267 q 360 142 295 142 z "},"Ԏ":{"ha":840,"x_min":23,"x_max":806,"o":"m 260 831 l 23 831 l 23 987 l 684 987 l 684 831 l 453 831 l 453 255 q 467 173 452 203 q 509 142 482 142 q 584 200 557 142 q 612 359 610 258 q 604 493 613 425 q 578 631 595 562 l 766 632 q 796 486 785 550 q 805 359 806 421 q 718 82 802 179 q 509 -14 633 -14 q 330 49 393 -16 q 260 255 267 114 l 260 831 z "},"ԏ":{"ha":758,"x_min":43,"x_max":729,"o":"m 198 578 l 43 578 l 43 734 l 563 734 l 563 578 l 390 578 l 390 255 q 408 173 389 203 q 458 142 426 142 q 513 181 493 142 q 535 289 533 220 q 527 388 536 336 q 500 488 517 439 l 689 488 q 719 378 709 422 q 728 289 729 333 q 648 64 725 142 q 458 -14 570 -14 q 270 49 336 -16 q 198 255 204 114 l 198 578 z "},"Ԑ":{"ha":780,"x_min":62,"x_max":737,"o":"m 62 275 q 102 419 62 360 q 217 507 142 478 q 113 595 151 539 q 75 720 75 652 q 165 928 75 855 q 411 1002 256 1002 q 634 925 543 1002 q 723 725 726 848 l 722 721 l 534 721 q 499 812 534 778 q 411 847 464 847 q 304 810 340 847 q 268 718 268 774 q 300 615 268 651 q 399 578 332 578 l 515 578 l 515 429 l 399 429 q 291 393 327 429 q 256 278 256 357 q 297 178 256 217 q 411 140 338 140 q 508 178 469 140 q 546 274 546 216 l 733 274 l 734 270 q 640 58 737 131 q 411 -14 543 -14 q 159 63 255 -14 q 62 275 62 140 z "}," ":{"ha":610,"x_min":0,"x_max":0,"o":""}," ":{"ha":1209,"x_min":0,"x_max":0,"o":""}," ":{"ha":610,"x_min":0,"x_max":0,"o":""}," ":{"ha":1209,"x_min":0,"x_max":0,"o":""}," ":{"ha":411,"x_min":0,"x_max":0,"o":""}," ":{"ha":311,"x_min":0,"x_max":0,"o":""}," ":{"ha":210,"x_min":0,"x_max":0,"o":""}," ":{"ha":671,"x_min":0,"x_max":0,"o":""}," ":{"ha":332,"x_min":0,"x_max":0,"o":""}," ":{"ha":251,"x_min":0,"x_max":0,"o":""}," ":{"ha":131,"x_min":0,"x_max":0,"o":""},"​":{"ha":11,"x_min":0,"x_max":0,"o":""},"–":{"ha":822,"x_min":102,"x_max":724,"o":"m 724 407 l 102 407 l 102 563 l 724 563 l 724 407 z "},"—":{"ha":970,"x_min":104,"x_max":869,"o":"m 869 407 l 104 407 l 104 563 l 869 563 l 869 407 z "},"‗":{"ha":532,"x_min":1,"x_max":526,"o":"m 526 -326 l 1 -326 l 1 -177 l 526 -177 l 526 -326 m 526 -149 l 1 -149 l 1 0 l 526 0 l 526 -149 z "},"‘":{"ha":248,"x_min":28,"x_max":220,"o":"m 28 823 l 127 1058 l 220 1058 l 186 826 l 186 694 l 28 694 l 28 823 z "},"’":{"ha":248,"x_min":33,"x_max":225,"o":"m 225 928 l 126 694 l 33 694 l 66 928 l 66 1058 l 225 1058 l 225 928 z "},"‚":{"ha":249,"x_min":28,"x_max":222,"o":"m 222 16 l 132 -174 l 28 -174 l 63 7 l 63 200 l 222 200 l 222 16 z "},"‛":{"ha":266,"x_min":42,"x_max":234,"o":"m 42 928 l 141 694 l 234 694 l 201 928 l 201 1058 l 42 1058 l 42 928 z "},"“":{"ha":452,"x_min":28,"x_max":424,"o":"m 28 823 l 127 1058 l 220 1058 l 186 826 l 186 694 l 28 694 l 28 823 m 232 823 l 331 1058 l 424 1058 l 390 826 l 390 694 l 232 694 l 232 823 z "},"”":{"ha":458,"x_min":29,"x_max":429,"o":"m 221 928 l 122 694 l 29 694 l 62 928 l 62 1058 l 221 1058 l 221 928 m 429 928 l 330 694 l 237 694 l 271 928 l 271 1058 l 429 1058 l 429 928 z "},"„":{"ha":448,"x_min":28,"x_max":420,"o":"m 210 33 l 110 -147 l 28 -147 l 63 25 l 63 203 l 210 203 l 210 33 m 420 33 l 319 -147 l 237 -147 l 273 30 l 273 203 l 420 203 l 420 33 z "},"†":{"ha":639,"x_min":36,"x_max":604,"o":"m 604 574 l 414 574 l 414 0 l 222 0 l 222 574 l 36 574 l 36 734 l 222 734 l 222 987 l 414 987 l 414 734 l 604 734 l 604 574 z "},"‡":{"ha":695,"x_min":64,"x_max":631,"o":"m 631 0 l 443 0 l 443 -282 l 250 -282 l 250 0 l 64 0 l 64 154 l 250 154 l 250 579 l 64 579 l 64 734 l 250 734 l 250 987 l 443 987 l 443 734 l 631 734 l 631 579 l 443 579 l 443 154 l 631 154 l 631 0 z "},"•":{"ha":461,"x_min":85,"x_max":383,"o":"m 85 547 q 126 658 85 614 q 233 701 166 701 q 342 658 302 701 q 383 547 383 615 l 383 481 q 343 371 383 413 q 235 329 302 329 q 126 371 167 329 q 85 481 85 414 l 85 547 z "},"‥":{"ha":647,"x_min":87,"x_max":559,"o":"m 278 0 l 87 0 l 87 175 l 278 175 l 278 0 m 559 0 l 368 0 l 368 175 l 559 175 l 559 0 z "},"…":{"ha":913,"x_min":87,"x_max":836,"o":"m 278 0 l 87 0 l 87 175 l 278 175 l 278 0 m 559 0 l 368 0 l 368 175 l 559 175 l 559 0 m 836 0 l 646 0 l 646 175 l 836 175 l 836 0 z "},"‰":{"ha":1136,"x_min":58,"x_max":1098,"o":"m 468 242 q 518 387 468 328 q 653 446 569 446 q 728 428 695 446 q 783 379 761 410 q 837 428 804 410 q 912 446 870 446 q 1047 387 997 446 q 1098 242 1098 328 l 1098 190 q 1048 45 1098 103 q 913 -14 998 -14 q 837 4 870 -14 q 783 53 804 21 q 728 4 761 21 q 654 -14 696 -14 q 518 45 569 -14 q 468 190 468 103 l 468 242 m 58 798 q 105 943 58 884 q 232 1002 153 1002 q 368 943 317 1002 q 418 798 418 884 l 418 745 q 368 601 418 659 q 233 543 318 543 q 105 601 153 543 q 58 745 58 659 l 58 798 m 593 190 q 610 124 593 152 q 654 96 628 96 q 702 121 689 96 q 715 190 715 146 l 715 242 q 699 308 715 281 q 653 335 683 335 q 608 308 623 335 q 593 242 593 281 l 593 190 m 852 190 q 869 124 852 152 q 913 96 887 96 q 961 121 947 96 q 974 190 974 146 l 974 242 q 958 308 974 281 q 912 335 941 335 q 867 308 883 335 q 852 242 852 281 l 852 190 m 172 745 q 187 680 172 706 q 233 653 203 653 q 277 680 262 653 q 293 745 293 706 l 293 798 q 277 864 293 836 q 232 891 260 891 q 187 864 202 891 q 172 798 172 837 l 172 745 m 288 75 l 197 125 l 604 897 l 695 846 l 288 75 z "},"‹":{"ha":382,"x_min":67,"x_max":345,"o":"m 212 373 l 345 104 l 225 104 l 67 367 l 67 380 l 225 644 l 345 644 l 212 373 z "},"›":{"ha":367,"x_min":49,"x_max":326,"o":"m 168 644 l 326 380 l 326 367 l 168 103 l 49 103 l 181 373 l 49 644 l 168 644 z "},"⁄":{"ha":532,"x_min":17,"x_max":515,"o":"m 108 75 l 17 125 l 425 897 l 515 846 l 108 75 z "},"⁴":{"ha":546,"x_min":33,"x_max":499,"o":"m 446 610 l 499 610 l 499 495 l 446 495 l 446 380 l 303 380 l 303 495 l 35 495 l 33 580 l 301 1002 l 446 1002 l 446 610 m 303 610 l 303 801 l 299 802 l 188 610 l 303 610 z "},"ⁿ":{"ha":500,"x_min":49,"x_max":452,"o":"m 157 987 l 177 906 q 229 971 197 948 q 302 994 260 994 q 414 943 375 994 q 452 786 452 892 l 452 444 l 316 444 l 316 743 q 300 845 316 814 q 252 875 284 875 q 211 863 227 875 q 186 828 195 850 l 186 444 l 49 444 l 49 987 l 157 987 z "},"₤":{"ha":715,"x_min":59,"x_max":678,"o":"m 345 298 l 346 288 q 335 221 346 260 q 302 154 323 183 l 678 154 l 678 0 l 98 0 l 98 154 l 104 154 q 141 207 129 162 q 153 288 153 252 l 152 298 l 59 298 l 59 434 l 149 434 l 146 507 l 59 507 l 59 643 l 142 643 l 140 695 q 212 920 140 838 q 403 1002 283 1002 q 602 925 530 1002 q 671 724 673 848 l 669 720 l 481 720 q 458 816 481 785 q 402 847 435 847 q 352 807 370 847 q 334 695 334 768 l 336 643 l 529 643 l 529 507 l 339 507 l 342 434 l 529 434 l 529 298 l 345 298 z "},"₧":{"ha":1038,"x_min":80,"x_max":1002,"o":"m 882 916 l 882 734 l 983 734 l 983 594 l 882 594 l 882 226 q 895 162 882 181 q 930 142 907 142 q 960 144 947 142 q 987 150 972 146 l 1002 3 q 943 -10 971 -6 q 880 -14 916 -14 q 738 43 787 -14 q 689 225 689 100 l 689 594 l 631 594 q 555 441 614 504 q 321 351 471 351 l 283 351 l 283 0 l 80 0 l 80 987 l 321 987 q 555 900 471 987 q 634 734 620 832 l 689 734 l 689 916 l 882 916 m 283 518 l 321 518 q 406 563 378 518 q 434 673 434 608 q 406 778 434 736 q 321 821 378 821 l 283 821 l 283 518 z "},"€":{"ha":658,"x_min":44,"x_max":587,"o":"m 547 307 l 319 307 l 319 299 q 352 186 319 233 q 447 140 386 140 q 512 145 479 140 q 574 162 544 151 l 587 7 q 518 -9 553 -3 q 447 -14 483 -14 q 215 77 303 -14 q 126 299 126 168 l 126 307 l 44 307 l 44 443 l 126 443 l 126 522 l 44 522 l 44 658 l 126 658 l 126 669 q 214 904 126 807 q 446 1002 302 1002 q 514 996 481 1002 q 587 981 548 991 l 574 823 q 511 841 543 834 q 446 847 479 847 q 352 794 386 847 q 319 670 319 741 l 319 658 l 547 658 l 547 522 l 319 522 l 319 443 l 547 443 l 547 307 z "},"℅":{"ha":873,"x_min":60,"x_max":825,"o":"m 402 720 l 404 716 q 362 593 407 644 q 234 543 317 543 q 105 600 151 543 q 60 745 60 658 l 60 798 q 105 944 60 886 q 233 1002 150 1002 q 362 950 317 1002 q 404 827 407 899 l 402 823 l 282 823 q 269 870 282 850 q 233 891 256 891 q 197 864 208 891 q 185 798 185 838 l 185 745 q 197 680 185 706 q 234 653 210 653 q 270 673 257 653 q 282 720 282 694 l 402 720 m 452 242 q 502 388 452 330 q 639 446 551 446 q 777 388 728 446 q 825 242 825 330 l 825 190 q 777 44 825 102 q 640 -14 728 -14 q 502 44 551 -14 q 452 190 452 102 l 452 242 m 577 190 q 595 124 577 152 q 640 97 614 96 q 687 121 674 96 q 700 190 700 146 l 700 242 q 684 308 700 281 q 639 335 668 335 q 593 308 608 335 q 577 242 577 281 l 577 190 m 270 75 l 179 125 l 587 897 l 677 846 l 270 75 z "},"ℓ":{"ha":600,"x_min":9,"x_max":564,"o":"m 439 -9 l 435 -11 q 198 68 278 -13 q 118 292 118 149 l 118 293 q 65 286 92 288 q 9 284 37 284 l 9 404 q 66 407 39 404 q 118 415 93 409 l 118 692 q 181 919 118 837 q 352 1002 243 1002 q 505 938 446 1002 q 564 766 564 873 l 564 737 q 499 536 564 640 q 321 366 435 433 l 321 334 q 348 209 321 252 q 439 167 375 167 l 439 -9 m 393 736 l 393 766 q 383 819 393 798 q 360 836 372 840 l 356 836 q 331 810 340 840 q 321 724 321 781 l 321 546 l 326 545 q 376 631 358 581 q 393 736 393 682 z "},"№":{"ha":1297,"x_min":75,"x_max":1229,"o":"m 766 0 l 574 0 l 272 631 l 268 630 l 268 0 l 75 0 l 75 987 l 268 987 l 570 357 l 574 358 l 574 987 l 766 987 l 766 0 m 825 772 q 880 936 825 873 q 1027 1000 935 1000 q 1174 936 1120 1000 q 1229 772 1229 873 l 1229 694 q 1174 530 1229 593 q 1028 467 1120 467 q 880 530 935 467 q 825 694 825 593 l 825 772 m 935 694 q 958 598 935 634 q 1028 562 982 562 q 1096 598 1072 562 q 1120 694 1120 634 l 1120 772 q 1096 867 1120 830 q 1027 904 1072 904 q 958 867 982 904 q 935 772 935 830 l 935 694 m 1200 243 l 863 243 l 863 397 l 1200 397 l 1200 243 z "},"™":{"ha":757,"x_min":60,"x_max":653,"o":"m 572 790 l 568 790 l 516 620 l 471 620 l 416 800 l 412 800 l 412 620 l 330 620 l 330 987 l 431 987 l 492 743 l 496 743 l 556 987 l 653 987 l 653 620 l 572 620 l 572 790 m 291 916 l 220 916 l 220 622 l 127 622 l 127 916 l 60 916 l 60 987 l 291 987 l 291 916 z "},"℮":{"ha":753,"x_min":90,"x_max":674,"o":"m 603 64 q 499 6 553 26 q 390 -14 445 -14 q 178 98 265 -14 q 90 367 90 210 q 182 634 90 520 q 390 747 275 747 q 591 642 509 747 q 674 380 674 537 l 674 349 l 233 349 l 233 126 q 306 71 265 90 q 390 51 346 52 q 498 72 444 52 q 602 134 551 92 l 603 64 m 390 683 q 307 662 348 684 q 233 601 267 640 l 233 413 l 544 413 l 544 607 q 472 663 512 643 q 390 683 433 684 z "},"⅛":{"ha":1020,"x_min":61,"x_max":956,"o":"m 267 438 l 131 438 l 131 868 l 61 867 l 61 973 l 267 989 l 267 438 m 265 75 l 174 125 l 582 897 l 673 846 l 265 75 m 941 401 q 919 331 941 361 q 858 281 897 300 q 930 229 903 262 q 956 153 956 195 q 899 35 956 77 q 755 -7 842 -7 q 607 35 666 -7 q 547 153 547 77 q 574 229 547 195 q 649 281 602 262 q 585 330 608 299 q 562 401 562 361 q 616 511 562 472 q 755 551 671 551 q 889 512 836 551 q 941 401 941 473 m 821 161 q 802 211 821 191 q 755 230 782 230 q 703 211 724 230 q 682 161 682 191 q 703 113 682 131 q 755 96 724 96 q 802 113 783 96 q 821 161 821 131 m 807 392 q 792 432 807 417 q 755 447 777 447 q 714 432 730 447 q 697 392 697 418 q 714 349 697 366 q 755 333 731 333 q 792 349 777 333 q 807 392 807 366 z "},"⅜":{"ha":1109,"x_min":64,"x_max":1045,"o":"m 251 766 q 299 783 283 766 q 314 833 314 800 q 300 877 314 859 q 259 895 286 895 q 219 879 233 895 q 206 842 206 864 l 78 842 l 77 846 q 124 957 73 915 q 256 998 176 998 q 397 958 345 998 q 449 843 449 918 q 428 775 449 806 q 372 726 408 744 q 435 678 412 710 q 457 600 457 646 q 405 482 457 524 q 263 440 353 440 q 120 483 175 440 q 68 603 64 526 l 70 607 l 199 607 q 215 560 199 577 q 262 543 231 543 q 306 560 288 543 q 323 608 323 576 q 304 661 323 642 q 251 680 286 680 l 189 680 l 189 766 l 251 766 m 375 75 l 284 125 l 692 897 l 783 846 l 375 75 m 1030 401 q 1008 331 1030 361 q 947 281 985 300 q 1019 229 992 262 q 1045 153 1045 195 q 988 35 1045 77 q 844 -7 931 -7 q 695 35 755 -7 q 636 153 636 77 q 663 229 636 195 q 738 281 690 262 q 673 330 696 299 q 650 401 650 361 q 705 511 650 472 q 844 551 760 551 q 978 512 925 551 q 1030 401 1030 473 m 910 161 q 890 211 910 191 q 844 230 871 230 q 792 211 813 230 q 771 161 771 191 q 792 113 771 131 q 844 96 813 96 q 891 113 872 96 q 910 161 910 131 m 896 392 q 881 432 896 417 q 844 447 865 447 q 803 432 819 447 q 786 392 786 418 q 803 349 786 366 q 844 333 820 333 q 881 349 866 333 q 896 392 896 366 z "},"⅝":{"ha":1138,"x_min":65,"x_max":1074,"o":"m 83 678 l 114 987 l 437 987 l 437 884 l 233 884 l 224 770 q 259 789 238 781 q 304 798 281 797 q 425 753 381 799 q 469 624 469 707 q 419 487 469 537 q 269 436 370 436 q 123 475 181 436 q 68 592 65 515 l 70 595 l 199 602 q 218 556 199 572 q 269 539 237 539 q 318 561 301 539 q 334 619 334 582 q 317 682 334 658 q 275 706 300 706 q 229 696 245 706 q 206 672 213 687 l 83 678 m 408 75 l 317 125 l 724 897 l 815 846 l 408 75 m 1059 401 q 1036 331 1059 361 q 975 281 1014 300 q 1047 229 1021 262 q 1074 153 1074 195 q 1017 35 1074 77 q 873 -7 960 -7 q 724 35 783 -7 q 665 153 665 77 q 692 229 665 195 q 766 281 719 262 q 702 330 725 299 q 679 401 679 361 q 734 511 679 472 q 872 551 789 551 q 1006 512 954 551 q 1059 401 1059 473 m 939 161 q 919 211 939 191 q 872 230 899 230 q 821 211 842 230 q 800 161 800 191 q 821 113 800 131 q 873 96 842 96 q 920 113 901 96 q 939 161 939 131 m 924 392 q 909 432 924 417 q 872 447 894 447 q 831 432 848 447 q 814 392 814 418 q 831 349 814 366 q 873 333 848 333 q 909 349 895 333 q 924 392 924 366 z "},"⅞":{"ha":1048,"x_min":64,"x_max":984,"o":"m 412 883 q 312 713 341 778 q 283 530 283 648 l 283 444 l 149 444 l 149 530 q 190 729 149 646 q 286 883 231 812 l 64 883 l 64 987 l 412 987 l 412 883 m 303 75 l 212 125 l 620 897 l 711 846 l 303 75 m 969 401 q 947 331 969 361 q 886 281 924 300 q 958 229 931 262 q 984 153 984 195 q 927 35 984 77 q 783 -7 870 -7 q 634 35 694 -7 q 575 153 575 77 q 602 229 575 195 q 677 281 629 262 q 612 330 635 299 q 589 401 589 361 q 644 511 589 472 q 783 551 699 551 q 917 512 864 551 q 969 401 969 473 m 849 161 q 829 211 849 191 q 783 230 810 230 q 731 211 752 230 q 710 161 710 191 q 731 113 710 131 q 783 96 752 96 q 830 113 811 96 q 849 161 849 131 m 835 392 q 820 432 835 417 q 783 447 804 447 q 742 432 758 447 q 725 392 725 418 q 742 349 725 366 q 783 333 759 333 q 820 349 805 333 q 835 392 835 366 z "},"∂":{"ha":731,"x_min":37,"x_max":670,"o":"m 286 1029 q 563 848 456 985 q 670 512 670 711 l 670 363 q 577 91 670 197 q 345 -14 484 -14 q 122 81 208 -14 q 37 316 37 176 q 110 562 37 470 q 315 653 184 653 q 398 638 359 653 q 462 596 437 623 l 464 600 q 384 767 449 702 q 225 863 318 831 l 286 1029 m 347 140 q 439 203 401 140 q 477 363 477 267 l 477 446 q 425 491 458 473 q 349 509 392 509 q 260 456 290 509 q 230 316 230 404 q 261 190 230 241 q 347 140 293 140 z "},"∏":{"ha":832,"x_min":98,"x_max":741,"o":"m 741 -176 l 593 -176 l 593 837 l 245 837 l 245 -176 l 98 -176 l 98 987 l 741 987 l 741 -176 z "},"∑":{"ha":765,"x_min":37,"x_max":724,"o":"m 558 395 l 286 -28 l 724 -28 l 724 -182 l 37 -182 l 37 -85 l 357 406 l 37 890 l 37 987 l 711 987 l 711 833 l 288 833 l 558 418 l 558 395 z "},"−":{"ha":657,"x_min":86,"x_max":564,"o":"m 564 407 l 86 407 l 86 563 l 564 563 l 564 407 z "},"√":{"ha":674,"x_min":35,"x_max":650,"o":"m 317 279 l 342 159 l 347 159 l 367 279 l 514 987 l 650 987 l 427 0 l 272 0 l 167 354 l 35 354 l 35 509 l 275 509 l 317 279 z "},"∞":{"ha":1240,"x_min":56,"x_max":1183,"o":"m 1183 348 q 1098 87 1183 189 q 872 -14 1013 -14 q 725 41 787 -14 q 620 185 663 96 q 513 41 576 96 q 367 -14 450 -14 q 141 87 225 -14 q 56 348 56 189 l 56 385 q 141 645 56 543 q 366 747 225 747 q 513 694 450 747 q 620 554 576 640 q 725 694 663 640 q 873 747 788 747 q 1098 645 1014 747 q 1183 385 1183 543 l 1183 348 m 249 348 q 279 197 249 254 q 367 140 309 140 q 473 223 430 140 q 524 362 515 307 l 524 381 q 473 513 515 434 q 366 593 431 593 q 279 534 309 593 q 249 385 249 475 l 249 348 m 990 385 q 960 534 990 476 q 873 593 930 593 q 766 514 808 593 q 715 381 725 436 l 715 362 q 766 223 723 307 q 872 140 808 140 q 960 197 929 140 q 990 348 990 254 l 990 385 z "},"∫":{"ha":345,"x_min":-44,"x_max":420,"o":"m 275 -22 q 213 -225 275 -154 q 43 -296 152 -296 q -1 -293 19 -296 q -44 -284 -20 -290 l -35 -134 q -8 -140 -20 -138 q 20 -142 4 -142 q 66 -111 50 -142 q 82 -22 82 -80 l 82 815 q 145 1005 82 939 q 324 1072 209 1072 q 369 1068 347 1072 q 420 1058 391 1065 l 406 911 q 378 916 390 914 q 350 918 366 918 q 294 891 313 918 q 275 815 275 865 l 275 -22 z "},"≈":{"ha":694,"x_min":64,"x_max":627,"o":"m 69 592 q 132 665 96 638 q 205 691 167 691 q 274 681 245 692 q 349 642 302 669 q 418 606 391 616 q 485 595 446 595 q 557 621 522 595 q 621 694 593 647 l 627 553 q 564 479 600 505 q 492 454 528 454 q 425 465 452 454 q 356 500 397 475 q 279 540 307 528 q 210 550 251 551 q 137 524 172 550 q 75 451 102 497 l 69 592 m 64 303 q 126 376 91 349 q 199 402 161 402 q 268 392 239 404 q 344 353 296 380 q 414 316 387 327 q 479 305 441 305 q 552 332 516 305 q 615 405 587 358 l 621 263 q 558 190 593 216 q 486 164 523 164 q 419 175 447 164 q 350 211 391 186 q 274 250 302 239 q 204 260 245 262 q 131 234 167 260 q 68 161 96 208 l 64 303 z "},"≠":{"ha":673,"x_min":92,"x_max":616,"o":"m 508 667 l 616 667 l 616 513 l 435 513 l 370 374 l 616 374 l 616 219 l 298 219 l 222 58 l 149 103 l 203 219 l 92 219 l 92 374 l 277 374 l 342 513 l 92 513 l 92 667 l 414 667 l 475 798 l 548 752 l 508 667 z "},"≤":{"ha":654,"x_min":83,"x_max":589,"o":"m 258 498 l 258 494 l 585 371 l 585 205 l 83 428 l 83 568 l 585 790 l 585 626 l 258 498 m 589 8 l 111 8 l 111 164 l 589 164 l 589 8 z "},"≥":{"ha":655,"x_min":104,"x_max":609,"o":"m 584 8 l 106 8 l 106 164 l 584 164 l 584 8 m 434 497 l 434 501 l 104 626 l 104 790 l 609 568 l 609 428 l 104 205 l 104 369 l 434 497 z "},"◊":{"ha":633,"x_min":19,"x_max":616,"o":"m 223 987 l 412 987 l 616 493 l 412 0 l 223 0 l 19 493 l 223 987 m 414 493 l 328 798 l 319 835 l 315 835 l 306 798 l 220 493 l 307 189 l 316 151 l 320 151 l 330 189 l 414 493 z "},"":{"ha":275,"x_min":28,"x_max":186,"o":"m 186 71 l 106 -85 l 28 -85 l 64 77 l 64 180 l 186 180 l 186 71 z "},"ﬁ":{"ha":751,"x_min":12,"x_max":679,"o":"m 102 0 l 102 594 l 12 594 l 12 734 l 102 734 l 102 781 q 178 997 102 922 q 393 1072 254 1072 q 487 1062 440 1072 q 591 1032 533 1052 l 564 875 q 485 898 519 890 q 405 906 451 906 q 323 874 351 906 q 295 781 295 842 l 295 734 l 412 734 l 412 594 l 295 594 l 295 0 l 102 0 m 679 0 l 486 0 l 486 734 l 679 734 l 679 0 z "},"﻿":{"ha":11,"x_min":0,"x_max":0,"o":""},"￼":{"ha":1210,"x_min":55,"x_max":1167,"o":"m 476 317 q 439 210 476 251 q 345 169 403 169 q 248 210 285 169 q 212 317 212 251 l 212 393 q 248 500 212 458 q 343 542 284 542 q 439 500 401 542 q 476 393 476 458 l 476 317 m 514 171 l 514 543 l 622 543 q 712 518 680 543 q 744 441 744 492 q 731 394 744 415 q 696 363 719 373 q 739 330 723 354 q 754 276 754 307 q 724 198 754 224 q 641 171 694 171 l 514 171 m 423 393 q 401 466 423 439 q 343 493 380 493 q 286 466 307 493 q 264 393 264 439 l 264 317 q 286 244 264 270 q 345 218 307 218 q 402 244 381 218 q 423 317 423 271 l 423 393 m 970 545 l 1023 545 l 1023 288 q 993 204 1023 235 q 916 172 962 172 q 834 200 864 172 q 807 279 804 227 l 808 283 l 857 283 q 872 237 857 252 q 916 222 887 222 q 955 240 939 222 q 970 288 970 259 l 970 545 m 55 -270 l 55 -56 l 119 -56 l 119 -193 l 232 -193 l 232 -270 l 55 -270 m 989 -270 l 989 -193 l 1103 -193 l 1103 -56 l 1167 -56 l 1167 -270 l 989 -270 m 55 793 l 55 986 l 232 986 l 232 907 l 119 907 l 119 793 l 55 793 m 989 907 l 989 986 l 1167 986 l 1167 793 l 1103 793 l 1103 907 l 989 907 m 569 336 l 569 222 l 641 222 q 685 236 670 222 q 701 278 701 251 q 685 321 701 305 q 641 336 670 336 l 569 336 m 760 907 l 760 986 l 920 986 l 920 907 l 760 907 m 532 907 l 532 986 l 690 986 l 690 907 l 532 907 m 302 907 l 302 986 l 460 986 l 460 907 l 302 907 m 760 -270 l 760 -193 l 920 -193 l 920 -270 l 760 -270 m 532 -270 l 532 -193 l 690 -193 l 690 -270 l 532 -270 m 302 -270 l 302 -193 l 460 -193 l 460 -270 l 302 -270 m 569 384 l 629 384 q 674 398 659 385 q 690 438 690 412 q 674 475 690 465 q 622 486 657 486 l 569 486 l 569 384 m 119 282 l 55 282 l 55 453 l 119 453 l 119 282 m 119 538 l 55 538 l 55 708 l 119 708 l 119 538 m 1167 282 l 1103 282 l 1103 453 l 1167 453 l 1167 282 m 119 28 l 55 28 l 55 197 l 119 197 l 119 28 m 1167 538 l 1103 538 l 1103 708 l 1167 708 l 1167 538 m 1167 28 l 1103 28 l 1103 197 l 1167 197 l 1167 28 z "},"�":{"ha":1216,"x_min":58,"x_max":1157,"o":"m 606 1097 l 1157 436 l 606 -225 l 58 436 l 606 1097 m 654 273 q 662 329 654 309 q 692 368 669 350 q 760 438 733 394 q 787 536 787 483 q 739 674 787 623 q 606 725 690 725 q 480 681 528 725 q 434 549 432 637 l 436 545 l 547 545 q 564 597 547 579 q 606 614 581 614 q 654 593 637 614 q 671 536 671 572 q 656 475 671 502 q 617 431 642 449 q 555 362 572 393 q 538 273 538 332 l 654 273 m 654 211 l 538 211 l 538 96 l 654 96 l 654 211 m 612 -374 l 614 -374 l 614 -376 l 612 -376 l 612 -374 m 610 1455 l 612 1455 l 612 1453 l 610 1453 l 610 1455 z "}," ":{"ha":304,"x_min":0,"x_max":0,"o":"z "},"­":{"ha":507,"x_min":81,"x_max":418,"o":"m 418 347 l 81 347 l 81 501 l 418 501 l 418 347 z "},"Đ":{"ha":801,"x_min":21,"x_max":743,"o":"m 95 0 l 95 444 l 21 444 l 21 563 l 95 563 l 95 987 l 393 987 q 644 872 545 987 q 743 576 743 758 l 743 410 q 644 115 743 229 q 393 0 545 0 l 95 0 m 415 444 l 288 444 l 288 154 l 382 154 q 507 224 463 154 q 551 410 551 294 l 551 578 q 507 763 551 693 q 382 833 463 833 l 288 833 l 288 563 l 415 563 l 415 444 z "},"Ð":{"ha":801,"x_min":21,"x_max":743,"o":"m 95 0 l 95 444 l 21 444 l 21 563 l 95 563 l 95 987 l 393 987 q 644 872 545 987 q 743 576 743 758 l 743 410 q 644 115 743 229 q 393 0 545 0 l 95 0 m 415 444 l 288 444 l 288 154 l 382 154 q 507 224 463 154 q 551 410 551 294 l 551 578 q 507 763 551 693 q 382 833 463 833 l 288 833 l 288 563 l 415 563 l 415 444 z "},"ħ":{"ha":695,"x_min":-1,"x_max":635,"o":"m 393 827 l 270 827 l 270 646 q 338 721 298 694 q 427 747 378 747 q 580 670 524 747 q 635 430 635 592 l 635 0 l 442 0 l 442 431 q 421 557 442 522 q 354 593 399 593 q 306 581 327 593 q 270 548 285 569 l 270 0 l 77 0 l 77 827 l -1 827 l -1 946 l 77 946 l 77 1058 l 270 1058 l 270 946 l 393 946 l 393 827 z "},"Ŧ":{"ha":674,"x_min":20,"x_max":656,"o":"m 541 508 l 433 508 l 433 0 l 241 0 l 241 508 l 146 508 l 146 627 l 241 627 l 241 833 l 20 833 l 20 987 l 656 987 l 656 833 l 433 833 l 433 627 l 541 627 l 541 508 z "},"ŧ":{"ha":439,"x_min":-1,"x_max":412,"o":"m 292 916 l 292 734 l 393 734 l 393 594 l 292 594 l 292 480 l 393 480 l 393 361 l 292 361 l 292 226 q 304 162 292 181 q 340 142 317 142 q 370 144 357 142 q 397 150 382 146 l 412 3 q 353 -10 381 -6 q 290 -14 326 -14 q 148 43 197 -14 q 99 225 99 100 l 99 361 l -1 361 l -1 480 l 99 480 l 99 594 l 12 594 l 12 734 l 99 734 l 99 916 l 292 916 z "},"À":{"ha":769,"x_min":11,"x_max":767,"o":"m 519 210 l 258 210 l 205 0 l 11 0 l 289 987 l 490 987 l 767 0 l 572 0 l 519 210 m 298 365 l 479 365 l 391 714 l 387 714 l 298 365 m 488 1057 l 332 1057 l 165 1234 l 167 1238 l 369 1238 l 488 1057 z "},"Á":{"ha":769,"x_min":11,"x_max":767,"o":"m 519 210 l 258 210 l 205 0 l 11 0 l 289 987 l 490 987 l 767 0 l 572 0 l 519 210 m 298 365 l 479 365 l 391 714 l 387 714 l 298 365 m 410 1238 l 613 1238 l 615 1234 l 446 1058 l 291 1058 l 410 1238 z "},"Â":{"ha":769,"x_min":11,"x_max":767,"o":"m 519 210 l 258 210 l 205 0 l 11 0 l 289 987 l 490 987 l 767 0 l 572 0 l 519 210 m 298 365 l 479 365 l 391 714 l 387 714 l 298 365 m 616 1094 l 616 1079 l 466 1079 l 389 1170 l 313 1079 l 165 1079 l 165 1096 l 335 1257 l 443 1257 l 616 1094 z "},"Ã":{"ha":769,"x_min":11,"x_max":767,"o":"m 519 210 l 258 210 l 205 0 l 11 0 l 289 987 l 490 987 l 767 0 l 572 0 l 519 210 m 298 365 l 479 365 l 391 714 l 387 714 l 298 365 m 611 1257 q 576 1148 611 1193 q 488 1103 542 1103 q 396 1133 448 1103 q 313 1162 343 1162 q 282 1140 295 1162 q 269 1086 269 1118 l 168 1116 q 203 1225 168 1179 q 291 1271 238 1271 q 379 1241 322 1271 q 466 1211 435 1211 q 497 1233 484 1211 q 511 1288 511 1255 l 611 1257 z "},"Ä":{"ha":769,"x_min":11,"x_max":767,"o":"m 519 210 l 258 210 l 205 0 l 11 0 l 289 987 l 490 987 l 767 0 l 572 0 l 519 210 m 298 365 l 479 365 l 391 714 l 387 714 l 298 365 m 626 1089 l 456 1089 l 456 1223 l 626 1223 l 626 1089 m 322 1089 l 152 1089 l 152 1223 l 322 1223 l 322 1089 z "},"Å":{"ha":769,"x_min":11,"x_max":767,"o":"m 519 210 l 258 210 l 205 0 l 11 0 l 289 987 l 490 987 l 767 0 l 572 0 l 519 210 m 298 365 l 479 365 l 391 714 l 387 714 l 298 365 m 258 1179 q 296 1271 258 1234 q 390 1308 334 1308 q 481 1271 444 1308 q 519 1179 519 1234 q 482 1088 519 1124 q 390 1053 445 1053 q 296 1089 334 1053 q 258 1179 258 1124 m 332 1179 q 348 1133 332 1151 q 390 1115 364 1115 q 431 1133 415 1115 q 446 1179 446 1150 q 431 1227 446 1208 q 390 1245 415 1245 q 348 1227 364 1245 q 332 1179 332 1208 z "},"Ǻ":{"ha":769,"x_min":11,"x_max":767,"o":"m 519 210 l 258 210 l 205 0 l 11 0 l 289 987 l 490 987 l 767 0 l 572 0 l 519 210 m 298 365 l 479 365 l 391 714 l 387 714 l 298 365 m 445 1457 l 610 1457 l 611 1453 l 450 1309 l 331 1309 l 445 1457 m 266 1149 q 301 1239 266 1202 q 390 1275 337 1275 q 476 1239 441 1275 q 511 1149 511 1202 q 476 1061 511 1096 q 390 1027 441 1027 q 301 1061 337 1027 q 266 1149 266 1096 m 337 1149 q 352 1106 337 1123 q 390 1090 367 1090 q 426 1106 412 1090 q 439 1149 439 1123 q 426 1194 439 1177 q 390 1212 412 1212 q 352 1194 367 1212 q 337 1149 337 1177 z "},"Ç":{"ha":738,"x_min":50,"x_max":697,"o":"m 694 318 l 696 314 q 618 68 697 151 q 387 -14 540 -14 q 142 80 233 -14 q 50 346 50 174 l 50 641 q 139 907 50 812 q 376 1002 227 1002 q 613 918 533 1002 q 696 669 694 833 l 694 665 l 509 665 q 482 804 513 762 q 376 847 452 847 q 276 796 311 847 q 241 642 241 745 l 241 346 q 278 191 241 241 q 387 140 315 140 q 484 180 456 140 q 508 318 511 220 l 694 318 m 444 5 l 437 -35 q 496 -71 472 -43 q 520 -153 520 -99 q 466 -270 520 -226 q 311 -313 411 -313 l 307 -203 q 343 -189 330 -203 q 357 -146 357 -175 q 339 -106 357 -117 q 281 -91 322 -94 l 299 5 l 444 5 z "},"È":{"ha":684,"x_min":75,"x_max":658,"o":"m 600 433 l 268 433 l 268 154 l 658 154 l 658 0 l 75 0 l 75 987 l 656 987 l 656 833 l 268 833 l 268 587 l 600 587 l 600 433 m 447 1057 l 291 1057 l 124 1234 l 126 1238 l 328 1238 l 447 1057 z "},"É":{"ha":684,"x_min":75,"x_max":658,"o":"m 600 433 l 268 433 l 268 154 l 658 154 l 658 0 l 75 0 l 75 987 l 656 987 l 656 833 l 268 833 l 268 587 l 600 587 l 600 433 m 370 1238 l 572 1238 l 574 1234 l 406 1058 l 250 1058 l 370 1238 z "},"Ê":{"ha":684,"x_min":75,"x_max":658,"o":"m 600 433 l 268 433 l 268 154 l 658 154 l 658 0 l 75 0 l 75 987 l 656 987 l 656 833 l 268 833 l 268 587 l 600 587 l 600 433 m 576 1094 l 576 1079 l 425 1079 l 348 1170 l 272 1079 l 125 1079 l 125 1096 l 294 1257 l 402 1257 l 576 1094 z "},"Ë":{"ha":684,"x_min":75,"x_max":658,"o":"m 600 433 l 268 433 l 268 154 l 658 154 l 658 0 l 75 0 l 75 987 l 656 987 l 656 833 l 268 833 l 268 587 l 600 587 l 600 433 m 585 1089 l 416 1089 l 416 1223 l 585 1223 l 585 1089 m 281 1089 l 111 1089 l 111 1223 l 281 1223 l 281 1089 z "},"Ì":{"ha":362,"x_min":-41,"x_max":281,"o":"m 277 0 l 85 0 l 85 987 l 277 987 l 277 0 m 281 1057 l 125 1057 l -41 1234 l -39 1238 l 163 1238 l 281 1057 z "},"Í":{"ha":362,"x_min":83,"x_max":408,"o":"m 277 0 l 85 0 l 85 987 l 277 987 l 277 0 m 203 1238 l 406 1238 l 408 1234 l 239 1058 l 83 1058 l 203 1238 z "},"Î":{"ha":362,"x_min":-41,"x_max":410,"o":"m 277 0 l 85 0 l 85 987 l 277 987 l 277 0 m 410 1094 l 410 1079 l 260 1079 l 182 1170 l 106 1079 l -41 1079 l -41 1096 l 129 1257 l 237 1257 l 410 1094 z "},"Ï":{"ha":362,"x_min":-54,"x_max":420,"o":"m 277 0 l 85 0 l 85 987 l 277 987 l 277 0 m 420 1089 l 250 1089 l 250 1223 l 420 1223 l 420 1089 m 116 1089 l -54 1089 l -54 1223 l 116 1223 l 116 1089 z "},"Ñ":{"ha":842,"x_min":75,"x_max":766,"o":"m 766 0 l 574 0 l 272 631 l 268 630 l 268 0 l 75 0 l 75 987 l 268 987 l 570 357 l 574 358 l 574 987 l 766 987 l 766 0 m 642 1257 q 608 1148 642 1193 q 519 1103 573 1103 q 427 1133 479 1103 q 345 1162 374 1162 q 313 1140 326 1162 q 300 1086 300 1118 l 199 1116 q 234 1225 199 1179 q 322 1271 269 1271 q 410 1241 353 1271 q 497 1211 467 1211 q 529 1233 515 1211 q 542 1288 542 1255 l 642 1257 z "},"Ò":{"ha":791,"x_min":51,"x_max":740,"o":"m 740 355 q 646 83 740 181 q 395 -14 551 -14 q 144 83 238 -14 q 51 355 51 181 l 51 631 q 144 903 51 804 q 394 1002 238 1002 q 645 903 550 1002 q 740 631 740 804 l 740 355 m 548 633 q 509 792 548 739 q 394 846 469 846 q 280 793 318 846 q 242 633 242 739 l 242 355 q 281 194 242 248 q 395 140 319 140 q 509 194 469 140 q 548 355 548 248 l 548 633 m 494 1072 l 338 1072 l 172 1248 l 174 1252 l 376 1252 l 494 1072 z "},"Ó":{"ha":791,"x_min":51,"x_max":740,"o":"m 740 355 q 646 83 740 181 q 395 -14 551 -14 q 144 83 238 -14 q 51 355 51 181 l 51 631 q 144 903 51 804 q 394 1002 238 1002 q 645 903 550 1002 q 740 631 740 804 l 740 355 m 548 633 q 509 792 548 739 q 394 846 469 846 q 280 793 318 846 q 242 633 242 739 l 242 355 q 281 194 242 248 q 395 140 319 140 q 509 194 469 140 q 548 355 548 248 l 548 633 m 417 1253 l 620 1253 l 622 1249 l 453 1072 l 298 1072 l 417 1253 z "},"Ô":{"ha":791,"x_min":51,"x_max":740,"o":"m 740 355 q 646 83 740 181 q 395 -14 551 -14 q 144 83 238 -14 q 51 355 51 181 l 51 631 q 144 903 51 804 q 394 1002 238 1002 q 645 903 550 1002 q 740 631 740 804 l 740 355 m 548 633 q 509 792 548 739 q 394 846 469 846 q 280 793 318 846 q 242 633 242 739 l 242 355 q 281 194 242 248 q 395 140 319 140 q 509 194 469 140 q 548 355 548 248 l 548 633 m 623 1108 l 623 1093 l 473 1093 l 395 1184 l 319 1093 l 172 1093 l 172 1110 l 342 1271 l 450 1271 l 623 1108 z "},"Õ":{"ha":791,"x_min":51,"x_max":740,"o":"m 740 355 q 646 83 740 181 q 395 -14 551 -14 q 144 83 238 -14 q 51 355 51 181 l 51 631 q 144 903 51 804 q 394 1002 238 1002 q 645 903 550 1002 q 740 631 740 804 l 740 355 m 548 633 q 509 792 548 739 q 394 846 469 846 q 280 793 318 846 q 242 633 242 739 l 242 355 q 281 194 242 248 q 395 140 319 140 q 509 194 469 140 q 548 355 548 248 l 548 633 m 618 1272 q 583 1162 618 1207 q 495 1117 549 1117 q 402 1147 455 1117 q 320 1177 350 1177 q 289 1154 302 1177 q 276 1101 276 1132 l 175 1130 q 210 1239 175 1193 q 298 1285 245 1285 q 386 1255 329 1285 q 473 1225 442 1225 q 504 1247 491 1225 q 517 1302 517 1270 l 618 1272 z "},"Ö":{"ha":791,"x_min":51,"x_max":740,"o":"m 740 355 q 646 83 740 181 q 395 -14 551 -14 q 144 83 238 -14 q 51 355 51 181 l 51 631 q 144 903 51 804 q 394 1002 238 1002 q 645 903 550 1002 q 740 631 740 804 l 740 355 m 548 633 q 509 792 548 739 q 394 846 469 846 q 280 793 318 846 q 242 633 242 739 l 242 355 q 281 194 242 248 q 395 140 319 140 q 509 194 469 140 q 548 355 548 248 l 548 633 m 633 1103 l 463 1103 l 463 1238 l 633 1238 l 633 1103 m 329 1103 l 159 1103 l 159 1238 l 329 1238 l 329 1103 z "},"Ù":{"ha":798,"x_min":64,"x_max":734,"o":"m 734 987 l 734 315 q 641 72 734 157 q 399 -14 549 -14 q 156 72 249 -14 q 64 315 64 158 l 64 987 l 256 987 l 256 315 q 294 182 256 225 q 399 140 331 140 q 505 180 469 140 q 542 315 542 221 l 542 987 l 734 987 m 496 1057 l 340 1057 l 174 1234 l 176 1238 l 378 1238 l 496 1057 z "},"Ú":{"ha":798,"x_min":64,"x_max":734,"o":"m 734 987 l 734 315 q 641 72 734 157 q 399 -14 549 -14 q 156 72 249 -14 q 64 315 64 158 l 64 987 l 256 987 l 256 315 q 294 182 256 225 q 399 140 331 140 q 505 180 469 140 q 542 315 542 221 l 542 987 l 734 987 m 419 1238 l 622 1238 l 624 1234 l 455 1058 l 300 1058 l 419 1238 z "},"Û":{"ha":798,"x_min":64,"x_max":734,"o":"m 734 987 l 734 315 q 641 72 734 157 q 399 -14 549 -14 q 156 72 249 -14 q 64 315 64 158 l 64 987 l 256 987 l 256 315 q 294 182 256 225 q 399 140 331 140 q 505 180 469 140 q 542 315 542 221 l 542 987 l 734 987 m 625 1094 l 625 1079 l 475 1079 l 397 1170 l 321 1079 l 174 1079 l 174 1096 l 344 1257 l 452 1257 l 625 1094 z "},"Ü":{"ha":798,"x_min":64,"x_max":734,"o":"m 734 987 l 734 315 q 641 72 734 157 q 399 -14 549 -14 q 156 72 249 -14 q 64 315 64 158 l 64 987 l 256 987 l 256 315 q 294 182 256 225 q 399 140 331 140 q 505 180 469 140 q 542 315 542 221 l 542 987 l 734 987 m 635 1089 l 465 1089 l 465 1223 l 635 1223 l 635 1089 m 331 1089 l 161 1089 l 161 1223 l 331 1223 l 331 1089 z "},"Ý":{"ha":762,"x_min":5,"x_max":757,"o":"m 378 564 l 382 564 l 547 987 l 757 987 l 475 351 l 475 0 l 282 0 l 282 363 l 5 987 l 216 987 l 378 564 m 408 1238 l 610 1238 l 612 1234 l 444 1057 l 288 1057 l 408 1238 z "},"à":{"ha":640,"x_min":39,"x_max":611,"o":"m 420 0 q 405 40 412 18 q 395 84 399 62 q 329 13 368 39 q 239 -14 290 -14 q 93 45 148 -14 q 39 205 39 105 q 108 372 39 313 q 315 432 178 432 l 387 432 l 387 492 q 368 574 387 545 q 310 603 349 603 q 261 580 277 603 q 245 513 245 557 l 58 513 l 56 517 q 127 680 53 613 q 323 747 201 747 q 509 681 437 747 q 581 490 581 614 l 581 193 q 588 92 581 139 q 611 0 595 45 l 420 0 m 294 131 q 348 146 323 131 q 387 186 373 162 l 387 321 l 315 321 q 251 291 271 321 q 231 214 231 260 q 248 154 231 177 q 294 131 265 131 m 415 839 l 259 839 l 92 1015 l 94 1019 l 296 1019 l 415 839 z "},"á":{"ha":640,"x_min":39,"x_max":611,"o":"m 420 0 q 405 40 412 18 q 395 84 399 62 q 329 13 368 39 q 239 -14 290 -14 q 93 45 148 -14 q 39 205 39 105 q 108 372 39 313 q 315 432 178 432 l 387 432 l 387 492 q 368 574 387 545 q 310 603 349 603 q 261 580 277 603 q 245 513 245 557 l 58 513 l 56 517 q 127 680 53 613 q 323 747 201 747 q 509 681 437 747 q 581 490 581 614 l 581 193 q 588 92 581 139 q 611 0 595 45 l 420 0 m 294 131 q 348 146 323 131 q 387 186 373 162 l 387 321 l 315 321 q 251 291 271 321 q 231 214 231 260 q 248 154 231 177 q 294 131 265 131 m 338 1020 l 541 1020 l 543 1016 l 374 840 l 218 840 l 338 1020 z "},"â":{"ha":640,"x_min":39,"x_max":611,"o":"m 420 0 q 405 40 412 18 q 395 84 399 62 q 329 13 368 39 q 239 -14 290 -14 q 93 45 148 -14 q 39 205 39 105 q 108 372 39 313 q 315 432 178 432 l 387 432 l 387 492 q 368 574 387 545 q 310 603 349 603 q 261 580 277 603 q 245 513 245 557 l 58 513 l 56 517 q 127 680 53 613 q 323 747 201 747 q 509 681 437 747 q 581 490 581 614 l 581 193 q 588 92 581 139 q 611 0 595 45 l 420 0 m 294 131 q 348 146 323 131 q 387 186 373 162 l 387 321 l 315 321 q 251 291 271 321 q 231 214 231 260 q 248 154 231 177 q 294 131 265 131 m 544 876 l 544 861 l 393 861 l 316 951 l 240 861 l 93 861 l 93 878 l 262 1038 l 370 1038 l 544 876 z "},"ã":{"ha":640,"x_min":39,"x_max":611,"o":"m 420 0 q 405 40 412 18 q 395 84 399 62 q 329 13 368 39 q 239 -14 290 -14 q 93 45 148 -14 q 39 205 39 105 q 108 372 39 313 q 315 432 178 432 l 387 432 l 387 492 q 368 574 387 545 q 310 603 349 603 q 261 580 277 603 q 245 513 245 557 l 58 513 l 56 517 q 127 680 53 613 q 323 747 201 747 q 509 681 437 747 q 581 490 581 614 l 581 193 q 588 92 581 139 q 611 0 595 45 l 420 0 m 294 131 q 348 146 323 131 q 387 186 373 162 l 387 321 l 315 321 q 251 291 271 321 q 231 214 231 260 q 248 154 231 177 q 294 131 265 131 m 538 1039 q 504 929 538 975 q 416 884 469 884 q 323 914 376 884 q 241 944 271 944 q 210 922 222 944 q 197 868 197 899 l 96 897 q 131 1006 96 960 q 218 1053 165 1053 q 306 1023 250 1053 q 393 993 363 993 q 425 1015 412 993 q 438 1069 438 1037 l 538 1039 z "},"ä":{"ha":640,"x_min":39,"x_max":611,"o":"m 420 0 q 405 40 412 18 q 395 84 399 62 q 329 13 368 39 q 239 -14 290 -14 q 93 45 148 -14 q 39 205 39 105 q 108 372 39 313 q 315 432 178 432 l 387 432 l 387 492 q 368 574 387 545 q 310 603 349 603 q 261 580 277 603 q 245 513 245 557 l 58 513 l 56 517 q 127 680 53 613 q 323 747 201 747 q 509 681 437 747 q 581 490 581 614 l 581 193 q 588 92 581 139 q 611 0 595 45 l 420 0 m 294 131 q 348 146 323 131 q 387 186 373 162 l 387 321 l 315 321 q 251 291 271 321 q 231 214 231 260 q 248 154 231 177 q 294 131 265 131 m 555 871 l 385 871 l 385 1005 l 555 1005 l 555 871 m 251 871 l 81 871 l 81 1005 l 251 1005 l 251 871 z "},"å":{"ha":640,"x_min":39,"x_max":611,"o":"m 420 0 q 405 40 412 18 q 395 84 399 62 q 329 13 368 39 q 239 -14 290 -14 q 93 45 148 -14 q 39 205 39 105 q 108 372 39 313 q 315 432 178 432 l 387 432 l 387 492 q 368 574 387 545 q 310 603 349 603 q 261 580 277 603 q 245 513 245 557 l 58 513 l 56 517 q 127 680 53 613 q 323 747 201 747 q 509 681 437 747 q 581 490 581 614 l 581 193 q 588 92 581 139 q 611 0 595 45 l 420 0 m 294 131 q 348 146 323 131 q 387 186 373 162 l 387 321 l 315 321 q 251 291 271 321 q 231 214 231 260 q 248 154 231 177 q 294 131 265 131 m 186 961 q 224 1053 186 1015 q 317 1090 262 1090 q 409 1053 372 1090 q 446 961 446 1015 q 409 870 446 905 q 317 835 372 835 q 224 870 262 835 q 186 961 186 906 m 259 961 q 275 915 259 932 q 317 897 292 897 q 358 914 342 897 q 374 961 374 932 q 358 1008 374 990 q 317 1027 342 1027 q 275 1008 292 1027 q 259 961 259 990 z "},"ǻ":{"ha":640,"x_min":39,"x_max":611,"o":"m 420 0 q 405 40 412 18 q 395 84 399 62 q 329 13 368 39 q 239 -14 290 -14 q 93 45 148 -14 q 39 205 39 105 q 108 372 39 313 q 315 432 178 432 l 387 432 l 387 492 q 368 574 387 545 q 310 603 349 603 q 261 580 277 603 q 245 513 245 557 l 58 513 l 56 517 q 127 680 53 613 q 323 747 201 747 q 509 681 437 747 q 581 490 581 614 l 581 193 q 588 92 581 139 q 611 0 595 45 l 420 0 m 294 131 q 348 146 323 131 q 387 186 373 162 l 387 321 l 315 321 q 251 291 271 321 q 231 214 231 260 q 248 154 231 177 q 294 131 265 131 m 372 1238 l 537 1238 l 538 1234 l 378 1090 l 258 1090 l 372 1238 m 193 931 q 229 1020 193 984 q 317 1057 264 1057 q 404 1020 368 1057 q 439 931 439 984 q 404 843 439 878 q 317 808 368 808 q 229 843 264 808 q 193 931 193 878 m 264 931 q 279 888 264 905 q 317 871 294 871 q 353 888 339 871 q 367 931 367 905 q 353 976 367 958 q 317 994 339 994 q 279 976 294 994 q 264 931 264 958 z "},"ç":{"ha":617,"x_min":35,"x_max":589,"o":"m 330 140 q 390 169 370 140 q 410 253 410 198 l 585 253 l 587 249 q 516 60 589 134 q 330 -14 443 -14 q 112 79 188 -14 q 35 319 35 172 l 35 413 q 111 653 35 559 q 329 747 187 747 q 518 671 448 747 q 587 464 589 594 l 585 460 l 410 460 q 390 556 410 520 q 329 593 370 593 q 250 544 271 593 q 228 413 228 495 l 228 319 q 250 187 228 235 q 330 140 271 140 m 397 5 l 391 -35 q 450 -71 426 -43 q 474 -153 474 -99 q 419 -270 474 -226 q 265 -313 365 -313 l 261 -203 q 297 -189 284 -203 q 311 -146 311 -175 q 293 -106 311 -117 q 235 -91 276 -94 l 253 5 l 397 5 z "},"è":{"ha":636,"x_min":47,"x_max":602,"o":"m 348 -14 q 128 77 210 -14 q 47 306 47 168 l 47 409 q 122 652 47 557 q 332 747 198 747 q 531 661 460 747 q 602 427 602 575 l 602 309 l 239 309 l 239 306 q 272 186 239 233 q 371 140 304 140 q 459 152 425 140 q 540 193 493 164 l 589 70 q 487 9 551 33 q 348 -14 424 -14 m 332 593 q 264 551 286 593 q 239 437 242 509 l 412 437 l 412 465 q 393 559 412 526 q 332 593 374 593 m 414 840 l 258 840 l 92 1016 l 94 1020 l 296 1020 l 414 840 z "},"é":{"ha":636,"x_min":47,"x_max":602,"o":"m 348 -14 q 128 77 210 -14 q 47 306 47 168 l 47 409 q 122 652 47 557 q 332 747 198 747 q 531 661 460 747 q 602 427 602 575 l 602 309 l 239 309 l 239 306 q 272 186 239 233 q 371 140 304 140 q 459 152 425 140 q 540 193 493 164 l 589 70 q 487 9 551 33 q 348 -14 424 -14 m 332 593 q 264 551 286 593 q 239 437 242 509 l 412 437 l 412 465 q 393 559 412 526 q 332 593 374 593 m 337 1021 l 540 1021 l 542 1017 l 373 840 l 218 840 l 337 1021 z "},"ê":{"ha":636,"x_min":47,"x_max":602,"o":"m 348 -14 q 128 77 210 -14 q 47 306 47 168 l 47 409 q 122 652 47 557 q 332 747 198 747 q 531 661 460 747 q 602 427 602 575 l 602 309 l 239 309 l 239 306 q 272 186 239 233 q 371 140 304 140 q 459 152 425 140 q 540 193 493 164 l 589 70 q 487 9 551 33 q 348 -14 424 -14 m 332 593 q 264 551 286 593 q 239 437 242 509 l 412 437 l 412 465 q 393 559 412 526 q 332 593 374 593 m 543 876 l 543 861 l 393 861 l 315 952 l 239 861 l 92 861 l 92 878 l 262 1039 l 370 1039 l 543 876 z "},"ë":{"ha":636,"x_min":47,"x_max":602,"o":"m 348 -14 q 128 77 210 -14 q 47 306 47 168 l 47 409 q 122 652 47 557 q 332 747 198 747 q 531 661 460 747 q 602 427 602 575 l 602 309 l 239 309 l 239 306 q 272 186 239 233 q 371 140 304 140 q 459 152 425 140 q 540 193 493 164 l 589 70 q 487 9 551 33 q 348 -14 424 -14 m 332 593 q 264 551 286 593 q 239 437 242 509 l 412 437 l 412 465 q 393 559 412 526 q 332 593 374 593 m 554 871 l 385 871 l 385 1006 l 554 1006 l 554 871 m 250 871 l 80 871 l 80 1006 l 250 1006 l 250 871 z "},"ì":{"ha":348,"x_min":-50,"x_max":273,"o":"m 270 0 l 77 0 l 77 734 l 270 734 l 270 0 m 273 825 l 117 825 l -50 1001 l -47 1005 l 155 1005 l 273 825 z "},"í":{"ha":348,"x_min":75,"x_max":399,"o":"m 270 0 l 77 0 l 77 734 l 270 734 l 270 0 m 195 1006 l 397 1006 l 399 1002 l 231 825 l 75 825 l 195 1006 z "},"î":{"ha":348,"x_min":-49,"x_max":402,"o":"m 270 0 l 77 0 l 77 734 l 270 734 l 270 0 m 402 863 l 402 848 l 252 848 l 174 939 l 98 848 l -49 848 l -49 865 l 121 1025 l 229 1025 l 402 863 z "},"ï":{"ha":348,"x_min":-62,"x_max":412,"o":"m 270 0 l 77 0 l 77 734 l 270 734 l 270 0 m 412 857 l 242 857 l 242 991 l 412 991 l 412 857 m 108 857 l -62 857 l -62 991 l 108 991 l 108 857 z "},"ñ":{"ha":675,"x_min":59,"x_max":616,"o":"m 239 734 l 247 633 q 322 717 277 687 q 420 747 366 747 q 564 677 511 747 q 616 455 616 606 l 616 0 l 423 0 l 423 455 q 402 562 423 531 q 336 593 380 593 q 288 579 310 593 q 252 542 267 566 l 252 0 l 59 0 l 59 734 l 239 734 m 558 1039 q 524 929 558 975 q 435 884 489 884 q 343 914 395 884 q 260 944 290 944 q 229 922 242 944 q 216 868 216 899 l 115 897 q 150 1006 115 960 q 238 1053 185 1053 q 326 1023 269 1053 q 413 993 382 993 q 445 1015 431 993 q 458 1069 458 1037 l 558 1039 z "},"ò":{"ha":675,"x_min":39,"x_max":635,"o":"m 39 412 q 118 653 39 559 q 337 747 196 747 q 557 653 478 747 q 635 412 635 559 l 635 321 q 557 79 635 172 q 338 -14 478 -14 q 118 79 196 -14 q 39 321 39 172 l 39 412 m 231 321 q 255 188 231 236 q 338 140 279 140 q 419 188 395 140 q 443 321 443 237 l 443 412 q 419 544 443 494 q 337 593 395 593 q 255 543 279 593 q 231 412 231 494 l 231 321 m 435 839 l 279 839 l 112 1015 l 114 1019 l 316 1019 l 435 839 z "},"ó":{"ha":675,"x_min":39,"x_max":635,"o":"m 39 412 q 118 653 39 559 q 337 747 196 747 q 557 653 478 747 q 635 412 635 559 l 635 321 q 557 79 635 172 q 338 -14 478 -14 q 118 79 196 -14 q 39 321 39 172 l 39 412 m 231 321 q 255 188 231 236 q 338 140 279 140 q 419 188 395 140 q 443 321 443 237 l 443 412 q 419 544 443 494 q 337 593 395 593 q 255 543 279 593 q 231 412 231 494 l 231 321 m 357 1020 l 560 1020 l 562 1016 l 393 840 l 238 840 l 357 1020 z "},"ô":{"ha":675,"x_min":39,"x_max":635,"o":"m 39 412 q 118 653 39 559 q 337 747 196 747 q 557 653 478 747 q 635 412 635 559 l 635 321 q 557 79 635 172 q 338 -14 478 -14 q 118 79 196 -14 q 39 321 39 172 l 39 412 m 231 321 q 255 188 231 236 q 338 140 279 140 q 419 188 395 140 q 443 321 443 237 l 443 412 q 419 544 443 494 q 337 593 395 593 q 255 543 279 593 q 231 412 231 494 l 231 321 m 564 876 l 564 861 l 413 861 l 336 951 l 260 861 l 113 861 l 113 878 l 282 1038 l 390 1038 l 564 876 z "},"õ":{"ha":675,"x_min":39,"x_max":635,"o":"m 39 412 q 118 653 39 559 q 337 747 196 747 q 557 653 478 747 q 635 412 635 559 l 635 321 q 557 79 635 172 q 338 -14 478 -14 q 118 79 196 -14 q 39 321 39 172 l 39 412 m 231 321 q 255 188 231 236 q 338 140 279 140 q 419 188 395 140 q 443 321 443 237 l 443 412 q 419 544 443 494 q 337 593 395 593 q 255 543 279 593 q 231 412 231 494 l 231 321 m 558 1039 q 524 929 558 975 q 435 884 489 884 q 343 914 395 884 q 260 944 290 944 q 229 922 242 944 q 216 868 216 899 l 115 897 q 150 1006 115 960 q 238 1053 185 1053 q 326 1023 269 1053 q 413 993 382 993 q 445 1015 431 993 q 458 1069 458 1037 l 558 1039 z "},"ö":{"ha":675,"x_min":39,"x_max":635,"o":"m 39 412 q 118 653 39 559 q 337 747 196 747 q 557 653 478 747 q 635 412 635 559 l 635 321 q 557 79 635 172 q 338 -14 478 -14 q 118 79 196 -14 q 39 321 39 172 l 39 412 m 231 321 q 255 188 231 236 q 338 140 279 140 q 419 188 395 140 q 443 321 443 237 l 443 412 q 419 544 443 494 q 337 593 395 593 q 255 543 279 593 q 231 412 231 494 l 231 321 m 573 871 l 404 871 l 404 1005 l 573 1005 l 573 871 m 269 871 l 99 871 l 99 1005 l 269 1005 l 269 871 z "},"ù":{"ha":675,"x_min":58,"x_max":616,"o":"m 435 85 q 362 11 405 37 q 267 -14 320 -14 q 113 60 168 -14 q 58 290 58 134 l 58 734 l 250 734 l 250 289 q 269 176 250 211 q 326 140 288 140 q 381 152 357 140 q 422 187 406 164 l 422 734 l 616 734 l 616 0 l 446 0 l 435 85 m 433 825 l 277 825 l 111 1001 l 113 1005 l 315 1005 l 433 825 z "},"ú":{"ha":675,"x_min":58,"x_max":616,"o":"m 435 85 q 362 11 405 37 q 267 -14 320 -14 q 113 60 168 -14 q 58 290 58 134 l 58 734 l 250 734 l 250 289 q 269 176 250 211 q 326 140 288 140 q 381 152 357 140 q 422 187 406 164 l 422 734 l 616 734 l 616 0 l 446 0 l 435 85 m 356 1006 l 559 1006 l 561 1002 l 392 825 l 237 825 l 356 1006 z "},"û":{"ha":675,"x_min":58,"x_max":616,"o":"m 435 85 q 362 11 405 37 q 267 -14 320 -14 q 113 60 168 -14 q 58 290 58 134 l 58 734 l 250 734 l 250 289 q 269 176 250 211 q 326 140 288 140 q 381 152 357 140 q 422 187 406 164 l 422 734 l 616 734 l 616 0 l 446 0 l 435 85 m 562 863 l 562 848 l 412 848 l 334 939 l 258 848 l 111 848 l 111 865 l 281 1025 l 389 1025 l 562 863 z "},"ü":{"ha":675,"x_min":58,"x_max":616,"o":"m 435 85 q 362 11 405 37 q 267 -14 320 -14 q 113 60 168 -14 q 58 290 58 134 l 58 734 l 250 734 l 250 289 q 269 176 250 211 q 326 140 288 140 q 381 152 357 140 q 422 187 406 164 l 422 734 l 616 734 l 616 0 l 446 0 l 435 85 m 572 857 l 402 857 l 402 991 l 572 991 l 572 857 m 268 857 l 98 857 l 98 991 l 268 991 l 268 857 z "},"ý":{"ha":616,"x_min":3,"x_max":613,"o":"m 298 301 l 300 294 l 407 734 l 613 734 l 366 -111 q 291 -243 338 -190 q 149 -296 245 -296 q 107 -292 125 -296 q 58 -280 89 -288 l 81 -136 q 97 -139 92 -138 q 109 -140 102 -140 q 172 -118 151 -140 q 203 -60 193 -96 l 220 -6 l 3 734 l 210 734 l 298 301 m 328 1006 l 530 1006 l 532 1002 l 363 825 l 208 825 l 328 1006 z "},"ÿ":{"ha":616,"x_min":3,"x_max":613,"o":"m 298 301 l 300 294 l 407 734 l 613 734 l 366 -111 q 291 -243 338 -190 q 149 -296 245 -296 q 107 -292 125 -296 q 58 -280 89 -288 l 81 -136 q 97 -139 92 -138 q 109 -140 102 -140 q 172 -118 151 -140 q 203 -60 193 -96 l 220 -6 l 3 734 l 210 734 l 298 301 m 545 857 l 375 857 l 375 991 l 545 991 l 545 857 m 241 857 l 71 857 l 71 991 l 241 991 l 241 857 z "},"Ā":{"ha":769,"x_min":11,"x_max":767,"o":"m 519 210 l 258 210 l 205 0 l 11 0 l 289 987 l 490 987 l 767 0 l 572 0 l 519 210 m 298 365 l 479 365 l 391 714 l 387 714 l 298 365 m 612 1097 l 168 1097 l 168 1205 l 612 1205 l 612 1097 z "},"ā":{"ha":640,"x_min":39,"x_max":611,"o":"m 420 0 q 405 40 412 18 q 395 84 399 62 q 329 13 368 39 q 239 -14 290 -14 q 93 45 148 -14 q 39 205 39 105 q 108 372 39 313 q 315 432 178 432 l 387 432 l 387 492 q 368 574 387 545 q 310 603 349 603 q 261 580 277 603 q 245 513 245 557 l 58 513 l 56 517 q 127 680 53 613 q 323 747 201 747 q 509 681 437 747 q 581 490 581 614 l 581 193 q 588 92 581 139 q 611 0 595 45 l 420 0 m 294 131 q 348 146 323 131 q 387 186 373 162 l 387 321 l 315 321 q 251 291 271 321 q 231 214 231 260 q 248 154 231 177 q 294 131 265 131 m 541 880 l 97 880 l 97 988 l 541 988 l 541 880 z "},"Ă":{"ha":769,"x_min":11,"x_max":767,"o":"m 519 210 l 258 210 l 205 0 l 11 0 l 289 987 l 490 987 l 767 0 l 572 0 l 519 210 m 298 365 l 479 365 l 391 714 l 387 714 l 298 365 m 600 1286 l 601 1282 q 546 1140 604 1195 q 390 1086 488 1086 q 233 1141 291 1086 q 178 1282 174 1196 l 179 1286 l 319 1286 q 337 1227 319 1251 q 390 1204 354 1204 q 441 1227 425 1204 q 458 1286 458 1251 l 600 1286 z "},"ă":{"ha":640,"x_min":39,"x_max":611,"o":"m 420 0 q 405 40 412 18 q 395 84 399 62 q 329 13 368 39 q 239 -14 290 -14 q 93 45 148 -14 q 39 205 39 105 q 108 372 39 313 q 315 432 178 432 l 387 432 l 387 492 q 368 574 387 545 q 310 603 349 603 q 261 580 277 603 q 245 513 245 557 l 58 513 l 56 517 q 127 680 53 613 q 323 747 201 747 q 509 681 437 747 q 581 490 581 614 l 581 193 q 588 92 581 139 q 611 0 595 45 l 420 0 m 294 131 q 348 146 323 131 q 387 186 373 162 l 387 321 l 315 321 q 251 291 271 321 q 231 214 231 260 q 248 154 231 177 q 294 131 265 131 m 527 1068 l 528 1064 q 473 922 531 977 q 317 867 415 867 q 160 922 218 867 q 105 1064 102 977 l 106 1068 l 247 1068 q 264 1009 247 1032 q 317 986 281 986 q 369 1009 352 986 q 385 1068 385 1032 l 527 1068 z "},"Ą":{"ha":769,"x_min":11,"x_max":778,"o":"m 519 210 l 258 210 l 205 0 l 11 0 l 289 987 l 490 987 l 767 0 l 572 0 l 519 210 m 298 365 l 479 365 l 391 714 l 387 714 l 298 365 m 708 0 q 669 -60 681 -36 q 656 -118 656 -85 q 665 -148 656 -134 q 704 -163 674 -163 q 731 -159 720 -163 q 756 -149 743 -155 l 778 -252 q 730 -273 757 -264 q 667 -281 703 -281 q 558 -244 601 -281 q 515 -141 515 -208 q 540 -43 515 -90 q 621 38 566 3 l 708 0 z "},"ą":{"ha":640,"x_min":39,"x_max":621,"o":"m 420 0 q 405 40 412 18 q 395 84 399 62 q 329 13 368 39 q 239 -14 290 -14 q 93 45 148 -14 q 39 205 39 105 q 108 372 39 313 q 315 432 178 432 l 387 432 l 387 492 q 368 574 387 545 q 310 603 349 603 q 261 580 277 603 q 245 513 245 557 l 58 513 l 56 517 q 127 680 53 613 q 323 747 201 747 q 509 681 437 747 q 581 490 581 614 l 581 193 q 588 92 581 139 q 611 0 595 45 l 420 0 m 294 131 q 348 146 323 131 q 387 186 373 162 l 387 321 l 315 321 q 251 291 271 321 q 231 214 231 260 q 248 154 231 177 q 294 131 265 131 m 551 0 q 512 -60 524 -36 q 500 -118 500 -85 q 509 -148 500 -134 q 547 -163 517 -163 q 574 -159 563 -163 q 600 -149 586 -155 l 621 -252 q 573 -273 600 -264 q 511 -281 547 -281 q 401 -244 444 -281 q 358 -141 358 -208 q 384 -43 358 -90 q 464 38 409 3 l 551 0 z "},"Ć":{"ha":738,"x_min":50,"x_max":697,"o":"m 694 318 l 696 314 q 618 68 697 151 q 387 -14 540 -14 q 142 80 233 -14 q 50 346 50 174 l 50 641 q 139 907 50 812 q 376 1002 227 1002 q 613 918 533 1002 q 696 669 694 833 l 694 665 l 509 665 q 482 804 513 762 q 376 847 452 847 q 276 796 311 847 q 241 642 241 745 l 241 346 q 278 191 241 241 q 387 140 315 140 q 484 180 456 140 q 508 318 511 220 l 694 318 m 400 1253 l 603 1253 l 605 1249 l 436 1072 l 281 1072 l 400 1253 z "},"ć":{"ha":617,"x_min":35,"x_max":589,"o":"m 330 140 q 390 169 370 140 q 410 253 410 198 l 585 253 l 587 249 q 516 60 589 134 q 330 -14 443 -14 q 112 79 188 -14 q 35 319 35 172 l 35 413 q 111 653 35 559 q 329 747 187 747 q 518 671 448 747 q 587 464 589 594 l 585 460 l 410 460 q 390 556 410 520 q 329 593 370 593 q 250 544 271 593 q 228 413 228 495 l 228 319 q 250 187 228 235 q 330 140 271 140 m 330 1020 l 532 1020 l 534 1016 l 366 840 l 210 840 l 330 1020 z "},"Ĉ":{"ha":738,"x_min":50,"x_max":697,"o":"m 694 318 l 696 314 q 618 68 697 151 q 387 -14 540 -14 q 142 80 233 -14 q 50 346 50 174 l 50 641 q 139 907 50 812 q 376 1002 227 1002 q 613 918 533 1002 q 696 669 694 833 l 694 665 l 509 665 q 482 804 513 762 q 376 847 452 847 q 276 796 311 847 q 241 642 241 745 l 241 346 q 278 191 241 241 q 387 140 315 140 q 484 180 456 140 q 508 318 511 220 l 694 318 m 606 1108 l 606 1093 l 456 1093 l 378 1184 l 302 1093 l 155 1093 l 155 1110 l 325 1271 l 433 1271 l 606 1108 z "},"ĉ":{"ha":617,"x_min":35,"x_max":589,"o":"m 330 140 q 390 169 370 140 q 410 253 410 198 l 585 253 l 587 249 q 516 60 589 134 q 330 -14 443 -14 q 112 79 188 -14 q 35 319 35 172 l 35 413 q 111 653 35 559 q 329 747 187 747 q 518 671 448 747 q 587 464 589 594 l 585 460 l 410 460 q 390 556 410 520 q 329 593 370 593 q 250 544 271 593 q 228 413 228 495 l 228 319 q 250 187 228 235 q 330 140 271 140 m 536 876 l 536 861 l 385 861 l 308 951 l 232 861 l 85 861 l 85 878 l 254 1038 l 362 1038 l 536 876 z "},"Ċ":{"ha":738,"x_min":50,"x_max":697,"o":"m 694 318 l 696 314 q 618 68 697 151 q 387 -14 540 -14 q 142 80 233 -14 q 50 346 50 174 l 50 641 q 139 907 50 812 q 376 1002 227 1002 q 613 918 533 1002 q 696 669 694 833 l 694 665 l 509 665 q 482 804 513 762 q 376 847 452 847 q 276 796 311 847 q 241 642 241 745 l 241 346 q 278 191 241 241 q 387 140 315 140 q 484 180 456 140 q 508 318 511 220 l 694 318 m 475 1104 l 277 1104 l 277 1267 l 475 1267 l 475 1104 z "},"ċ":{"ha":617,"x_min":35,"x_max":589,"o":"m 330 140 q 390 169 370 140 q 410 253 410 198 l 585 253 l 587 249 q 516 60 589 134 q 330 -14 443 -14 q 112 79 188 -14 q 35 319 35 172 l 35 413 q 111 653 35 559 q 329 747 187 747 q 518 671 448 747 q 587 464 589 594 l 585 460 l 410 460 q 390 556 410 520 q 329 593 370 593 q 250 544 271 593 q 228 413 228 495 l 228 319 q 250 187 228 235 q 330 140 271 140 m 404 871 l 207 871 l 207 1035 l 404 1035 l 404 871 z "},"Č":{"ha":738,"x_min":50,"x_max":697,"o":"m 694 318 l 696 314 q 618 68 697 151 q 387 -14 540 -14 q 142 80 233 -14 q 50 346 50 174 l 50 641 q 139 907 50 812 q 376 1002 227 1002 q 613 918 533 1002 q 696 669 694 833 l 694 665 l 509 665 q 482 804 513 762 q 376 847 452 847 q 276 796 311 847 q 241 642 241 745 l 241 346 q 278 191 241 241 q 387 140 315 140 q 484 180 456 140 q 508 318 511 220 l 694 318 m 378 1198 l 438 1284 l 612 1284 l 612 1272 l 444 1101 l 313 1101 l 145 1274 l 145 1284 l 319 1284 l 378 1198 z "},"č":{"ha":617,"x_min":35,"x_max":589,"o":"m 330 140 q 390 169 370 140 q 410 253 410 198 l 585 253 l 587 249 q 516 60 589 134 q 330 -14 443 -14 q 112 79 188 -14 q 35 319 35 172 l 35 413 q 111 653 35 559 q 329 747 187 747 q 518 671 448 747 q 587 464 589 594 l 585 460 l 410 460 q 390 556 410 520 q 329 593 370 593 q 250 544 271 593 q 228 413 228 495 l 228 319 q 250 187 228 235 q 330 140 271 140 m 308 965 l 368 1051 l 541 1051 l 541 1040 l 373 868 l 243 868 l 75 1041 l 75 1051 l 248 1051 l 308 965 z "},"Ď":{"ha":781,"x_min":75,"x_max":723,"o":"m 75 0 l 75 987 l 373 987 q 624 872 525 987 q 723 576 723 758 l 723 410 q 624 115 723 229 q 373 0 525 0 l 75 0 m 268 833 l 268 154 l 362 154 q 487 224 443 154 q 530 410 530 294 l 530 578 q 487 763 530 693 q 362 833 443 833 l 268 833 m 343 1183 l 403 1270 l 576 1270 l 576 1258 l 408 1086 l 278 1086 l 110 1259 l 110 1270 l 283 1270 l 343 1183 z "},"ď":{"ha":777,"x_min":37,"x_max":806,"o":"m 37 363 q 100 642 37 536 q 280 747 164 747 q 357 727 323 747 q 419 669 392 707 l 419 1058 l 612 1058 l 612 0 l 444 0 l 431 80 q 365 10 403 34 q 279 -14 328 -14 q 100 85 163 -14 q 37 349 37 184 l 37 363 m 229 349 q 252 195 229 250 q 329 140 275 140 q 381 154 359 140 q 419 195 404 168 l 419 528 q 381 576 404 559 q 330 593 359 593 q 253 530 277 593 q 229 363 229 467 l 229 349 m 806 948 l 726 791 l 648 791 l 684 954 l 684 1057 l 806 1057 l 806 948 z "},"Ē":{"ha":684,"x_min":75,"x_max":658,"o":"m 600 433 l 268 433 l 268 154 l 658 154 l 658 0 l 75 0 l 75 987 l 656 987 l 656 833 l 268 833 l 268 587 l 600 587 l 600 433 m 571 1097 l 127 1097 l 127 1205 l 571 1205 l 571 1097 z "},"ē":{"ha":636,"x_min":47,"x_max":602,"o":"m 348 -14 q 128 77 210 -14 q 47 306 47 168 l 47 409 q 122 652 47 557 q 332 747 198 747 q 531 661 460 747 q 602 427 602 575 l 602 309 l 239 309 l 239 306 q 272 186 239 233 q 371 140 304 140 q 459 152 425 140 q 540 193 493 164 l 589 70 q 487 9 551 33 q 348 -14 424 -14 m 332 593 q 264 551 286 593 q 239 437 242 509 l 412 437 l 412 465 q 393 559 412 526 q 332 593 374 593 m 540 880 l 96 880 l 96 988 l 540 988 l 540 880 z "},"Ĕ":{"ha":684,"x_min":75,"x_max":658,"o":"m 600 433 l 268 433 l 268 154 l 658 154 l 658 0 l 75 0 l 75 987 l 656 987 l 656 833 l 268 833 l 268 587 l 600 587 l 600 433 m 559 1286 l 560 1282 q 505 1140 563 1195 q 349 1086 447 1086 q 192 1141 250 1086 q 137 1282 134 1196 l 138 1286 l 279 1286 q 296 1227 279 1251 q 349 1204 313 1204 q 400 1227 384 1204 q 417 1286 417 1251 l 559 1286 z "},"ĕ":{"ha":636,"x_min":47,"x_max":602,"o":"m 348 -14 q 128 77 210 -14 q 47 306 47 168 l 47 409 q 122 652 47 557 q 332 747 198 747 q 531 661 460 747 q 602 427 602 575 l 602 309 l 239 309 l 239 306 q 272 186 239 233 q 371 140 304 140 q 459 152 425 140 q 540 193 493 164 l 589 70 q 487 9 551 33 q 348 -14 424 -14 m 332 593 q 264 551 286 593 q 239 437 242 509 l 412 437 l 412 465 q 393 559 412 526 q 332 593 374 593 m 526 1069 l 528 1065 q 472 923 530 977 q 317 868 414 868 q 159 923 218 868 q 104 1065 101 978 l 106 1069 l 246 1069 q 263 1010 246 1033 q 317 987 281 987 q 368 1010 351 987 q 385 1069 385 1033 l 526 1069 z "},"Ė":{"ha":684,"x_min":75,"x_max":658,"o":"m 600 433 l 268 433 l 268 154 l 658 154 l 658 0 l 75 0 l 75 987 l 656 987 l 656 833 l 268 833 l 268 587 l 600 587 l 600 433 m 444 1090 l 247 1090 l 247 1253 l 444 1253 l 444 1090 z "},"ė":{"ha":636,"x_min":47,"x_max":602,"o":"m 348 -14 q 128 77 210 -14 q 47 306 47 168 l 47 409 q 122 652 47 557 q 332 747 198 747 q 531 661 460 747 q 602 427 602 575 l 602 309 l 239 309 l 239 306 q 272 186 239 233 q 371 140 304 140 q 459 152 425 140 q 540 193 493 164 l 589 70 q 487 9 551 33 q 348 -14 424 -14 m 332 593 q 264 551 286 593 q 239 437 242 509 l 412 437 l 412 465 q 393 559 412 526 q 332 593 374 593 m 412 872 l 214 872 l 214 1036 l 412 1036 l 412 872 z "},"Ę":{"ha":684,"x_min":75,"x_max":658,"o":"m 600 433 l 268 433 l 268 154 l 658 154 l 658 0 l 75 0 l 75 987 l 656 987 l 656 833 l 268 833 l 268 587 l 600 587 l 600 433 m 404 0 q 364 -60 376 -36 q 352 -118 352 -85 q 361 -148 352 -134 q 399 -163 370 -163 q 427 -159 415 -163 q 452 -149 438 -155 l 473 -252 q 426 -273 452 -264 q 363 -281 399 -281 q 253 -244 296 -281 q 210 -141 210 -208 q 236 -43 210 -90 q 316 38 261 3 l 404 0 z "},"ę":{"ha":636,"x_min":47,"x_max":602,"o":"m 348 -14 q 128 77 210 -14 q 47 306 47 168 l 47 409 q 122 652 47 557 q 332 747 198 747 q 531 661 460 747 q 602 427 602 575 l 602 309 l 239 309 l 239 306 q 272 186 239 233 q 371 140 304 140 q 459 152 425 140 q 540 193 493 164 l 589 70 q 487 9 551 33 q 348 -14 424 -14 m 332 593 q 264 551 286 593 q 239 437 242 509 l 412 437 l 412 465 q 393 559 412 526 q 332 593 374 593 m 511 27 q 472 -33 484 -9 q 460 -91 460 -58 q 469 -121 460 -106 q 507 -136 477 -136 q 534 -132 523 -136 q 559 -122 546 -128 l 581 -224 q 533 -245 560 -237 q 471 -254 507 -254 q 361 -217 404 -254 q 318 -114 318 -180 q 343 -16 318 -62 q 424 65 369 30 l 511 27 z "},"Ě":{"ha":684,"x_min":75,"x_max":658,"o":"m 600 433 l 268 433 l 268 154 l 658 154 l 658 0 l 75 0 l 75 987 l 656 987 l 656 833 l 268 833 l 268 587 l 600 587 l 600 433 m 348 1183 l 408 1270 l 581 1270 l 581 1258 l 413 1086 l 283 1086 l 115 1259 l 115 1270 l 288 1270 l 348 1183 z "},"ě":{"ha":636,"x_min":47,"x_max":602,"o":"m 348 -14 q 128 77 210 -14 q 47 306 47 168 l 47 409 q 122 652 47 557 q 332 747 198 747 q 531 661 460 747 q 602 427 602 575 l 602 309 l 239 309 l 239 306 q 272 186 239 233 q 371 140 304 140 q 459 152 425 140 q 540 193 493 164 l 589 70 q 487 9 551 33 q 348 -14 424 -14 m 332 593 q 264 551 286 593 q 239 437 242 509 l 412 437 l 412 465 q 393 559 412 526 q 332 593 374 593 m 315 966 l 375 1052 l 549 1052 l 549 1040 l 380 869 l 250 869 l 82 1042 l 82 1052 l 256 1052 l 315 966 z "},"Ĝ":{"ha":800,"x_min":55,"x_max":728,"o":"m 728 146 q 608 34 688 83 q 406 -14 528 -14 q 151 79 247 -14 q 55 343 55 172 l 55 644 q 148 908 55 814 q 393 1002 240 1002 q 639 921 557 1002 q 724 691 721 841 l 723 687 l 542 687 q 505 809 540 770 q 398 847 470 847 q 288 797 328 847 q 248 646 248 747 l 248 343 q 288 190 248 239 q 406 140 328 140 q 491 155 463 140 q 536 201 518 171 l 536 378 l 406 378 l 406 514 l 728 514 l 728 146 m 618 1108 l 618 1093 l 467 1093 l 390 1184 l 314 1093 l 167 1093 l 167 1110 l 336 1271 l 444 1271 l 618 1108 z "},"ĝ":{"ha":674,"x_min":37,"x_max":612,"o":"m 37 401 q 101 652 37 556 q 281 747 165 747 q 368 723 330 747 q 433 652 405 698 l 445 734 l 612 734 l 612 14 q 529 -213 612 -130 q 299 -296 445 -296 q 198 -281 252 -296 q 98 -240 144 -266 l 132 -92 q 211 -124 171 -113 q 298 -135 251 -135 q 389 -97 359 -135 q 420 15 420 -58 l 420 57 q 358 4 393 22 q 280 -14 323 -14 q 100 75 164 -14 q 37 311 37 164 l 37 401 m 229 311 q 252 185 229 231 q 330 140 275 140 q 382 153 359 140 q 420 189 405 165 l 420 536 q 383 578 405 563 q 331 593 361 593 q 253 540 277 593 q 229 401 229 488 l 229 311 m 550 876 l 550 861 l 399 861 l 322 951 l 246 861 l 99 861 l 99 878 l 269 1038 l 376 1038 l 550 876 z "},"Ğ":{"ha":800,"x_min":55,"x_max":728,"o":"m 728 146 q 608 34 688 83 q 406 -14 528 -14 q 151 79 247 -14 q 55 343 55 172 l 55 644 q 148 908 55 814 q 393 1002 240 1002 q 639 921 557 1002 q 724 691 721 841 l 723 687 l 542 687 q 505 809 540 770 q 398 847 470 847 q 288 797 328 847 q 248 646 248 747 l 248 343 q 288 190 248 239 q 406 140 328 140 q 491 155 463 140 q 536 201 518 171 l 536 378 l 406 378 l 406 514 l 728 514 l 728 146 m 601 1301 l 602 1297 q 547 1155 605 1209 q 391 1100 489 1100 q 234 1155 292 1100 q 179 1297 176 1210 l 180 1301 l 321 1301 q 338 1242 321 1265 q 391 1219 355 1219 q 443 1242 426 1219 q 459 1301 459 1265 l 601 1301 z "},"ğ":{"ha":674,"x_min":37,"x_max":612,"o":"m 37 401 q 101 652 37 556 q 281 747 165 747 q 368 723 330 747 q 433 652 405 698 l 445 734 l 612 734 l 612 14 q 529 -213 612 -130 q 299 -296 445 -296 q 198 -281 252 -296 q 98 -240 144 -266 l 132 -92 q 211 -124 171 -113 q 298 -135 251 -135 q 389 -97 359 -135 q 420 15 420 -58 l 420 57 q 358 4 393 22 q 280 -14 323 -14 q 100 75 164 -14 q 37 311 37 164 l 37 401 m 229 311 q 252 185 229 231 q 330 140 275 140 q 382 153 359 140 q 420 189 405 165 l 420 536 q 383 578 405 563 q 331 593 361 593 q 253 540 277 593 q 229 401 229 488 l 229 311 m 533 1068 l 534 1064 q 479 922 537 977 q 323 867 421 867 q 166 922 224 867 q 111 1064 108 977 l 113 1068 l 253 1068 q 270 1009 253 1032 q 323 986 288 986 q 375 1009 358 986 q 391 1068 391 1032 l 533 1068 z "},"Ġ":{"ha":800,"x_min":55,"x_max":728,"o":"m 728 146 q 608 34 688 83 q 406 -14 528 -14 q 151 79 247 -14 q 55 343 55 172 l 55 644 q 148 908 55 814 q 393 1002 240 1002 q 639 921 557 1002 q 724 691 721 841 l 723 687 l 542 687 q 505 809 540 770 q 398 847 470 847 q 288 797 328 847 q 248 646 248 747 l 248 343 q 288 190 248 239 q 406 140 328 140 q 491 155 463 140 q 536 201 518 171 l 536 378 l 406 378 l 406 514 l 728 514 l 728 146 m 486 1104 l 289 1104 l 289 1267 l 486 1267 l 486 1104 z "},"ġ":{"ha":674,"x_min":37,"x_max":612,"o":"m 37 401 q 101 652 37 556 q 281 747 165 747 q 368 723 330 747 q 433 652 405 698 l 445 734 l 612 734 l 612 14 q 529 -213 612 -130 q 299 -296 445 -296 q 198 -281 252 -296 q 98 -240 144 -266 l 132 -92 q 211 -124 171 -113 q 298 -135 251 -135 q 389 -97 359 -135 q 420 15 420 -58 l 420 57 q 358 4 393 22 q 280 -14 323 -14 q 100 75 164 -14 q 37 311 37 164 l 37 401 m 229 311 q 252 185 229 231 q 330 140 275 140 q 382 153 359 140 q 420 189 405 165 l 420 536 q 383 578 405 563 q 331 593 361 593 q 253 540 277 593 q 229 401 229 488 l 229 311 m 418 871 l 221 871 l 221 1035 l 418 1035 l 418 871 z "},"Ģ":{"ha":800,"x_min":55,"x_max":728,"o":"m 728 146 q 608 34 688 83 q 406 -14 528 -14 q 151 79 247 -14 q 55 343 55 172 l 55 644 q 148 908 55 814 q 393 1002 240 1002 q 639 921 557 1002 q 724 691 721 841 l 723 687 l 542 687 q 505 809 540 770 q 398 847 470 847 q 288 797 328 847 q 248 646 248 747 l 248 343 q 288 190 248 239 q 406 140 328 140 q 491 155 463 140 q 536 201 518 171 l 536 378 l 406 378 l 406 514 l 728 514 l 728 146 m 458 -175 l 378 -332 l 300 -332 l 336 -169 l 336 -66 l 458 -66 l 458 -175 z "},"ģ":{"ha":674,"x_min":37,"x_max":612,"o":"m 37 401 q 101 652 37 556 q 281 747 165 747 q 368 723 330 747 q 433 652 405 698 l 445 734 l 612 734 l 612 14 q 529 -213 612 -130 q 299 -296 445 -296 q 198 -281 252 -296 q 98 -240 144 -266 l 132 -92 q 211 -124 171 -113 q 298 -135 251 -135 q 389 -97 359 -135 q 420 15 420 -58 l 420 57 q 358 4 393 22 q 280 -14 323 -14 q 100 75 164 -14 q 37 311 37 164 l 37 401 m 229 311 q 252 185 229 231 q 330 140 275 140 q 382 153 359 140 q 420 189 405 165 l 420 536 q 383 578 405 563 q 331 593 361 593 q 253 540 277 593 q 229 401 229 488 l 229 311 m 243 975 l 311 1149 l 416 1149 l 396 970 l 396 854 l 243 854 l 243 975 z "},"Ĥ":{"ha":842,"x_min":75,"x_max":767,"o":"m 767 0 l 574 0 l 574 409 l 268 409 l 268 0 l 75 0 l 75 987 l 268 987 l 268 563 l 574 563 l 574 987 l 767 987 l 767 0 m 648 1094 l 648 1079 l 497 1079 l 420 1170 l 344 1079 l 197 1079 l 197 1096 l 366 1257 l 474 1257 l 648 1094 z "},"ĥ":{"ha":675,"x_min":57,"x_max":615,"o":"m 250 646 q 318 721 278 694 q 406 747 358 747 q 559 670 504 747 q 615 430 615 592 l 615 0 l 422 0 l 422 431 q 400 557 422 522 q 334 593 379 593 q 286 581 307 593 q 250 548 264 569 l 250 0 l 57 0 l 57 1058 l 250 1058 l 250 646 m 534 1095 l 534 1080 l 383 1080 l 306 1171 l 230 1080 l 83 1080 l 83 1097 l 252 1258 l 360 1258 l 534 1095 z "},"Ĩ":{"ha":362,"x_min":-38,"x_max":405,"o":"m 277 0 l 85 0 l 85 987 l 277 987 l 277 0 m 405 1257 q 370 1148 405 1193 q 282 1103 336 1103 q 190 1133 242 1103 q 107 1162 137 1162 q 76 1140 89 1162 q 63 1086 63 1118 l -38 1116 q -3 1225 -38 1179 q 85 1271 32 1271 q 173 1241 116 1271 q 260 1211 229 1211 q 291 1233 278 1211 q 304 1288 304 1255 l 405 1257 z "},"ĩ":{"ha":348,"x_min":-46,"x_max":397,"o":"m 270 0 l 77 0 l 77 734 l 270 734 l 270 0 m 397 1025 q 362 915 397 960 q 274 870 328 870 q 181 900 234 870 q 99 930 129 930 q 68 907 81 930 q 55 854 55 885 l -46 883 q -11 992 -46 946 q 77 1038 24 1038 q 164 1008 108 1038 q 252 979 221 979 q 283 1001 270 979 q 296 1055 296 1023 l 397 1025 z "},"Ī":{"ha":362,"x_min":-38,"x_max":406,"o":"m 277 0 l 85 0 l 85 987 l 277 987 l 277 0 m 406 1097 l -38 1097 l -38 1205 l 406 1205 l 406 1097 z "},"ī":{"ha":348,"x_min":-46,"x_max":397,"o":"m 270 0 l 77 0 l 77 734 l 270 734 l 270 0 m 397 865 l -46 865 l -46 974 l 397 974 l 397 865 z "},"Ĭ":{"ha":362,"x_min":-32,"x_max":397,"o":"m 277 0 l 85 0 l 85 987 l 277 987 l 277 0 m 393 1286 l 395 1282 q 339 1140 397 1195 q 184 1086 281 1086 q 26 1141 85 1086 q -28 1282 -32 1196 l -27 1286 l 113 1286 q 131 1227 113 1251 q 184 1204 148 1204 q 235 1227 218 1204 q 252 1286 252 1251 l 393 1286 z "},"ĭ":{"ha":348,"x_min":-40,"x_max":389,"o":"m 270 0 l 77 0 l 77 734 l 270 734 l 270 0 m 385 1054 l 387 1050 q 331 908 389 962 q 176 853 273 853 q 18 908 77 853 q -37 1050 -40 963 l -35 1054 l 105 1054 q 122 995 105 1018 q 176 972 140 972 q 227 995 210 972 q 243 1054 243 1018 l 385 1054 z "},"Į":{"ha":362,"x_min":25,"x_max":288,"o":"m 277 0 l 85 0 l 85 987 l 277 987 l 277 0 m 218 0 q 179 -60 191 -36 q 167 -118 167 -85 q 176 -148 167 -134 q 214 -163 184 -163 q 241 -159 230 -163 q 267 -149 253 -155 l 288 -252 q 240 -273 267 -264 q 178 -281 214 -281 q 68 -244 111 -281 q 25 -141 25 -208 q 51 -43 25 -90 q 131 38 76 3 l 218 0 z "},"į":{"ha":336,"x_min":12,"x_max":275,"o":"m 264 0 l 71 0 l 71 734 l 264 734 l 264 0 m 264 911 l 71 911 l 71 1058 l 264 1058 l 264 911 m 205 0 q 166 -60 178 -36 q 154 -118 154 -85 q 163 -148 154 -134 q 201 -163 172 -163 q 229 -159 217 -163 q 254 -149 240 -155 l 275 -252 q 228 -273 254 -264 q 165 -281 201 -281 q 55 -244 98 -281 q 12 -141 12 -208 q 38 -43 12 -90 q 118 38 63 3 l 205 0 z "},"İ":{"ha":362,"x_min":81,"x_max":279,"o":"m 277 0 l 85 0 l 85 987 l 277 987 l 277 0 m 279 1090 l 81 1090 l 81 1253 l 279 1253 l 279 1090 z "},"Ĳ":{"ha":1050,"x_min":85,"x_max":977,"o":"m 277 0 l 85 0 l 85 987 l 277 987 l 277 0 m 785 987 l 977 987 l 977 301 q 895 71 977 156 q 689 -14 813 -14 q 476 62 555 -14 q 401 286 398 138 l 403 290 l 591 290 q 618 176 591 212 q 689 140 646 140 q 756 182 728 140 q 785 301 785 225 l 785 987 z "},"ĳ":{"ha":666,"x_min":71,"x_max":604,"o":"m 264 0 l 71 0 l 71 734 l 264 734 l 264 0 m 264 911 l 71 911 l 71 1058 l 264 1058 l 264 911 m 604 734 l 604 -22 q 543 -225 604 -154 q 373 -296 481 -296 q 330 -293 349 -296 q 286 -284 310 -290 l 294 -133 q 321 -139 309 -137 q 349 -141 334 -141 q 394 -111 378 -141 q 410 -22 410 -81 l 410 734 l 604 734 m 600 911 l 407 911 l 407 1058 l 600 1058 l 600 911 z "},"Ĵ":{"ha":688,"x_min":36,"x_max":734,"o":"m 422 987 l 614 987 l 614 301 q 533 71 614 156 q 327 -14 451 -14 q 114 62 193 -14 q 39 286 36 138 l 41 290 l 229 290 q 256 176 229 212 q 327 140 283 140 q 394 182 366 140 q 422 301 422 225 l 422 987 m 734 1090 l 734 1076 l 584 1076 l 507 1166 l 431 1076 l 283 1076 l 283 1093 l 453 1253 l 561 1253 l 734 1090 z "},"ĵ":{"ha":358,"x_min":-54,"x_max":397,"o":"m 279 734 l 279 -22 q 218 -225 279 -154 q 48 -296 157 -296 q 5 -293 24 -296 q -39 -284 -15 -290 l -30 -134 q -3 -140 -16 -138 q 25 -142 9 -142 q 70 -111 54 -142 q 86 -22 86 -80 l 86 734 l 279 734 m 397 859 l 397 844 l 246 844 l 169 935 l 93 844 l -54 844 l -54 861 l 115 1022 l 223 1022 l 397 859 z "},"Ķ":{"ha":771,"x_min":75,"x_max":782,"o":"m 352 410 l 268 410 l 268 0 l 75 0 l 75 987 l 268 987 l 268 586 l 330 586 l 523 987 l 760 987 l 490 536 l 782 0 l 547 0 l 352 410 m 435 -175 l 355 -332 l 277 -332 l 313 -169 l 313 -66 l 435 -66 l 435 -175 z "},"ķ":{"ha":653,"x_min":62,"x_max":665,"o":"m 290 305 l 255 305 l 255 0 l 62 0 l 62 1058 l 255 1058 l 255 457 l 287 457 l 411 734 l 633 734 l 441 404 l 665 0 l 444 0 l 290 305 m 392 -175 l 311 -332 l 234 -332 l 270 -169 l 270 -66 l 392 -66 l 392 -175 z "},"Ĺ":{"ha":650,"x_min":75,"x_max":629,"o":"m 268 154 l 629 154 l 629 0 l 75 0 l 75 987 l 268 987 l 268 154 m 194 1227 l 397 1227 l 399 1223 l 230 1047 l 75 1047 l 194 1227 z "},"ĺ":{"ha":336,"x_min":69,"x_max":393,"o":"m 264 0 l 71 0 l 71 1058 l 264 1058 l 264 0 m 189 1282 l 391 1282 l 393 1278 l 224 1101 l 69 1101 l 189 1282 z "},"Ļ":{"ha":650,"x_min":75,"x_max":629,"o":"m 268 154 l 629 154 l 629 0 l 75 0 l 75 987 l 268 987 l 268 154 m 408 -175 l 327 -332 l 250 -332 l 286 -169 l 286 -66 l 408 -66 l 408 -175 z "},"ļ":{"ha":336,"x_min":66,"x_max":264,"o":"m 264 0 l 71 0 l 71 1058 l 264 1058 l 264 0 m 224 -175 l 144 -332 l 66 -332 l 102 -169 l 102 -66 l 224 -66 l 224 -175 z "},"Ľ":{"ha":650,"x_min":75,"x_max":629,"o":"m 268 154 l 629 154 l 629 0 l 75 0 l 75 987 l 268 987 l 268 154 m 523 880 l 442 724 l 365 724 l 401 886 l 401 989 l 523 989 l 523 880 z "},"ľ":{"ha":437,"x_min":71,"x_max":467,"o":"m 264 0 l 71 0 l 71 1058 l 264 1058 l 264 0 m 467 948 l 386 791 l 309 791 l 345 954 l 345 1057 l 467 1057 l 467 948 z "},"Ŀ":{"ha":650,"x_min":75,"x_max":629,"o":"m 268 154 l 629 154 l 629 0 l 75 0 l 75 987 l 268 987 l 268 154 m 529 461 l 332 461 l 332 625 l 529 625 l 529 461 z "},"ŀ":{"ha":485,"x_min":71,"x_max":509,"o":"m 264 0 l 71 0 l 71 1058 l 264 1058 l 264 0 m 509 426 l 311 426 l 311 589 l 509 589 l 509 426 z "},"Ń":{"ha":842,"x_min":75,"x_max":766,"o":"m 766 0 l 574 0 l 272 631 l 268 630 l 268 0 l 75 0 l 75 987 l 268 987 l 570 357 l 574 358 l 574 987 l 766 987 l 766 0 m 441 1238 l 644 1238 l 646 1234 l 477 1058 l 322 1058 l 441 1238 z "},"ń":{"ha":675,"x_min":59,"x_max":616,"o":"m 239 734 l 247 633 q 322 717 277 687 q 420 747 366 747 q 564 677 511 747 q 616 455 616 606 l 616 0 l 423 0 l 423 455 q 402 562 423 531 q 336 593 380 593 q 288 579 310 593 q 252 542 267 566 l 252 0 l 59 0 l 59 734 l 239 734 m 357 1020 l 560 1020 l 562 1016 l 393 840 l 238 840 l 357 1020 z "},"Ņ":{"ha":842,"x_min":75,"x_max":766,"o":"m 766 0 l 574 0 l 272 631 l 268 630 l 268 0 l 75 0 l 75 987 l 268 987 l 570 357 l 574 358 l 574 987 l 766 987 l 766 0 m 477 -175 l 397 -332 l 319 -332 l 355 -169 l 355 -66 l 477 -66 l 477 -175 z "},"ņ":{"ha":675,"x_min":59,"x_max":616,"o":"m 239 734 l 247 633 q 322 717 277 687 q 420 747 366 747 q 564 677 511 747 q 616 455 616 606 l 616 0 l 423 0 l 423 455 q 402 562 423 531 q 336 593 380 593 q 288 579 310 593 q 252 542 267 566 l 252 0 l 59 0 l 59 734 l 239 734 m 393 -175 l 313 -332 l 235 -332 l 271 -169 l 271 -66 l 393 -66 l 393 -175 z "},"Ň":{"ha":842,"x_min":75,"x_max":766,"o":"m 766 0 l 574 0 l 272 631 l 268 630 l 268 0 l 75 0 l 75 987 l 268 987 l 570 357 l 574 358 l 574 987 l 766 987 l 766 0 m 420 1183 l 479 1270 l 653 1270 l 653 1258 l 485 1086 l 355 1086 l 186 1259 l 186 1270 l 360 1270 l 420 1183 z "},"ň":{"ha":675,"x_min":59,"x_max":616,"o":"m 239 734 l 247 633 q 322 717 277 687 q 420 747 366 747 q 564 677 511 747 q 616 455 616 606 l 616 0 l 423 0 l 423 455 q 402 562 423 531 q 336 593 380 593 q 288 579 310 593 q 252 542 267 566 l 252 0 l 59 0 l 59 734 l 239 734 m 336 965 l 395 1051 l 569 1051 l 569 1040 l 401 868 l 271 868 l 102 1041 l 102 1051 l 276 1051 l 336 965 z "},"ŉ":{"ha":675,"x_min":-10,"x_max":616,"o":"m 239 734 l 247 633 q 322 717 277 687 q 420 747 366 747 q 564 677 511 747 q 616 455 616 606 l 616 0 l 423 0 l 423 455 q 402 562 423 531 q 336 593 380 593 q 288 579 310 593 q 252 542 267 566 l 252 0 l 59 0 l 59 734 l 239 734 m 148 947 l 67 791 l -10 791 l 26 954 l 26 1057 l 148 1057 l 148 947 z "},"Ō":{"ha":791,"x_min":51,"x_max":740,"o":"m 740 355 q 646 83 740 181 q 395 -14 551 -14 q 144 83 238 -14 q 51 355 51 181 l 51 631 q 144 903 51 804 q 394 1002 238 1002 q 645 903 550 1002 q 740 631 740 804 l 740 355 m 548 633 q 509 792 548 739 q 394 846 469 846 q 280 793 318 846 q 242 633 242 739 l 242 355 q 281 194 242 248 q 395 140 319 140 q 509 194 469 140 q 548 355 548 248 l 548 633 m 618 1111 l 175 1111 l 175 1219 l 618 1219 l 618 1111 z "},"ō":{"ha":675,"x_min":39,"x_max":635,"o":"m 39 412 q 118 653 39 559 q 337 747 196 747 q 557 653 478 747 q 635 412 635 559 l 635 321 q 557 79 635 172 q 338 -14 478 -14 q 118 79 196 -14 q 39 321 39 172 l 39 412 m 231 321 q 255 188 231 236 q 338 140 279 140 q 419 188 395 140 q 443 321 443 237 l 443 412 q 419 544 443 494 q 337 593 395 593 q 255 543 279 593 q 231 412 231 494 l 231 321 m 559 880 l 115 880 l 115 988 l 559 988 l 559 880 z "},"Ŏ":{"ha":791,"x_min":51,"x_max":740,"o":"m 740 355 q 646 83 740 181 q 395 -14 551 -14 q 144 83 238 -14 q 51 355 51 181 l 51 631 q 144 903 51 804 q 394 1002 238 1002 q 645 903 550 1002 q 740 631 740 804 l 740 355 m 548 633 q 509 792 548 739 q 394 846 469 846 q 280 793 318 846 q 242 633 242 739 l 242 355 q 281 194 242 248 q 395 140 319 140 q 509 194 469 140 q 548 355 548 248 l 548 633 m 606 1301 l 608 1297 q 552 1155 610 1209 q 397 1100 494 1100 q 239 1155 298 1100 q 184 1297 181 1210 l 186 1301 l 326 1301 q 343 1242 326 1265 q 397 1219 361 1219 q 448 1242 431 1219 q 465 1301 465 1265 l 606 1301 z "},"ŏ":{"ha":675,"x_min":39,"x_max":635,"o":"m 39 412 q 118 653 39 559 q 337 747 196 747 q 557 653 478 747 q 635 412 635 559 l 635 321 q 557 79 635 172 q 338 -14 478 -14 q 118 79 196 -14 q 39 321 39 172 l 39 412 m 231 321 q 255 188 231 236 q 338 140 279 140 q 419 188 395 140 q 443 321 443 237 l 443 412 q 419 544 443 494 q 337 593 395 593 q 255 543 279 593 q 231 412 231 494 l 231 321 m 547 1068 l 548 1064 q 493 922 551 977 q 337 867 435 867 q 180 922 238 867 q 125 1064 121 977 l 126 1068 l 267 1068 q 284 1009 267 1032 q 337 986 301 986 q 388 1009 372 986 q 405 1068 405 1032 l 547 1068 z "},"Ő":{"ha":791,"x_min":51,"x_max":740,"o":"m 740 355 q 646 83 740 181 q 395 -14 551 -14 q 144 83 238 -14 q 51 355 51 181 l 51 631 q 144 903 51 804 q 394 1002 238 1002 q 645 903 550 1002 q 740 631 740 804 l 740 355 m 548 633 q 509 792 548 739 q 394 846 469 846 q 280 793 318 846 q 242 633 242 739 l 242 355 q 281 194 242 248 q 395 140 319 140 q 509 194 469 140 q 548 355 548 248 l 548 633 m 550 1280 l 729 1280 l 730 1277 l 569 1100 l 413 1100 l 550 1280 m 314 1280 l 496 1280 l 355 1100 l 201 1100 l 314 1280 z "},"ő":{"ha":675,"x_min":39,"x_max":671,"o":"m 39 412 q 118 653 39 559 q 337 747 196 747 q 557 653 478 747 q 635 412 635 559 l 635 321 q 557 79 635 172 q 338 -14 478 -14 q 118 79 196 -14 q 39 321 39 172 l 39 412 m 231 321 q 255 188 231 236 q 338 140 279 140 q 419 188 395 140 q 443 321 443 237 l 443 412 q 419 544 443 494 q 337 593 395 593 q 255 543 279 593 q 231 412 231 494 l 231 321 m 490 1048 l 669 1048 l 671 1044 l 509 867 l 353 867 l 490 1048 m 254 1048 l 436 1048 l 296 867 l 142 867 l 254 1048 z "},"Ŕ":{"ha":788,"x_min":75,"x_max":760,"o":"m 268 393 l 268 0 l 75 0 l 75 987 l 397 987 q 626 910 543 987 q 709 696 709 833 q 675 563 709 618 q 574 473 640 507 q 683 388 650 448 q 717 239 717 328 l 717 169 q 726 82 717 128 q 760 14 736 35 l 760 0 l 560 0 q 530 71 536 22 q 524 170 524 119 l 524 237 q 494 352 524 311 q 408 393 464 393 l 268 393 m 268 547 l 397 547 q 486 583 456 547 q 517 685 517 618 q 486 793 517 753 q 397 833 456 833 l 268 833 l 268 547 m 391 1238 l 593 1238 l 595 1234 l 427 1058 l 271 1058 l 391 1238 z "},"ŕ":{"ha":444,"x_min":62,"x_max":468,"o":"m 409 558 l 336 560 q 286 545 306 560 q 255 503 266 530 l 255 0 l 62 0 l 62 734 l 242 734 l 250 635 l 253 634 q 302 717 271 687 q 376 747 334 747 q 403 745 389 747 q 429 739 418 743 l 409 558 m 263 1020 l 466 1020 l 468 1016 l 299 840 l 144 840 l 263 1020 z "},"Ŗ":{"ha":788,"x_min":75,"x_max":760,"o":"m 268 393 l 268 0 l 75 0 l 75 987 l 397 987 q 626 910 543 987 q 709 696 709 833 q 675 563 709 618 q 574 473 640 507 q 683 388 650 448 q 717 239 717 328 l 717 169 q 726 82 717 128 q 760 14 736 35 l 760 0 l 560 0 q 530 71 536 22 q 524 170 524 119 l 524 237 q 494 352 524 311 q 408 393 464 393 l 268 393 m 268 547 l 397 547 q 486 583 456 547 q 517 685 517 618 q 486 793 517 753 q 397 833 456 833 l 268 833 l 268 547 m 427 -175 l 346 -332 l 269 -332 l 304 -169 l 304 -66 l 427 -66 l 427 -175 z "},"ŗ":{"ha":444,"x_min":62,"x_max":429,"o":"m 409 558 l 336 560 q 286 545 306 560 q 255 503 266 530 l 255 0 l 62 0 l 62 734 l 242 734 l 250 635 l 253 634 q 302 717 271 687 q 376 747 334 747 q 403 745 389 747 q 429 739 418 743 l 409 558 m 224 -175 l 144 -332 l 66 -332 l 102 -169 l 102 -66 l 224 -66 l 224 -175 z "},"Ř":{"ha":788,"x_min":75,"x_max":760,"o":"m 268 393 l 268 0 l 75 0 l 75 987 l 397 987 q 626 910 543 987 q 709 696 709 833 q 675 563 709 618 q 574 473 640 507 q 683 388 650 448 q 717 239 717 328 l 717 169 q 726 82 717 128 q 760 14 736 35 l 760 0 l 560 0 q 530 71 536 22 q 524 170 524 119 l 524 237 q 494 352 524 311 q 408 393 464 393 l 268 393 m 268 547 l 397 547 q 486 583 456 547 q 517 685 517 618 q 486 793 517 753 q 397 833 456 833 l 268 833 l 268 547 m 369 1183 l 429 1270 l 602 1270 l 602 1258 l 434 1086 l 304 1086 l 136 1259 l 136 1270 l 309 1270 l 369 1183 z "},"ř":{"ha":444,"x_min":9,"x_max":476,"o":"m 409 558 l 336 560 q 286 545 306 560 q 255 503 266 530 l 255 0 l 62 0 l 62 734 l 242 734 l 250 635 l 253 634 q 302 717 271 687 q 376 747 334 747 q 403 745 389 747 q 429 739 418 743 l 409 558 m 243 965 l 302 1051 l 476 1051 l 476 1040 l 308 868 l 178 868 l 9 1041 l 9 1051 l 183 1051 l 243 965 z "},"Ś":{"ha":752,"x_min":45,"x_max":706,"o":"m 513 258 q 484 349 513 315 q 378 415 454 382 q 148 537 224 469 q 71 728 71 605 q 160 925 71 849 q 389 1002 250 1002 q 618 917 530 1002 q 703 702 706 831 l 702 698 l 515 698 q 481 808 515 766 q 385 850 447 850 q 295 815 328 850 q 263 727 263 780 q 299 647 263 678 q 424 576 335 615 q 635 456 564 529 q 706 259 706 383 q 621 58 706 131 q 393 -14 535 -14 q 149 68 252 -14 q 49 304 45 151 l 50 309 l 238 309 q 277 177 238 217 q 393 137 315 137 q 484 170 454 137 q 513 258 513 202 m 398 1253 l 601 1253 l 603 1249 l 434 1072 l 279 1072 l 398 1253 z "},"ś":{"ha":602,"x_min":23,"x_max":568,"o":"m 382 192 q 357 246 382 223 q 264 302 333 269 q 98 395 153 343 q 43 531 43 448 q 114 684 43 621 q 301 747 184 747 q 496 682 423 747 q 566 516 568 617 l 564 512 l 378 512 q 359 585 378 558 q 300 612 340 612 q 248 591 269 612 q 226 541 226 570 q 248 488 226 508 q 342 433 269 468 q 513 340 457 394 q 568 199 568 286 q 494 45 568 105 q 298 -14 419 -14 q 97 60 171 -14 q 26 227 23 134 l 28 231 l 204 231 q 231 146 205 172 q 302 121 257 121 q 361 140 341 121 q 382 192 382 159 m 325 1020 l 528 1020 l 530 1016 l 361 840 l 205 840 l 325 1020 z "},"Ŝ":{"ha":752,"x_min":45,"x_max":706,"o":"m 513 258 q 484 349 513 315 q 378 415 454 382 q 148 537 224 469 q 71 728 71 605 q 160 925 71 849 q 389 1002 250 1002 q 618 917 530 1002 q 703 702 706 831 l 702 698 l 515 698 q 481 808 515 766 q 385 850 447 850 q 295 815 328 850 q 263 727 263 780 q 299 647 263 678 q 424 576 335 615 q 635 456 564 529 q 706 259 706 383 q 621 58 706 131 q 393 -14 535 -14 q 149 68 252 -14 q 49 304 45 151 l 50 309 l 238 309 q 277 177 238 217 q 393 137 315 137 q 484 170 454 137 q 513 258 513 202 m 604 1108 l 604 1093 l 454 1093 l 376 1184 l 300 1093 l 153 1093 l 153 1110 l 323 1271 l 431 1271 l 604 1108 z "},"ŝ":{"ha":602,"x_min":23,"x_max":568,"o":"m 382 192 q 357 246 382 223 q 264 302 333 269 q 98 395 153 343 q 43 531 43 448 q 114 684 43 621 q 301 747 184 747 q 496 682 423 747 q 566 516 568 617 l 564 512 l 378 512 q 359 585 378 558 q 300 612 340 612 q 248 591 269 612 q 226 541 226 570 q 248 488 226 508 q 342 433 269 468 q 513 340 457 394 q 568 199 568 286 q 494 45 568 105 q 298 -14 419 -14 q 97 60 171 -14 q 26 227 23 134 l 28 231 l 204 231 q 231 146 205 172 q 302 121 257 121 q 361 140 341 121 q 382 192 382 159 m 531 876 l 531 861 l 380 861 l 303 951 l 227 861 l 80 861 l 80 878 l 250 1038 l 357 1038 l 531 876 z "},"Ş":{"ha":752,"x_min":45,"x_max":706,"o":"m 513 258 q 484 349 513 315 q 378 415 454 382 q 148 537 224 469 q 71 728 71 605 q 160 925 71 849 q 389 1002 250 1002 q 618 917 530 1002 q 703 702 706 831 l 702 698 l 515 698 q 481 808 515 766 q 385 850 447 850 q 295 815 328 850 q 263 727 263 780 q 299 647 263 678 q 424 576 335 615 q 635 456 564 529 q 706 259 706 383 q 621 58 706 131 q 393 -14 535 -14 q 149 68 252 -14 q 49 304 45 151 l 50 309 l 238 309 q 277 177 238 217 q 393 137 315 137 q 484 170 454 137 q 513 258 513 202 m 464 -1 l 458 -41 q 516 -76 492 -48 q 541 -158 541 -104 q 486 -275 541 -231 q 332 -319 431 -319 l 328 -208 q 364 -194 351 -208 q 377 -151 377 -180 q 360 -111 377 -123 q 301 -96 342 -100 l 319 -1 l 464 -1 z "},"ş":{"ha":602,"x_min":23,"x_max":568,"o":"m 382 192 q 357 246 382 223 q 264 302 333 269 q 98 395 153 343 q 43 531 43 448 q 114 684 43 621 q 301 747 184 747 q 496 682 423 747 q 566 516 568 617 l 564 512 l 378 512 q 359 585 378 558 q 300 612 340 612 q 248 591 269 612 q 226 541 226 570 q 248 488 226 508 q 342 433 269 468 q 513 340 457 394 q 568 199 568 286 q 494 45 568 105 q 298 -14 419 -14 q 97 60 171 -14 q 26 227 23 134 l 28 231 l 204 231 q 231 146 205 172 q 302 121 257 121 q 361 140 341 121 q 382 192 382 159 m 378 0 l 372 -40 q 430 -76 406 -47 q 454 -157 454 -104 q 400 -274 454 -231 q 245 -318 345 -318 l 241 -208 q 278 -194 264 -208 q 291 -151 291 -180 q 274 -111 291 -122 q 215 -96 256 -99 l 233 0 l 378 0 z "},"Ș":{"ha":752,"x_min":45,"x_max":706,"o":"m 513 258 q 484 349 513 315 q 378 415 454 382 q 148 537 224 469 q 71 728 71 605 q 160 925 71 849 q 389 1002 250 1002 q 618 917 530 1002 q 703 702 706 831 l 702 698 l 515 698 q 481 808 515 766 q 385 850 447 850 q 295 815 328 850 q 263 727 263 780 q 299 647 263 678 q 424 576 335 615 q 635 456 564 529 q 706 259 706 383 q 621 58 706 131 q 393 -14 535 -14 q 149 68 252 -14 q 49 304 45 151 l 50 309 l 238 309 q 277 177 238 217 q 393 137 315 137 q 484 170 454 137 q 513 258 513 202 m 447 -175 l 366 -332 l 289 -332 l 325 -169 l 325 -66 l 447 -66 l 447 -175 z "},"ș":{"ha":602,"x_min":23,"x_max":568,"o":"m 382 192 q 357 246 382 223 q 264 302 333 269 q 98 395 153 343 q 43 531 43 448 q 114 684 43 621 q 301 747 184 747 q 496 682 423 747 q 566 516 568 617 l 564 512 l 378 512 q 359 585 378 558 q 300 612 340 612 q 248 591 269 612 q 226 541 226 570 q 248 488 226 508 q 342 433 269 468 q 513 340 457 394 q 568 199 568 286 q 494 45 568 105 q 298 -14 419 -14 q 97 60 171 -14 q 26 227 23 134 l 28 231 l 204 231 q 231 146 205 172 q 302 121 257 121 q 361 140 341 121 q 382 192 382 159 m 361 -175 l 280 -332 l 203 -332 l 239 -169 l 239 -66 l 361 -66 l 361 -175 z "},"Š":{"ha":752,"x_min":45,"x_max":706,"o":"m 513 258 q 484 349 513 315 q 378 415 454 382 q 148 537 224 469 q 71 728 71 605 q 160 925 71 849 q 389 1002 250 1002 q 618 917 530 1002 q 703 702 706 831 l 702 698 l 515 698 q 481 808 515 766 q 385 850 447 850 q 295 815 328 850 q 263 727 263 780 q 299 647 263 678 q 424 576 335 615 q 635 456 564 529 q 706 259 706 383 q 621 58 706 131 q 393 -14 535 -14 q 149 68 252 -14 q 49 304 45 151 l 50 309 l 238 309 q 277 177 238 217 q 393 137 315 137 q 484 170 454 137 q 513 258 513 202 m 376 1198 l 436 1284 l 610 1284 l 610 1272 l 441 1101 l 311 1101 l 143 1274 l 143 1284 l 317 1284 l 376 1198 z "},"š":{"ha":602,"x_min":23,"x_max":568,"o":"m 382 192 q 357 246 382 223 q 264 302 333 269 q 98 395 153 343 q 43 531 43 448 q 114 684 43 621 q 301 747 184 747 q 496 682 423 747 q 566 516 568 617 l 564 512 l 378 512 q 359 585 378 558 q 300 612 340 612 q 248 591 269 612 q 226 541 226 570 q 248 488 226 508 q 342 433 269 468 q 513 340 457 394 q 568 199 568 286 q 494 45 568 105 q 298 -14 419 -14 q 97 60 171 -14 q 26 227 23 134 l 28 231 l 204 231 q 231 146 205 172 q 302 121 257 121 q 361 140 341 121 q 382 192 382 159 m 303 965 l 363 1051 l 536 1051 l 536 1040 l 368 868 l 238 868 l 70 1041 l 70 1051 l 243 1051 l 303 965 z "},"Ţ":{"ha":674,"x_min":20,"x_max":656,"o":"m 656 833 l 433 833 l 433 0 l 241 0 l 241 833 l 20 833 l 20 987 l 656 987 l 656 833 m 396 -175 l 315 -332 l 238 -332 l 274 -169 l 274 -66 l 396 -66 l 396 -175 z "},"ţ":{"ha":439,"x_min":12,"x_max":412,"o":"m 292 916 l 292 734 l 393 734 l 393 594 l 292 594 l 292 226 q 304 162 292 181 q 340 142 317 142 q 370 144 357 142 q 397 150 382 146 l 412 3 q 353 -10 381 -6 q 290 -14 326 -14 q 148 43 197 -14 q 99 225 99 100 l 99 594 l 12 594 l 12 734 l 99 734 l 99 916 l 292 916 m 312 -175 l 231 -332 l 154 -332 l 190 -169 l 190 -66 l 312 -66 l 312 -175 z "},"Ț":{"ha":674,"x_min":20,"x_max":656,"o":"m 656 833 l 433 833 l 433 0 l 241 0 l 241 833 l 20 833 l 20 987 l 656 987 l 656 833 m 413 11 l 407 -29 q 466 -65 441 -37 q 490 -146 490 -93 q 435 -263 490 -220 q 281 -307 380 -307 l 277 -197 q 313 -183 300 -197 q 326 -140 326 -169 q 309 -100 326 -111 q 250 -85 292 -88 l 269 11 l 413 11 z "},"ț":{"ha":439,"x_min":12,"x_max":412,"o":"m 292 916 l 292 734 l 393 734 l 393 594 l 292 594 l 292 226 q 304 162 292 181 q 340 142 317 142 q 370 144 357 142 q 397 150 382 146 l 412 3 q 353 -10 381 -6 q 290 -14 326 -14 q 148 43 197 -14 q 99 225 99 100 l 99 594 l 12 594 l 12 734 l 99 734 l 99 916 l 292 916 m 329 5 l 323 -35 q 381 -71 357 -43 q 406 -153 406 -99 q 351 -270 406 -226 q 197 -313 296 -313 l 193 -203 q 229 -189 216 -203 q 242 -146 242 -175 q 225 -106 242 -117 q 166 -91 208 -94 l 184 5 l 329 5 z "}}}
